<svg width="445" height="396" viewBox="0 0 445 396" fill="none" xmlns="http://www.w3.org/2000/svg">
<mask id="mask0_1_7456" style="mask-type:alpha" maskUnits="userSpaceOnUse" x="0" y="0" width="445" height="396">
<rect width="445" height="396" fill="#D9D9D9"/>
</mask>
<g mask="url(#mask0_1_7456)">
<rect x="411.418" y="310.613" width="259.16" height="104.999" rx="6" transform="rotate(-62.8547 411.418 310.613)" fill="#5E5E5E"/>
<path d="M432.148 305.338C433.568 306.066 433.865 307.54 433 309.227L431.461 312.228L423.794 308.296L425.273 305.413C426.099 303.801 427.335 303.18 428.648 303.854C429.353 304.215 429.716 304.9 429.718 305.764C430.455 305.063 431.305 304.906 432.148 305.338ZM426.488 306.198L425.831 307.48L427.615 308.394L428.272 307.113C428.677 306.323 428.543 305.742 427.988 305.457C427.443 305.178 426.893 305.408 426.488 306.198ZM429.624 307.658L428.907 309.057L430.935 310.097L431.653 308.698C432.102 307.822 431.953 307.166 431.301 306.832C430.693 306.52 430.073 306.782 429.624 307.658ZM436.241 299.434L437.651 300.156L435.006 305.314L427.339 301.383L429.945 296.3L431.355 297.023L429.581 300.482L431.193 301.309L432.803 298.17L434.202 298.887L432.592 302.026L434.429 302.968L436.241 299.434ZM439.127 297.278L438.294 298.901L430.627 294.97L433.168 290.015L434.577 290.738L432.869 294.069L434.802 295.06L436.242 292.252L437.641 292.969L436.201 295.777L439.127 297.278ZM443.346 289.443C442.212 291.654 439.628 292.486 437.332 291.309C435.036 290.132 434.225 287.558 435.358 285.348C436.497 283.127 439.066 282.273 441.362 283.45C443.657 284.627 444.484 287.222 443.346 289.443ZM441.893 288.699C442.616 287.289 441.912 285.849 440.502 285.126C439.092 284.404 437.533 284.683 436.811 286.093C436.093 287.491 436.777 288.921 438.186 289.643C439.596 290.366 441.176 290.097 441.893 288.699ZM446.612 282.678L445.78 284.301L438.113 280.37L439.651 277.37C440.642 275.437 442.114 274.776 443.705 275.592C444.741 276.123 445.235 277.185 445.039 278.46L449.01 278.001L448.019 279.934L444.42 280.273L443.9 281.288L446.612 282.678ZM440.29 279.437L442.565 280.603L443.233 279.301C443.736 278.318 443.62 277.598 442.873 277.215C442.115 276.826 441.462 277.152 440.958 278.134L440.29 279.437ZM450.763 271.111L452.172 271.834L449.528 276.991L441.861 273.06L444.467 267.978L445.876 268.7L444.102 272.16L445.715 272.987L447.325 269.847L448.723 270.565L447.114 273.704L448.95 274.646L450.763 271.111ZM456.588 263.221L454.648 262.955L453.12 265.934L454.464 267.364L453.626 268.998L447.437 262.184L448.346 260.411L457.481 261.481L456.588 263.221ZM449.642 262.249L452.064 264.812L453.126 262.741L449.642 262.249ZM460.522 255.549L453.371 256.319L458.72 259.062L457.959 260.547L450.292 256.616L451.19 254.864L457.987 254.128L452.904 251.522L453.67 250.027L461.337 253.958L460.522 255.549ZM463.542 249.659L462.146 252.381L454.479 248.45L455.875 245.728C457.123 243.293 459.438 242.619 461.67 243.763C463.901 244.907 464.763 247.277 463.542 249.659ZM456.71 247.545L461.579 250.041L462.099 249.027C462.882 247.5 462.407 246.244 460.816 245.429C459.289 244.646 458.013 245.003 457.23 246.53L456.71 247.545ZM469.896 237.266L467.956 236.999L466.428 239.979L467.772 241.409L466.934 243.043L460.745 236.229L461.654 234.456L470.788 235.525L469.896 237.266ZM462.95 236.294L465.372 238.857L466.434 236.785L462.95 236.294ZM472.099 232.968L471.267 234.591L463.6 230.66L466.141 225.706L467.55 226.428L465.842 229.76L467.775 230.751L469.215 227.943L470.614 228.66L469.174 231.468L472.099 232.968ZM476.136 225.095L475.304 226.718L469.1 223.537L467.863 225.95L466.4 225.2L469.712 218.74L471.175 219.49L469.932 221.914L476.136 225.095ZM479.111 215.822L480.52 216.545L477.876 221.702L470.209 217.771L472.815 212.689L474.224 213.411L472.45 216.871L474.063 217.698L475.673 214.558L477.071 215.276L475.462 218.415L477.298 219.357L479.111 215.822ZM481.996 213.666L481.164 215.289L473.497 211.358L475.035 208.358C476.026 206.425 477.498 205.764 479.089 206.579C480.125 207.11 480.619 208.173 480.423 209.448L484.394 208.989L483.403 210.922L479.804 211.261L479.284 212.276L481.996 213.666ZM475.675 210.425L477.949 211.591L478.617 210.288C479.121 209.306 479.005 208.586 478.257 208.202C477.499 207.814 476.846 208.14 476.343 209.122L475.675 210.425ZM488.684 200.622L486.744 200.356L485.217 203.335L486.56 204.765L485.722 206.399L479.533 199.585L480.442 197.812L489.577 198.882L488.684 200.622ZM481.739 199.65L484.16 202.213L485.222 200.142L481.739 199.65ZM492.618 192.95L485.467 193.72L490.816 196.463L490.055 197.948L482.388 194.017L483.286 192.265L490.083 191.529L485 188.923L485.767 187.428L493.434 191.359L492.618 192.95ZM495.638 187.06L494.242 189.782L486.575 185.851L487.971 183.128C489.219 180.694 491.534 180.02 493.766 181.164C495.997 182.308 496.859 184.678 495.638 187.06ZM488.806 184.946L493.675 187.442L494.195 186.428C494.978 184.901 494.503 183.645 492.912 182.83C491.385 182.047 490.109 182.404 489.326 183.931L488.806 184.946ZM499.999 172.688C501.462 173.438 501.885 175.138 500.9 177.06C499.909 178.993 498.254 179.669 496.571 178.954L497.414 177.309C498.28 177.699 499.103 177.434 499.613 176.441C500.034 175.619 499.972 174.845 499.353 174.528C498.872 174.281 498.392 174.507 497.93 175.093L497.039 176.227C496.218 177.276 495.128 177.85 493.857 177.198C492.49 176.497 492.127 174.787 492.975 173.132C493.857 171.413 495.506 170.667 497.163 171.382L496.32 173.026C495.492 172.669 494.662 172.945 494.246 173.757C493.841 174.547 494.06 175.225 494.593 175.499C495.117 175.767 495.587 175.402 495.979 174.901L496.919 173.725C497.876 172.516 498.868 172.108 499.999 172.688ZM505.535 167.757L502.994 172.712L495.327 168.781L496.16 167.158L502.364 170.339L504.072 167.007L505.535 167.757ZM507.341 160.763L508.751 161.485L506.106 166.643L498.439 162.712L501.045 157.629L502.455 158.352L500.681 161.811L502.293 162.638L503.903 159.499L505.302 160.216L503.692 163.355L505.529 164.297L507.341 160.763ZM510.629 154.349L512.039 155.072L509.394 160.23L501.727 156.299L504.333 151.216L505.743 151.938L503.969 155.398L505.582 156.225L507.191 153.086L508.59 153.803L506.98 156.942L508.817 157.884L510.629 154.349ZM511.635 149.706L511.016 150.912L513.515 152.193L512.683 153.816L505.016 149.885L506.466 147.056C507.425 145.187 508.908 144.477 510.573 145.332C512.239 146.186 512.593 147.837 511.635 149.706ZM507.828 147.767L507.215 148.963L509.649 150.211L510.262 149.015C510.733 148.097 510.516 147.338 509.757 146.949C508.999 146.561 508.299 146.849 507.828 147.767ZM442.871 314.504L442.253 315.711L444.751 316.992L443.919 318.615L436.252 314.684L437.703 311.854C438.661 309.986 440.144 309.276 441.81 310.13C443.476 310.984 443.83 312.635 442.871 314.504ZM439.064 312.566L438.451 313.762L440.886 315.01L441.499 313.814C441.97 312.896 441.752 312.137 440.994 311.748C440.236 311.359 439.535 311.647 439.064 312.566ZM449.846 307.055L447.906 306.789L446.379 309.768L447.722 311.199L446.884 312.832L440.695 306.018L441.604 304.246L450.739 305.315L449.846 307.055ZM442.901 306.083L445.322 308.646L446.384 306.575L442.901 306.083ZM452.638 301.61L451.806 303.233L445.602 300.052L444.364 302.466L442.902 301.715L446.214 295.255L447.677 296.005L446.434 298.429L452.638 301.61ZM456.215 294.634L455.383 296.257L449.179 293.076L447.941 295.489L446.478 294.739L449.791 288.279L451.254 289.029L450.011 291.453L456.215 294.634ZM459.189 285.361L460.599 286.084L457.954 291.242L450.287 287.311L452.893 282.228L454.303 282.95L452.529 286.41L454.141 287.237L455.751 284.098L457.15 284.815L455.54 287.954L457.377 288.896L459.189 285.361ZM462.075 283.205L461.242 284.828L453.575 280.897L455.114 277.897C456.105 275.964 457.577 275.303 459.168 276.119C460.204 276.65 460.697 277.712 460.502 278.987L464.473 278.528L463.482 280.461L459.882 280.8L459.362 281.815L462.075 283.205ZM455.753 279.964L458.028 281.13L458.696 279.828C459.199 278.845 459.083 278.125 458.336 277.742C457.577 277.353 456.925 277.679 456.421 278.661L455.753 279.964ZM467.553 272.521L460.402 273.291L465.751 276.034L464.99 277.518L457.323 273.587L458.221 271.836L465.018 271.1L459.935 268.494L460.702 266.999L468.369 270.93L467.553 272.521ZM469.812 262.249C471.275 262.999 471.698 264.699 470.713 266.621C469.722 268.554 468.067 269.229 466.384 268.515L467.227 266.87C468.093 267.26 468.916 266.995 469.426 266.002C469.847 265.179 469.785 264.406 469.166 264.088C468.685 263.842 468.205 264.068 467.743 264.654L466.852 265.788C466.031 266.837 464.941 267.411 463.67 266.759C462.303 266.058 461.939 264.348 462.788 262.693C463.67 260.974 465.319 260.228 466.976 260.943L466.133 262.587C465.304 262.23 464.475 262.506 464.059 263.317C463.654 264.108 463.872 264.786 464.406 265.06C464.93 265.328 465.4 264.963 465.792 264.462L466.732 263.286C467.689 262.077 468.68 261.668 469.812 262.249Z" fill="#474747"/>
<path d="M457.887 333.776L461.416 326.894L469.479 321.094L474.017 312.245L474.02 302.313L473.014 294.347L481.078 288.547L483.701 277.475L489.545 277.988L492.47 268.312L492.072 253.207L494.393 240.738L506.387 233.229L511.933 222.413L509.013 212.224L508.715 200.895L511.64 191.219L514.363 183.923L517.789 183.197L516.64 179.481L520.31 178.28L518.299 162.349L524.747 165.655L526.565 154.169L532.913 153.699L527.775 149.823L532.512 148.526L535.437 138.851L540.475 138.95L543.904 128.291L540.68 126.638L550.153 124.045L564.163 112.602L567.692 105.72L571.321 102.613" stroke="#3E3E3E" stroke-width="2" stroke-linejoin="round"/>
<path d="M469.266 339.61L479.1 320.43L478.108 315.884L493.967 295.755L494.498 283.917L503.139 273.545L500.032 245.038L519.084 235.966L510.959 223.726L515.991 218.232L512.483 216.433L517.084 216.101L519.039 203.647L523.64 203.314L523.41 195.122L528.557 193.724L537.73 171.513L532.552 151.365L539.67 148.286L539.655 137.513L548.526 135.333L547.304 122.595L553.444 125.743L550.035 117.267L553.86 109.808L556.591 104.48L563.824 105.497L570.941 102.418" stroke="#6C6C6C" stroke-width="2" stroke-linejoin="round"/>
<path d="M13.7813 622.506L-33.7509 476.382C-34.4343 474.281 -33.2853 472.024 -31.1845 471.341L47.0614 445.888C48.123 445.543 49.2807 445.657 50.2545 446.203L84.2516 465.259C85.2254 465.805 86.3831 465.919 87.4447 465.574L187 433.189C189.101 432.506 191.358 433.655 192.041 435.756L229.918 552.199C230.602 554.3 229.453 556.557 227.352 557.24L18.8225 625.072C16.7217 625.755 14.4647 624.606 13.7813 622.506Z" fill="#434343"/>
<g filter="url(#filter1_bdd_1_7456)">
<rect x="244.348" y="364.355" width="254.729" height="192.723" rx="6" transform="rotate(-49.9667 244.348 364.355)" fill="#F8F8F8"/>
<rect x="245.052" y="364.294" width="253.729" height="191.723" rx="5.5" transform="rotate(-49.9667 245.052 364.294)" stroke="#B9B6AA"/>
</g>
<line x1="285.424" y1="367.568" x2="384.868" y2="451.11" stroke="#F8F8F8"/>
<line x1="523.985" y1="286.288" x2="384.929" y2="451.814" stroke="#F8F8F8"/>
<rect x="352.184" y="441.815" width="69.5477" height="7.54132" transform="rotate(-139.967 352.184 441.815)" fill="#F8F8F8"/>
<rect x="442.396" y="391.75" width="50.2754" height="6.70339" transform="rotate(-49.9667 442.396 391.75)" fill="#F8F8F8"/>
<path d="M390.348 345.835C389.925 345.48 389.87 344.849 390.225 344.426L397.023 336.334C397.379 335.911 398.01 335.857 398.432 336.212L447.068 377.07L438.983 386.694L390.348 345.835Z" fill="#F8F8F8"/>
<path d="M416.58 278.135C416.157 277.779 416.102 277.149 416.458 276.726L423.256 268.633C423.611 268.211 424.242 268.156 424.665 268.511L491.264 324.461L483.18 334.084L416.58 278.135Z" fill="#F8F8F8"/>
<path d="M385.832 321.249C385.409 320.893 385.354 320.263 385.71 319.84L393.047 311.106C393.402 310.683 394.033 310.628 394.456 310.983L457.848 364.238L449.224 374.503L385.832 321.249Z" fill="#F8F8F8"/>
<path d="M332.653 366.312C332.23 365.957 332.176 365.326 332.531 364.903L339.868 356.169C340.223 355.747 340.854 355.692 341.277 356.047L413.651 416.847L405.027 427.113L332.653 366.312Z" fill="#F8F8F8"/>
<path d="M414.575 323.509C414.152 323.153 414.098 322.523 414.453 322.1L421.79 313.366C422.145 312.943 422.776 312.888 423.199 313.243L468.627 351.407L460.003 361.672L414.575 323.509Z" fill="#F8F8F8"/>
<path d="M444.784 281.036C444.361 280.681 444.307 280.05 444.662 279.627L451.999 270.893C452.354 270.471 452.985 270.416 453.408 270.771L502.043 311.629L493.42 321.894L444.784 281.036Z" fill="#F8F8F8"/>
<path d="M370.379 376.118C369.956 375.763 369.901 375.132 370.257 374.709L377.594 365.975C377.949 365.552 378.58 365.498 379.003 365.853L424.43 404.016L415.807 414.281L370.379 376.118Z" fill="#F8F8F8"/>
<rect x="171.707" y="316.023" width="313.805" height="208.226" rx="3" transform="rotate(-27.2557 171.707 316.023)" fill="#474747"/>
<path d="M230.344 296.266C228.398 297 226.335 296.122 225.551 294.045C224.802 292.062 225.681 290.031 227.646 289.289C229.349 288.646 230.947 289.198 231.937 290.491L230.262 291.123C229.799 290.518 228.987 290.237 228.089 290.576C227.004 290.985 226.481 292.091 227.024 293.532C227.512 294.823 228.606 295.543 229.954 295.034C230.945 294.66 231.35 293.834 231.223 292.931L229.277 293.665L228.849 292.533L232.311 291.227C233.221 293.384 232.486 295.457 230.344 296.266ZM236.09 293.937L234.668 294.473L232.133 287.756L234.762 286.764C236.455 286.125 237.734 286.54 238.26 287.934C238.603 288.841 238.313 289.773 237.479 290.452L240.188 292.39L238.495 293.029L236.082 291.225L235.193 291.56L236.09 293.937ZM234 288.398L234.752 290.391L235.893 289.96C236.754 289.635 237.085 289.125 236.838 288.47C236.588 287.806 236.002 287.642 235.141 287.967L234 288.398ZM244.13 291.063C242.193 291.794 240.131 290.862 239.372 288.85C238.613 286.839 239.552 284.795 241.489 284.064C243.435 283.33 245.499 284.24 246.258 286.251C247.017 288.263 246.076 290.328 244.13 291.063ZM243.65 289.79C244.885 289.324 245.255 288.04 244.789 286.806C244.323 285.571 243.204 284.871 241.969 285.337C240.743 285.799 240.366 287.064 240.832 288.299C241.298 289.534 242.424 290.253 243.65 289.79ZM251.485 280.452L253.057 284.615C253.657 286.206 253.063 287.691 251.314 288.351C249.536 289.022 248.128 288.292 247.527 286.702L245.956 282.539L247.378 282.002L248.96 286.193C249.274 287.026 249.888 287.435 250.833 287.079C251.769 286.726 251.959 286.013 251.645 285.18L250.063 280.988L251.485 280.452ZM257.034 283.531L255.976 283.93L256.803 286.119L255.381 286.656L252.845 279.938L255.325 279.003C256.962 278.385 258.275 278.776 258.826 280.236C259.376 281.695 258.671 282.913 257.034 283.531ZM255.767 280.204L254.719 280.599L255.524 282.732L256.572 282.337C257.377 282.033 257.667 281.443 257.416 280.778C257.166 280.114 256.572 279.9 255.767 280.204ZM266.467 282.632C264.577 283.345 262.52 282.369 261.775 280.395C261.033 278.43 261.936 276.347 263.826 275.634C265.594 274.966 267.424 275.622 268.307 277.256L266.801 277.824C266.278 276.921 265.279 276.539 264.325 276.899C263.174 277.333 262.74 278.534 263.234 279.844C263.732 281.163 264.855 281.787 266.006 281.352C266.96 280.992 267.445 280.04 267.249 279.012L268.756 278.444C269.179 280.272 268.235 281.964 266.467 282.632ZM273.888 279.831C271.951 280.562 269.889 279.63 269.13 277.619C268.371 275.607 269.31 273.564 271.246 272.833C273.192 272.098 275.256 273.008 276.016 275.02C276.775 277.031 275.834 279.097 273.888 279.831ZM273.407 278.559C274.642 278.093 275.013 276.809 274.547 275.574C274.081 274.339 272.961 273.639 271.726 274.105C270.501 274.568 270.123 275.833 270.589 277.068C271.055 278.303 272.182 279.021 273.407 278.559ZM281.318 276.866L277.874 273.067L279.559 277.53L278.268 278.018L275.732 271.3L277.435 270.657L281.26 274.9L281.336 269.185L283.039 268.542L285.574 275.26L284.283 275.747L282.585 271.247L282.506 276.418L281.318 276.866ZM288.6 271.616L287.543 272.016L288.369 274.205L286.947 274.741L284.412 268.024L286.891 267.088C288.528 266.47 289.841 266.862 290.392 268.321C290.943 269.781 290.238 270.999 288.6 271.616ZM287.334 268.289L286.286 268.685L287.091 270.818L288.139 270.422C288.944 270.119 289.234 269.528 288.983 268.864C288.732 268.2 288.138 267.986 287.334 268.289ZM297.075 270.919L296.026 269.669L293.416 270.654L293.445 272.289L292.014 272.829L292.004 265.158L293.558 264.572L298.6 270.343L297.075 270.919ZM293.33 266.432L293.391 269.37L295.206 268.685L293.33 266.432ZM300.841 269.498L299.419 270.034L296.883 263.317L299.512 262.325C301.206 261.686 302.485 262.101 303.011 263.495C303.353 264.402 303.064 265.334 302.23 266.013L304.939 267.951L303.245 268.59L300.833 266.786L299.944 267.121L300.841 269.498ZM298.75 263.959L299.502 265.952L300.644 265.521C301.505 265.196 301.836 264.686 301.589 264.031C301.338 263.367 300.752 263.203 299.892 263.528L298.75 263.959ZM307.245 267.08L305.823 267.617L303.288 260.9L304.71 260.363L307.245 267.08ZM312.987 262.53C313.47 263.812 312.78 265.098 311.096 265.734C309.403 266.373 308.003 265.864 307.363 264.481L308.804 263.937C309.121 264.662 309.778 264.959 310.648 264.631C311.368 264.359 311.763 263.847 311.558 263.304C311.399 262.883 310.976 262.754 310.363 262.857L309.178 263.059C308.084 263.247 307.09 262.992 306.67 261.878C306.218 260.681 306.95 259.421 308.4 258.874C309.907 258.305 311.342 258.768 311.966 260.136L310.525 260.68C310.213 259.996 309.547 259.702 308.836 259.971C308.143 260.232 307.899 260.773 308.075 261.241C308.248 261.7 308.743 261.737 309.265 261.647L310.504 261.447C311.771 261.236 312.612 261.538 312.987 262.53ZM317.734 263.282C315.797 264.013 313.735 263.081 312.976 261.07C312.217 259.058 313.156 257.015 315.092 256.284C317.038 255.549 319.103 256.459 319.862 258.471C320.621 260.482 319.68 262.548 317.734 263.282ZM317.253 262.01C318.488 261.543 318.859 260.26 318.393 259.025C317.927 257.79 316.808 257.09 315.573 257.556C314.347 258.019 313.969 259.284 314.435 260.519C314.902 261.754 316.028 262.472 317.253 262.01ZM326.492 259.816L321.645 256.29L323.414 260.978L322.114 261.468L319.578 254.751L321.113 254.172L325.722 257.52L324.041 253.067L325.351 252.572L327.886 259.29L326.492 259.816ZM334.251 257.048C332.361 257.761 330.304 256.785 329.559 254.811C328.817 252.846 329.72 250.763 331.61 250.05C333.378 249.382 335.207 250.039 336.091 251.672L334.585 252.24C334.062 251.337 333.063 250.955 332.109 251.315C330.958 251.749 330.524 252.95 331.018 254.26C331.516 255.579 332.639 256.203 333.789 255.768C334.744 255.408 335.229 254.456 335.033 253.428L336.54 252.86C336.962 254.688 336.019 256.38 334.251 257.048ZM340 254.718L338.578 255.254L336.042 248.537L337.464 248L338.464 250.648L341.373 249.55L340.374 246.902L341.796 246.365L344.332 253.083L342.909 253.619L341.836 250.775L338.926 251.874L340 254.718ZM350.204 250.866L349.155 249.616L346.545 250.601L346.574 252.236L345.143 252.777L345.133 245.106L346.686 244.52L351.729 250.291L350.204 250.866ZM346.459 246.38L346.52 249.317L348.335 248.632L346.459 246.38ZM353.969 249.445L352.547 249.982L350.012 243.264L352.641 242.272C354.334 241.633 355.613 242.048 356.14 243.442C356.482 244.35 356.193 245.282 355.358 245.96L358.067 247.898L356.374 248.538L353.961 246.733L353.073 247.069L353.969 249.445ZM351.879 243.906L352.631 245.899L353.773 245.468C354.633 245.143 354.965 244.634 354.717 243.979C354.467 243.314 353.881 243.151 353.02 243.476L351.879 243.906ZM361.846 246.472L360.424 247.009L358.372 241.573L356.258 242.371L355.774 241.09L361.434 238.953L361.918 240.235L359.794 241.037L361.846 246.472ZM369.048 241.37C369.532 242.652 368.842 243.939 367.158 244.574C365.464 245.213 364.065 244.705 363.425 243.322L364.866 242.778C365.182 243.503 365.84 243.8 366.71 243.471C367.43 243.2 367.824 242.687 367.62 242.145C367.461 241.724 367.038 241.595 366.425 241.698L365.24 241.899C364.146 242.088 363.152 241.832 362.731 240.719C362.279 239.521 363.012 238.262 364.462 237.714C365.968 237.146 367.404 237.608 368.027 238.977L366.586 239.52C366.275 238.836 365.608 238.543 364.897 238.811C364.205 239.072 363.96 239.614 364.137 240.082C364.31 240.54 364.805 240.578 365.327 240.487L366.566 240.287C367.833 240.076 368.674 240.379 369.048 241.37Z" fill="#ADADAD"/>
<line x1="207.065" y1="295.593" x2="263.564" y2="445.285" stroke="#B3B3B3"/>
<line x1="512.438" y1="351.886" x2="263.274" y2="445.929" stroke="#B3B3B3"/>
<rect x="234.156" y="415.559" width="85.6771" height="9.29029" transform="rotate(-110.678 234.156 415.559)" fill="#EBEBEB"/>
<rect x="361.258" y="416.133" width="61.9352" height="8.25803" transform="rotate(-20.6782 361.258 416.133)" fill="#EBEBEB"/>
<path d="M259.927 381.525C259.732 381.009 259.993 380.432 260.51 380.237L273.125 375.475C273.642 375.28 274.219 375.541 274.414 376.058L295.931 433.067L281.445 438.535L259.927 381.525Z" fill="#D9D9D9"/>
<path d="M332.923 335.217C332.728 334.7 332.989 334.123 333.506 333.928L346.121 329.167C346.638 328.972 347.215 329.232 347.41 329.749L375.124 403.177L360.637 408.644L332.923 335.217Z" fill="#D9D9D9"/>
<path d="M401.912 278.287C401.717 277.77 401.977 277.193 402.494 276.998L415.109 272.237C415.626 272.042 416.203 272.303 416.398 272.82L454.318 373.288L439.832 378.756L401.912 278.287Z" fill="#D9D9D9"/>
<path d="M342.888 306.08C342.693 305.563 342.954 304.986 343.471 304.791L357.052 299.666C357.568 299.47 358.145 299.731 358.34 300.248L394.438 395.888L378.986 401.72L342.888 306.08Z" fill="#C2C2C2"/>
<path d="M258.595 322.447C258.4 321.931 258.661 321.354 259.178 321.159L272.759 316.033C273.275 315.838 273.852 316.098 274.047 316.615L315.248 425.776L299.796 431.608L258.595 322.447Z" fill="#C2C2C2"/>
<path d="M372.412 325.83C372.217 325.313 372.477 324.736 372.994 324.541L386.575 319.416C387.092 319.22 387.669 319.481 387.864 319.998L413.755 388.597L398.303 394.429L372.412 325.83Z" fill="#AEAEAE"/>
<path d="M430.462 298.4C430.267 297.884 430.528 297.307 431.045 297.112L444.626 291.986C445.143 291.791 445.72 292.052 445.915 292.568L473.629 365.996L458.177 371.828L430.462 298.4Z" fill="#C2C2C2"/>
<path d="M293.22 355.721C293.025 355.204 293.286 354.627 293.803 354.432L307.384 349.306C307.9 349.111 308.477 349.372 308.672 349.889L334.564 418.487L319.112 424.319L293.22 355.721Z" fill="#AEAEAE"/>
<g filter="url(#filter2_d_1_7456)">
<rect x="123.93" y="262.846" width="214" height="142" rx="3" transform="rotate(5.02129 123.93 262.846)" fill="#5E5E5E"/>
<path d="M133.469 276.813L132.343 276.715L132.138 279.046L130.624 278.913L131.253 271.76L133.892 271.992C135.636 272.145 136.649 273.067 136.512 274.621C136.376 276.175 135.212 276.967 133.469 276.813ZM133.771 273.266L132.655 273.168L132.455 275.439L133.571 275.538C134.428 275.613 134.945 275.207 135.007 274.499C135.069 273.792 134.627 273.342 133.771 273.266ZM141.408 279.86L141.005 278.279L138.226 278.035L137.543 279.52L136.019 279.387L139.337 272.47L140.991 272.616L143.032 280.003L141.408 279.86ZM139.979 274.193L138.76 276.867L140.692 277.037L139.979 274.193ZM145.417 280.212L143.903 280.079L144.532 272.927L147.331 273.173C149.134 273.331 150.106 274.26 149.976 275.744C149.891 276.71 149.226 277.425 148.18 277.674L149.781 280.596L147.977 280.437L146.586 277.765L145.64 277.682L145.417 280.212ZM145.935 274.315L145.749 276.437L146.964 276.544C147.881 276.624 148.4 276.308 148.462 275.611C148.524 274.904 148.067 274.502 147.151 274.422L145.935 274.315ZM153.804 280.949L152.289 280.816L152.798 275.028L150.547 274.831L150.666 273.466L156.693 273.995L156.573 275.36L154.312 275.161L153.804 280.949ZM158.482 281.36L156.968 281.227L157.596 274.075L159.111 274.208L158.482 281.36ZM163.1 281.917C161.087 281.74 159.657 279.968 159.842 277.866C160.025 275.774 161.742 274.288 163.754 274.465C165.637 274.631 167.001 276.015 167.089 277.87L165.485 277.729C165.406 276.688 164.671 275.911 163.655 275.822C162.43 275.714 161.518 276.608 161.396 278.002C161.272 279.407 162.013 280.456 163.238 280.563C164.255 280.653 165.105 280.005 165.374 278.994L166.978 279.135C166.566 280.966 164.982 282.082 163.1 281.917ZM169.29 282.31L167.776 282.177L168.404 275.024L169.919 275.157L169.29 282.31ZM173.597 280.339L172.472 280.24L172.267 282.571L170.753 282.438L171.381 275.286L174.021 275.518C175.764 275.671 176.778 276.593 176.641 278.147C176.504 279.701 175.341 280.492 173.597 280.339ZM173.899 276.792L172.783 276.694L172.584 278.965L173.7 279.063C174.556 279.139 175.074 278.732 175.136 278.025C175.198 277.318 174.756 276.867 173.899 276.792ZM181.537 283.386L181.134 281.805L178.354 281.56L177.672 283.046L176.147 282.912L179.466 275.996L181.119 276.142L183.16 283.529L181.537 283.386ZM180.107 277.719L178.889 280.393L180.821 280.562L180.107 277.719ZM188.694 284.015L185.855 278.736L185.416 283.727L184.032 283.605L184.66 276.453L186.294 276.596L188.995 281.612L189.412 276.87L190.807 276.993L190.178 284.145L188.694 284.015ZM194.847 284.555L193.332 284.422L193.841 278.635L191.59 278.437L191.71 277.072L197.736 277.602L197.616 278.966L195.355 278.768L194.847 284.555ZM205.522 285.493L204.627 280.375L202.852 285.259L201.318 285.124L200.114 277.81L201.588 277.94L202.317 282.893L204.059 278.157L205.603 278.293L206.45 283.276L208.043 278.507L209.527 278.638L207.056 285.628L205.522 285.493ZM214.68 284.973L214.564 286.288L209.753 285.865L210.381 278.713L215.123 279.129L215.008 280.444L211.78 280.161L211.648 281.665L214.577 281.922L214.462 283.227L211.533 282.97L211.383 284.683L214.68 284.973ZM220.358 286.797L215.736 286.391L216.364 279.238L217.878 279.371L217.37 285.159L220.478 285.432L220.358 286.797ZM226.02 287.294L221.398 286.888L222.026 279.736L223.54 279.869L223.032 285.656L226.14 285.93L226.02 287.294ZM229.553 285.467L226.515 285.2L226.624 283.964L229.662 284.231L229.553 285.467ZM235.911 286.045C235.794 287.37 234.75 288.061 233.176 287.923L230.377 287.677L231.005 280.525L233.695 280.761C235.199 280.893 236.066 281.652 235.958 282.877C235.9 283.535 235.485 284.03 234.819 284.303C235.591 284.652 235.98 285.258 235.911 286.045ZM233.47 281.946L232.275 281.841L232.129 283.504L233.324 283.609C234.061 283.674 234.468 283.389 234.513 282.871C234.558 282.363 234.207 282.011 233.47 281.946ZM233.328 284.824L232.023 284.71L231.856 286.602L233.161 286.717C233.978 286.789 234.438 286.468 234.491 285.86C234.541 285.292 234.145 284.896 233.328 284.824ZM241.753 287.352L241.638 288.667L236.826 288.244L237.455 281.091L242.197 281.508L242.081 282.823L238.853 282.539L238.721 284.044L241.65 284.301L241.535 285.606L238.607 285.349L238.456 287.062L241.753 287.352ZM244.323 288.903L242.809 288.769L243.438 281.617L244.952 281.75L244.323 288.903ZM250.448 289.441L247.609 284.162L247.171 289.153L245.786 289.031L246.414 281.879L248.048 282.022L250.75 287.038L251.166 282.296L252.561 282.419L251.932 289.571L250.448 289.441ZM256.657 290.137C254.585 289.955 253.107 288.269 253.302 286.057C253.487 283.946 255.16 282.496 257.252 282.68C259.065 282.84 260.266 284.029 260.598 285.624L258.814 285.468C258.659 284.721 258.05 284.116 257.093 284.032C255.938 283.93 254.987 284.7 254.852 286.234C254.731 287.609 255.406 288.732 256.84 288.858C257.896 288.951 258.619 288.382 258.896 287.513L256.824 287.331L256.93 286.125L260.615 286.449C260.5 288.788 258.939 290.337 256.657 290.137Z" fill="#474747"/>
<path d="M276.562 300.98C277.112 301.029 277.519 301.514 277.471 302.064L276.683 311.029C276.635 311.58 276.149 311.986 275.599 311.938L128.376 299.003L129.339 288.045L276.562 300.98Z" fill="#474747"/>
<path d="M293.205 321.516C293.755 321.564 294.161 322.049 294.113 322.599L293.325 331.565C293.277 332.115 292.792 332.522 292.242 332.474L126.713 317.93L127.676 306.972L293.205 321.516Z" fill="#474747"/>
<path d="M299.688 341.158C300.239 341.206 300.645 341.691 300.597 342.242L299.809 351.207C299.761 351.757 299.276 352.164 298.726 352.116L125.05 336.856L126.013 325.898L299.688 341.158Z" fill="#474747"/>
<path d="M262.215 356.939C262.765 356.987 263.172 357.472 263.123 358.023L262.336 366.988C262.287 367.538 261.802 367.945 261.252 367.897L123.388 355.784L124.35 344.826L262.215 356.939Z" fill="#474747"/>
<path d="M273.891 377.038C274.441 377.086 274.848 377.571 274.8 378.121L274.012 387.087C273.964 387.637 273.478 388.044 272.928 387.996L121.725 374.71L122.687 363.753L273.891 377.038Z" fill="#474747"/>
<path d="M278.418 396.509C278.968 396.557 279.375 397.042 279.327 397.593L278.539 406.558C278.49 407.108 278.005 407.515 277.455 407.467L120.061 393.638L121.024 382.68L278.418 396.509Z" fill="#474747"/>
</g>
<path d="M195.471 226.81L110.435 289.632C100.548 296.936 104.113 318.533 118.399 337.87L180.17 421.485C194.456 440.823 214.052 450.577 223.939 443.273L308.975 380.452C318.862 373.148 315.297 351.55 301.011 332.213L239.24 248.598C224.954 229.261 205.359 219.506 195.471 226.81Z" fill="#333132"/>
<path d="M210.79 336.509C244.159 311.857 251.367 265.012 226.888 231.877C202.41 198.743 155.515 191.866 122.146 216.518C88.7767 241.17 81.5691 288.015 106.047 321.15C130.526 354.284 177.42 361.161 210.79 336.509Z" fill="#323232"/>
<path d="M176.617 244.043C184.702 238.189 186.503 227.195 180.641 219.487C174.779 211.779 163.473 210.276 155.389 216.13C147.304 221.983 145.502 232.978 151.364 240.686C157.226 248.394 168.532 249.897 176.617 244.043Z" fill="white"/>
<path d="M156.343 223.309C157.055 222.372 157.918 221.518 158.931 220.785C164.318 216.884 171.853 217.885 175.759 223.022C179.666 228.159 178.465 235.486 173.077 239.387C167.69 243.288 160.155 242.286 156.249 237.149C155.007 235.516 154.283 233.664 154.042 231.769L162.796 229.172L156.343 223.309Z" fill="#0B0B0B"/>
<path d="M132.84 276.383C140.925 270.529 142.727 259.535 136.864 251.827C131.002 244.119 119.696 242.616 111.612 248.47C103.527 254.323 101.725 265.318 107.587 273.026C113.449 280.734 124.756 282.237 132.84 276.383Z" fill="white"/>
<path d="M112.567 255.648C113.278 254.711 114.141 253.857 115.154 253.124C120.542 249.223 128.076 250.224 131.983 255.361C135.89 260.498 134.689 267.825 129.301 271.726C123.913 275.627 116.379 274.625 112.472 269.488C111.231 267.855 110.506 266.003 110.266 264.108L119.019 261.511L112.567 255.648Z" fill="#0B0B0B"/>
<path d="M183.131 204.29L178.232 207.909C178.143 207.975 178.063 208.047 177.988 208.123C169.588 203.368 158.938 203.595 150.832 209.584C140.277 217.381 137.79 232.171 144.843 243.336C143.455 243.961 142.234 244.911 141.287 246.102C132.698 236.005 117.778 234.003 107.193 241.822C99.0948 247.805 95.7465 257.903 97.8101 267.322L93.1115 270.793C92.1046 271.537 91.9047 272.976 92.6652 274.005C93.4258 275.035 94.8602 275.267 95.867 274.523L99.3096 271.98C100.084 273.776 101.072 275.513 102.286 277.156C110.641 288.466 126.439 291.02 137.501 282.847C147.703 275.31 150.368 261.244 144.167 250.23C144.811 248.674 146.188 247.544 147.827 247.207C156.516 256.536 170.868 258.197 181.139 250.61C192.201 242.438 194.403 226.587 186.047 215.276C184.833 213.634 183.463 212.179 181.974 210.911L185.887 208.02C186.894 207.276 187.094 205.837 186.333 204.807C185.573 203.778 184.138 203.546 183.131 204.29ZM134.745 279.117C125.695 285.804 112.77 283.715 105.934 274.461C99.097 265.206 100.898 252.239 109.949 245.552C119 238.866 131.924 240.955 138.761 250.209C145.598 259.463 143.796 272.431 134.745 279.117ZM178.384 246.879C169.334 253.565 156.409 251.476 149.572 242.222C142.736 232.968 144.537 220 153.588 213.314C162.639 206.627 175.563 208.716 182.4 217.97C189.236 227.225 187.435 240.193 178.384 246.879Z" fill="#D5E802"/>
<path d="M204.628 265.217C193.902 250.698 171.763 248.876 155.213 261.102C138.664 273.328 133.899 295.025 144.625 309.544L210.756 336.286L204.628 265.217Z" fill="#F2F2F2"/>
<path d="M211.118 336.016L204.628 265.214C193.902 250.695 171.925 248.754 155.575 260.832L211.118 336.016Z" fill="#CCCBCB"/>
<path d="M130.853 656.484L49.6383 353.388C49.0654 351.25 50.338 349.053 52.4778 348.486L243.682 297.835C244.758 297.55 245.903 297.726 246.843 298.32L315.359 341.618C316.306 342.217 317.461 342.391 318.543 342.097L497.823 293.478C499.96 292.899 502.161 294.165 502.734 296.303L567.868 539.386C568.439 541.52 567.173 543.713 565.039 544.285L135.752 659.312C133.618 659.884 131.424 658.618 130.853 656.484Z" fill="#D0C1AA"/>
<g filter="url(#filter3_bdd_1_7456)">
<rect x="142.301" y="318.664" width="481.689" height="151.506" rx="5.4" transform="rotate(-6.41895 142.301 318.664)" fill="white" fill-opacity="0.75" shape-rendering="crispEdges"/>
<rect x="142.798" y="319.061" width="480.789" height="150.606" rx="4.95" transform="rotate(-6.41895 142.798 319.061)" stroke="#B9B6AA" stroke-width="0.9" shape-rendering="crispEdges"/>
</g>
<path d="M613.313 349.225C613.468 349.031 613.436 348.748 613.242 348.593L610.076 346.067C609.881 345.912 609.598 345.944 609.443 346.139C609.288 346.333 609.32 346.616 609.514 346.771L612.329 349.016L610.084 351.83C609.929 352.024 609.96 352.308 610.155 352.463C610.349 352.618 610.632 352.586 610.787 352.391L613.313 349.225ZM166.935 399.577L613.011 349.392L612.911 348.498L166.834 398.682L166.935 399.577Z" fill="#626262"/>
<line x1="274.54" y1="368.35" x2="276.096" y2="382.177" stroke="#AEAEAE" stroke-width="0.9"/>
<line x1="349.35" y1="383.269" x2="350.905" y2="397.095" stroke="#AEAEAE" stroke-width="0.9"/>
<line x1="420.891" y1="351.885" x2="422.446" y2="365.712" stroke="#AEAEAE" stroke-width="0.9"/>
<rect x="238.321" y="355.311" width="67.5265" height="11.5948" rx="1.8" transform="rotate(-6.41895 238.321 355.311)" fill="#DCDCDC"/>
<rect x="394.896" y="337.696" width="46.947" height="11.5948" rx="1.8" transform="rotate(-6.41895 394.896 337.696)" fill="#DCDCDC"/>
<rect x="444.886" y="396.635" width="102.254" height="11.5948" rx="1.8" transform="rotate(-6.41895 444.886 396.635)" fill="#DCDCDC"/>
<g filter="url(#filter4_bdd_1_7456)">
<rect x="332.418" y="265.348" width="254.729" height="134.068" rx="6" transform="rotate(-20.5334 332.418 265.348)" fill="white" fill-opacity="0.75" shape-rendering="crispEdges"/>
<rect x="333.062" y="265.641" width="253.729" height="133.068" rx="5.5" transform="rotate(-20.5334 333.062 265.641)" stroke="#B9B6AA" shape-rendering="crispEdges"/>
</g>
<path d="M350.81 273.957C351.386 275.497 350.554 277.039 348.532 277.796C346.498 278.558 344.819 277.944 344.056 276.282L345.787 275.634C346.164 276.505 346.952 276.863 347.997 276.472C348.862 276.148 349.337 275.534 349.093 274.882C348.904 274.377 348.397 274.221 347.661 274.342L346.238 274.581C344.925 274.803 343.732 274.494 343.231 273.157C342.693 271.718 343.575 270.209 345.317 269.556C347.126 268.879 348.848 269.438 349.592 271.082L347.861 271.73C347.489 270.908 346.69 270.554 345.836 270.874C345.005 271.186 344.709 271.834 344.92 272.396C345.126 272.947 345.72 272.993 346.347 272.887L347.834 272.65C349.355 272.401 350.364 272.766 350.81 273.957ZM358.222 274.039L353.008 275.992L349.986 267.923L351.694 267.283L354.139 273.812L357.646 272.499L358.222 274.039ZM364.267 270.083L364.823 271.567L359.395 273.599L356.373 265.531L361.722 263.527L362.278 265.011L358.637 266.374L359.272 268.071L362.576 266.834L363.127 268.306L359.823 269.543L360.547 271.476L364.267 270.083ZM371.016 267.555L371.572 269.039L366.144 271.072L363.122 263.003L368.471 260.999L369.027 262.483L365.386 263.847L366.021 265.543L369.325 264.306L369.877 265.778L366.573 267.016L367.297 268.948L371.016 267.555ZM374.886 264.799L373.616 265.274L374.601 267.904L372.893 268.544L369.871 260.475L372.849 259.36C374.816 258.623 376.39 259.097 377.047 260.85C377.703 262.603 376.853 264.062 374.886 264.799ZM373.377 260.802L372.118 261.274L373.078 263.836L374.336 263.364C375.303 263.003 375.653 262.295 375.354 261.497C375.055 260.699 374.343 260.44 373.377 260.802ZM356.383 291.813L351.168 293.766L348.146 285.698L349.854 285.058L352.3 291.587L355.806 290.274L356.383 291.813ZM360.601 290.425C358.275 291.297 355.804 290.172 354.899 287.756C353.994 285.34 355.127 282.891 357.453 282.02C359.79 281.144 362.265 282.242 363.17 284.658C364.075 287.074 362.939 289.55 360.601 290.425ZM360.029 288.897C361.512 288.341 361.961 286.802 361.405 285.319C360.85 283.835 359.509 282.992 358.025 283.548C356.553 284.099 356.096 285.616 356.652 287.099C357.207 288.583 358.557 289.448 360.029 288.897ZM369.612 287.05C367.275 287.926 364.802 286.866 363.867 284.371C362.975 281.989 364.036 279.554 366.396 278.67C368.441 277.904 370.357 278.57 371.542 280.126L369.53 280.879C368.976 280.151 368.003 279.811 366.924 280.215C365.62 280.703 364.989 282.029 365.637 283.759C366.218 285.31 367.53 286.177 369.148 285.571C370.339 285.125 370.827 284.135 370.677 283.051L368.339 283.926L367.83 282.566L371.988 281.009C373.074 283.601 372.185 286.086 369.612 287.05ZM380.06 280.087C380.637 281.627 379.805 283.169 377.782 283.926C375.748 284.688 374.07 284.074 373.307 282.412L375.037 281.764C375.415 282.635 376.202 282.993 377.247 282.602C378.113 282.277 378.588 281.664 378.344 281.012C378.154 280.506 377.647 280.35 376.911 280.472L375.488 280.71C374.175 280.933 372.983 280.624 372.482 279.286C371.943 277.848 372.826 276.339 374.568 275.686C376.377 275.009 378.099 275.568 378.842 277.212L377.112 277.86C376.74 277.038 375.941 276.684 375.087 277.004C374.255 277.315 373.96 277.964 374.17 278.526C374.377 279.077 374.971 279.123 375.597 279.017L377.085 278.78C378.606 278.53 379.614 278.896 380.06 280.087Z" fill="#212121"/>
<line x1="349.591" y1="289.698" x2="569.304" y2="207.405" stroke="#BFBFBF"/>
<line x1="356.351" y1="307.746" x2="576.064" y2="225.453" stroke="#BFBFBF"/>
<line x1="363.111" y1="325.794" x2="582.824" y2="243.501" stroke="#BFBFBF"/>
<line x1="369.871" y1="343.842" x2="589.584" y2="261.549" stroke="#BFBFBF"/>
<line x1="376.631" y1="361.89" x2="596.344" y2="279.596" stroke="#BFBFBF"/>
<rect x="402.732" y="273.908" width="56.9788" height="10.893" rx="1" transform="rotate(-20.5334 402.732 273.908)" fill="#E8E8E8"/>
<rect x="409.786" y="292.74" width="50.2754" height="10.893" rx="1" transform="rotate(-20.5334 409.786 292.74)" fill="#E8E8E8"/>
<rect x="416.545" y="310.788" width="43.5721" height="10.893" rx="1" transform="rotate(-20.5334 416.545 310.788)" fill="#E8E8E8"/>
<rect x="423.305" y="328.836" width="52.7892" height="10.893" rx="1" transform="rotate(-20.5334 423.305 328.836)" fill="#E8E8E8"/>
<rect x="430.064" y="346.884" width="56.9788" height="10.893" rx="1" transform="rotate(-20.5334 430.064 346.884)" fill="#E8E8E8"/>
<path d="M357.253 301.274L355.205 295.805L356.83 295.196C357.2 295.058 357.546 295.008 357.868 295.047C358.195 295.084 358.481 295.202 358.726 295.4C358.972 295.599 359.16 295.873 359.291 296.223L360.057 298.268C360.186 298.612 360.224 298.943 360.172 299.259C360.117 299.569 359.98 299.849 359.759 300.096C359.542 300.337 359.248 300.527 358.879 300.665L357.253 301.274ZM357.867 300.062L358.556 299.804C358.826 299.703 359.013 299.547 359.116 299.338C359.218 299.123 359.219 298.883 359.12 298.619L358.354 296.573C358.257 296.314 358.1 296.139 357.884 296.049C357.667 295.954 357.423 295.957 357.153 296.058L356.464 296.316L357.867 300.062ZM361.446 299.704L360.776 293.719L361.982 293.267L365.416 298.217L364.457 298.576L363.661 297.362L362.208 297.906L362.405 299.345L361.446 299.704ZM362.094 297.078L363.202 296.662L362.323 295.318C362.176 295.093 362.046 294.891 361.934 294.712C361.819 294.527 361.737 294.392 361.688 294.308C361.707 294.403 361.734 294.559 361.769 294.773C361.807 294.981 361.841 295.216 361.871 295.478L362.094 297.078ZM367.451 297.455L366.707 295.469L363.799 292.586L364.781 292.219L366.345 293.794C366.466 293.92 366.576 294.046 366.675 294.174C366.774 294.302 366.846 294.403 366.891 294.478C366.881 294.39 366.869 294.267 366.855 294.107C366.846 293.945 366.845 293.777 366.854 293.603L366.976 291.396L367.95 291.032L367.651 295.116L368.395 297.101L367.451 297.455ZM361.179 311.55L360.87 310.726L362.294 310.193L360.865 306.38L359.833 307.979L359.463 306.99L360.382 305.613L361.49 305.197L363.23 309.842L364.376 309.413L364.685 310.237L361.179 311.55Z" fill="black" fill-opacity="0.5"/>
<path d="M364.013 319.322L361.965 313.853L363.59 313.245C363.96 313.106 364.306 313.056 364.628 313.095C364.955 313.132 365.241 313.25 365.486 313.448C365.731 313.647 365.92 313.921 366.051 314.271L366.817 316.316C366.946 316.661 366.984 316.991 366.931 317.307C366.877 317.618 366.739 317.897 366.519 318.145C366.302 318.385 366.008 318.575 365.639 318.714L364.013 319.322ZM364.627 318.11L365.316 317.852C365.586 317.751 365.772 317.596 365.876 317.386C365.978 317.171 365.979 316.932 365.88 316.667L365.114 314.622C365.017 314.362 364.86 314.187 364.644 314.097C364.426 314.002 364.183 314.005 363.913 314.106L363.224 314.364L364.627 318.11ZM368.205 317.752L367.535 311.767L368.742 311.315L372.176 316.265L371.217 316.624L370.421 315.41L368.967 315.955L369.164 317.393L368.205 317.752ZM368.853 315.126L369.962 314.711L369.083 313.366C368.936 313.142 368.806 312.94 368.693 312.76C368.579 312.575 368.497 312.44 368.448 312.356C368.467 312.452 368.494 312.607 368.528 312.822C368.566 313.029 368.6 313.264 368.63 313.527L368.853 315.126ZM374.211 315.503L373.467 313.518L370.559 310.634L371.541 310.267L373.105 311.842C373.226 311.968 373.336 312.095 373.435 312.223C373.534 312.351 373.606 312.452 373.651 312.526C373.641 312.439 373.629 312.315 373.615 312.155C373.605 311.994 373.605 311.826 373.614 311.651L373.736 309.445L374.71 309.08L374.411 313.164L375.155 315.149L374.211 315.503ZM367.901 329.612L367.562 328.706L368.627 326.35C368.775 326.016 368.87 325.73 368.912 325.492C368.952 325.249 368.933 325.023 368.854 324.813C368.759 324.558 368.615 324.387 368.423 324.3C368.229 324.207 368.012 324.206 367.772 324.296C367.507 324.395 367.329 324.55 367.237 324.761C367.144 324.967 367.147 325.205 367.248 325.474L366.312 325.825C366.186 325.474 366.149 325.146 366.2 324.842C366.254 324.531 366.39 324.255 366.608 324.014C366.825 323.774 367.113 323.586 367.473 323.451C367.818 323.322 368.142 323.275 368.445 323.309C368.748 323.344 369.014 323.452 369.242 323.634C369.469 323.817 369.644 324.07 369.766 324.395C369.891 324.73 369.926 325.089 369.871 325.475C369.819 325.853 369.672 326.295 369.428 326.802L368.708 328.345L371 327.486L371.317 328.333L367.901 329.612Z" fill="black" fill-opacity="0.5"/>
<path d="M370.772 337.37L368.724 331.901L370.35 331.292C370.719 331.154 371.065 331.104 371.387 331.143C371.714 331.18 372 331.298 372.245 331.496C372.491 331.695 372.679 331.969 372.81 332.319L373.576 334.364C373.705 334.708 373.743 335.039 373.691 335.354C373.636 335.665 373.499 335.945 373.278 336.192C373.061 336.433 372.768 336.623 372.398 336.761L370.772 337.37ZM371.386 336.158L372.075 335.9C372.345 335.799 372.532 335.643 372.635 335.434C372.737 335.219 372.739 334.979 372.639 334.715L371.873 332.669C371.776 332.41 371.619 332.235 371.403 332.145C371.186 332.05 370.942 332.053 370.672 332.154L369.983 332.412L371.386 336.158ZM374.965 335.8L374.295 329.815L375.501 329.363L378.935 334.313L377.976 334.672L377.18 333.458L375.727 334.002L375.924 335.441L374.965 335.8ZM375.613 333.174L376.721 332.758L375.842 331.414C375.695 331.189 375.565 330.987 375.453 330.808C375.338 330.623 375.256 330.488 375.207 330.404C375.226 330.499 375.253 330.655 375.288 330.869C375.326 331.077 375.36 331.312 375.39 331.574L375.613 333.174ZM380.97 333.551L380.227 331.565L377.318 328.682L378.3 328.314L379.864 329.89C379.985 330.016 380.095 330.142 380.194 330.27C380.293 330.398 380.366 330.499 380.41 330.574C380.4 330.486 380.388 330.363 380.374 330.203C380.365 330.041 380.365 329.873 380.373 329.699L380.495 327.492L381.469 327.128L381.17 331.212L381.914 333.197L380.97 333.551ZM376.292 347.135C375.937 347.267 375.603 347.318 375.29 347.288C374.981 347.255 374.711 347.149 374.478 346.968C374.245 346.788 374.069 346.538 373.949 346.218L374.893 345.864C374.985 346.109 375.127 346.275 375.319 346.363C375.515 346.443 375.742 346.435 376.002 346.338C376.262 346.24 376.435 346.096 376.523 345.903C376.61 345.711 376.609 345.495 376.519 345.255L376.359 344.828C376.267 344.584 376.126 344.42 375.936 344.338C375.744 344.25 375.518 344.255 375.258 344.352L374.644 344.582L374.327 343.736L375.115 342.168L373.01 342.956L372.709 342.155L375.766 341.01L376.083 341.856L375.07 343.85L374.958 343.551C375.497 343.349 375.978 343.331 376.399 343.498C376.82 343.665 377.122 343.99 377.303 344.475L377.463 344.902C377.583 345.221 377.614 345.526 377.557 345.815C377.5 346.104 377.364 346.363 377.148 346.592C376.932 346.821 376.646 347.002 376.292 347.135Z" fill="black" fill-opacity="0.5"/>
<path d="M377.532 355.418L375.484 349.949L377.109 349.34C377.479 349.202 377.825 349.152 378.147 349.191C378.474 349.228 378.76 349.346 379.005 349.544C379.251 349.743 379.439 350.017 379.57 350.367L380.336 352.412C380.465 352.756 380.503 353.087 380.45 353.402C380.396 353.713 380.258 353.993 380.038 354.24C379.821 354.481 379.527 354.671 379.158 354.809L377.532 355.418ZM378.146 354.206L378.835 353.948C379.105 353.847 379.291 353.691 379.395 353.482C379.497 353.267 379.498 353.027 379.399 352.763L378.633 350.717C378.536 350.458 378.379 350.283 378.163 350.193C377.945 350.098 377.702 350.101 377.432 350.202L376.743 350.46L378.146 354.206ZM381.724 353.848L381.055 347.863L382.261 347.411L385.695 352.361L384.736 352.72L383.94 351.506L382.486 352.05L382.683 353.489L381.724 353.848ZM382.372 351.222L383.481 350.806L382.602 349.462C382.455 349.237 382.325 349.035 382.212 348.856C382.098 348.671 382.016 348.536 381.967 348.452C381.986 348.547 382.013 348.703 382.048 348.917C382.086 349.125 382.119 349.36 382.149 349.622L382.372 351.222ZM387.73 351.599L386.986 349.613L384.078 346.73L385.06 346.362L386.624 347.938C386.745 348.063 386.855 348.19 386.954 348.318C387.053 348.446 387.125 348.547 387.17 348.622C387.16 348.534 387.148 348.411 387.134 348.251C387.125 348.089 387.124 347.921 387.133 347.747L387.255 345.54L388.229 345.176L387.93 349.26L388.674 351.245L387.73 351.599ZM383.75 364.835L383.343 363.749L380.908 364.661L380.401 363.305L381.372 359.49L382.421 359.097L381.392 363.216L381.499 363.5L383.035 362.925L382.572 361.689L383.508 361.338L384.687 364.485L383.75 364.835Z" fill="black" fill-opacity="0.5"/>
<path d="M384.293 373.466L382.244 367.997L383.87 367.388C384.24 367.249 384.585 367.2 384.908 367.238C385.235 367.275 385.521 367.393 385.766 367.592C386.011 367.79 386.199 368.065 386.33 368.414L387.096 370.459C387.225 370.804 387.264 371.134 387.211 371.45C387.157 371.761 387.019 372.04 386.799 372.288C386.581 372.529 386.288 372.718 385.918 372.857L384.293 373.466ZM384.906 372.253L385.596 371.995C385.865 371.894 386.052 371.739 386.156 371.529C386.258 371.315 386.259 371.075 386.16 370.81L385.394 368.765C385.297 368.505 385.14 368.33 384.924 368.24C384.706 368.145 384.462 368.148 384.193 368.249L383.503 368.508L384.906 372.253ZM388.485 371.895L387.815 365.91L389.021 365.458L392.456 370.408L391.497 370.767L390.701 369.554L389.247 370.098L389.444 371.536L388.485 371.895ZM389.133 369.269L390.242 368.854L389.362 367.509C389.216 367.285 389.086 367.083 388.973 366.903C388.858 366.718 388.777 366.584 388.728 366.499C388.747 366.595 388.773 366.75 388.808 366.965C388.846 367.173 388.88 367.408 388.91 367.67L389.133 369.269ZM394.491 369.646L393.747 367.661L390.839 364.778L391.82 364.41L393.384 365.986C393.505 366.111 393.616 366.238 393.715 366.366C393.814 366.494 393.886 366.595 393.931 366.669C393.921 366.582 393.909 366.458 393.895 366.299C393.885 366.137 393.885 365.969 393.894 365.795L394.015 363.588L394.989 363.223L394.691 367.307L395.435 369.293L394.491 369.646ZM389.857 383.213C389.353 383.402 388.901 383.429 388.503 383.293C388.103 383.153 387.807 382.871 387.614 382.447L388.551 382.097C388.642 382.279 388.772 382.398 388.941 382.454C389.113 382.504 389.317 382.485 389.551 382.397C389.811 382.299 389.983 382.158 390.067 381.973C390.15 381.782 390.145 381.565 390.054 381.32L389.854 380.788C389.761 380.538 389.622 380.374 389.439 380.295C389.254 380.21 389.031 380.217 388.771 380.314C388.611 380.374 388.486 380.458 388.396 380.566C388.305 380.674 388.251 380.796 388.235 380.934L387.321 381.276L386.23 378.25L389.309 377.097L389.626 377.944L387.431 378.766L388.011 380.36L388.228 380.278L388.074 380.55C387.988 380.32 388.01 380.106 388.141 379.909C388.276 379.705 388.498 379.545 388.807 379.429C389.25 379.258 389.645 379.263 389.993 379.446C390.343 379.623 390.609 379.953 390.791 380.437L390.99 380.969C391.175 381.464 391.166 381.911 390.963 382.312C390.765 382.711 390.397 383.011 389.857 383.213Z" fill="black" fill-opacity="0.5"/>
<path d="M235.875 271.207C222.107 300.421 234.63 335.265 263.844 349.033C293.058 362.801 327.902 350.279 341.67 321.064C355.437 291.85 342.915 257.006 313.701 243.238C284.487 229.47 249.643 241.992 235.875 271.207Z" fill="#B8DDF6" fill-opacity="0.3"/>
<path d="M314.986 449.623L307.219 358.916C307.775 358.768 308.33 358.616 308.884 358.453C325.595 353.562 339.404 342.455 347.764 327.18C356.124 311.906 358.037 294.287 353.15 277.575C348.262 260.864 337.156 247.055 321.884 238.696C306.612 230.337 288.995 228.426 272.284 233.316C255.572 238.207 241.763 249.314 233.403 264.589C225.043 279.863 223.13 297.482 228.018 314.193C232.906 330.905 244.011 344.714 259.283 353.073C268.526 358.132 278.629 360.824 288.869 361.082L296.585 451.201L314.986 449.623ZM245.222 271.054C258.913 246.039 290.401 236.824 315.413 250.514C340.425 264.203 349.635 295.692 335.944 320.708C322.252 345.723 290.764 354.938 265.752 341.248C240.74 327.559 231.53 296.07 245.222 271.054Z" fill="#D5E802"/>
<g filter="url(#filter5_bdd_1_7456)">
<path d="M302.099 674.117L134.75 408.665C133.572 406.796 134.132 404.326 136.001 403.148L279.374 312.762C280.318 312.166 281.468 311.993 282.547 312.283L360.812 333.345C361.89 333.635 363.04 333.461 363.985 332.866L545.091 218.691C546.96 217.513 549.43 218.073 550.608 219.942L684.823 432.836C686.001 434.705 685.441 437.175 683.572 438.353L307.616 675.367C305.747 676.545 303.277 675.986 302.099 674.117Z" fill="#D0C1AA"/>
</g>
</g>
<defs>
<filter id="filter1_bdd_1_7456" x="210.801" y="147.77" width="378.506" height="386.097" filterUnits="userSpaceOnUse" color-interpolation-filters="sRGB">
<feFlood flood-opacity="0" result="BackgroundImageFix"/>
<feGaussianBlur in="BackgroundImageFix" stdDeviation="4"/>
<feComposite in2="SourceAlpha" operator="in" result="effect1_backgroundBlur_1_7456"/>
<feColorMatrix in="SourceAlpha" type="matrix" values="0 0 0 0 0 0 0 0 0 0 0 0 0 0 0 0 0 0 127 0" result="hardAlpha"/>
<feMorphology radius="4" operator="dilate" in="SourceAlpha" result="effect2_dropShadow_1_7456"/>
<feOffset dy="12"/>
<feGaussianBlur stdDeviation="16"/>
<feComposite in2="hardAlpha" operator="out"/>
<feColorMatrix type="matrix" values="0 0 0 0 0 0 0 0 0 0 0 0 0 0 0 0 0 0 0.15 0"/>
<feBlend mode="normal" in2="effect1_backgroundBlur_1_7456" result="effect2_dropShadow_1_7456"/>
<feColorMatrix in="SourceAlpha" type="matrix" values="0 0 0 0 0 0 0 0 0 0 0 0 0 0 0 0 0 0 127 0" result="hardAlpha"/>
<feOffset dy="1"/>
<feGaussianBlur stdDeviation="4"/>
<feComposite in2="hardAlpha" operator="out"/>
<feColorMatrix type="matrix" values="0 0 0 0 0 0 0 0 0 0 0 0 0 0 0 0 0 0 0.15 0"/>
<feBlend mode="normal" in2="effect2_dropShadow_1_7456" result="effect3_dropShadow_1_7456"/>
<feBlend mode="normal" in="SourceGraphic" in2="effect3_dropShadow_1_7456" result="shape"/>
</filter>
<filter id="filter2_d_1_7456" x="103.752" y="257.097" width="241.105" height="175.684" filterUnits="userSpaceOnUse" color-interpolation-filters="sRGB">
<feFlood flood-opacity="0" result="BackgroundImageFix"/>
<feColorMatrix in="SourceAlpha" type="matrix" values="0 0 0 0 0 0 0 0 0 0 0 0 0 0 0 0 0 0 127 0" result="hardAlpha"/>
<feOffset dy="2"/>
<feGaussianBlur stdDeviation="4"/>
<feComposite in2="hardAlpha" operator="out"/>
<feColorMatrix type="matrix" values="0 0 0 0 0 0 0 0 0 0 0 0 0 0 0 0 0 0 0.5 0"/>
<feBlend mode="normal" in2="BackgroundImageFix" result="effect1_dropShadow_1_7456"/>
<feBlend mode="normal" in="SourceGraphic" in2="effect1_dropShadow_1_7456" result="shape"/>
</filter>
<filter id="filter3_bdd_1_7456" x="110.47" y="243.782" width="559.269" height="268.069" filterUnits="userSpaceOnUse" color-interpolation-filters="sRGB">
<feFlood flood-opacity="0" result="BackgroundImageFix"/>
<feGaussianBlur in="BackgroundImageFix" stdDeviation="3.6"/>
<feComposite in2="SourceAlpha" operator="in" result="effect1_backgroundBlur_1_7456"/>
<feColorMatrix in="SourceAlpha" type="matrix" values="0 0 0 0 0 0 0 0 0 0 0 0 0 0 0 0 0 0 127 0" result="hardAlpha"/>
<feMorphology radius="3.6" operator="dilate" in="SourceAlpha" result="effect2_dropShadow_1_7456"/>
<feOffset dy="10.8"/>
<feGaussianBlur stdDeviation="14.4"/>
<feComposite in2="hardAlpha" operator="out"/>
<feColorMatrix type="matrix" values="0 0 0 0 0 0 0 0 0 0 0 0 0 0 0 0 0 0 0.15 0"/>
<feBlend mode="normal" in2="effect1_backgroundBlur_1_7456" result="effect2_dropShadow_1_7456"/>
<feColorMatrix in="SourceAlpha" type="matrix" values="0 0 0 0 0 0 0 0 0 0 0 0 0 0 0 0 0 0 127 0" result="hardAlpha"/>
<feOffset dy="0.9"/>
<feGaussianBlur stdDeviation="3.6"/>
<feComposite in2="hardAlpha" operator="out"/>
<feColorMatrix type="matrix" values="0 0 0 0 0 0 0 0 0 0 0 0 0 0 0 0 0 0 0.15 0"/>
<feBlend mode="normal" in2="effect2_dropShadow_1_7456" result="effect3_dropShadow_1_7456"/>
<feBlend mode="normal" in="SourceGraphic" in2="effect3_dropShadow_1_7456" result="shape"/>
</filter>
<filter id="filter4_bdd_1_7456" x="298.14" y="153.723" width="354.127" height="283.454" filterUnits="userSpaceOnUse" color-interpolation-filters="sRGB">
<feFlood flood-opacity="0" result="BackgroundImageFix"/>
<feGaussianBlur in="BackgroundImageFix" stdDeviation="4"/>
<feComposite in2="SourceAlpha" operator="in" result="effect1_backgroundBlur_1_7456"/>
<feColorMatrix in="SourceAlpha" type="matrix" values="0 0 0 0 0 0 0 0 0 0 0 0 0 0 0 0 0 0 127 0" result="hardAlpha"/>
<feMorphology radius="4" operator="dilate" in="SourceAlpha" result="effect2_dropShadow_1_7456"/>
<feOffset dy="12"/>
<feGaussianBlur stdDeviation="16"/>
<feComposite in2="hardAlpha" operator="out"/>
<feColorMatrix type="matrix" values="0 0 0 0 0 0 0 0 0 0 0 0 0 0 0 0 0 0 0.15 0"/>
<feBlend mode="normal" in2="effect1_backgroundBlur_1_7456" result="effect2_dropShadow_1_7456"/>
<feColorMatrix in="SourceAlpha" type="matrix" values="0 0 0 0 0 0 0 0 0 0 0 0 0 0 0 0 0 0 127 0" result="hardAlpha"/>
<feOffset dy="1"/>
<feGaussianBlur stdDeviation="4"/>
<feComposite in2="hardAlpha" operator="out"/>
<feColorMatrix type="matrix" values="0 0 0 0 0 0 0 0 0 0 0 0 0 0 0 0 0 0 0.15 0"/>
<feBlend mode="normal" in2="effect2_dropShadow_1_7456" result="effect3_dropShadow_1_7456"/>
<feBlend mode="normal" in="SourceGraphic" in2="effect3_dropShadow_1_7456" result="shape"/>
</filter>
<filter id="filter5_bdd_1_7456" x="98.1338" y="194.074" width="623.306" height="529.91" filterUnits="userSpaceOnUse" color-interpolation-filters="sRGB">
<feFlood flood-opacity="0" result="BackgroundImageFix"/>
<feGaussianBlur in="BackgroundImageFix" stdDeviation="4"/>
<feComposite in2="SourceAlpha" operator="in" result="effect1_backgroundBlur_1_7456"/>
<feColorMatrix in="SourceAlpha" type="matrix" values="0 0 0 0 0 0 0 0 0 0 0 0 0 0 0 0 0 0 127 0" result="hardAlpha"/>
<feMorphology radius="4" operator="dilate" in="SourceAlpha" result="effect2_dropShadow_1_7456"/>
<feOffset dy="12"/>
<feGaussianBlur stdDeviation="16"/>
<feComposite in2="hardAlpha" operator="out"/>
<feColorMatrix type="matrix" values="0 0 0 0 0 0 0 0 0 0 0 0 0 0 0 0 0 0 0.15 0"/>
<feBlend mode="normal" in2="effect1_backgroundBlur_1_7456" result="effect2_dropShadow_1_7456"/>
<feColorMatrix in="SourceAlpha" type="matrix" values="0 0 0 0 0 0 0 0 0 0 0 0 0 0 0 0 0 0 127 0" result="hardAlpha"/>
<feOffset dy="1"/>
<feGaussianBlur stdDeviation="4"/>
<feComposite in2="hardAlpha" operator="out"/>
<feColorMatrix type="matrix" values="0 0 0 0 0 0 0 0 0 0 0 0 0 0 0 0 0 0 0.15 0"/>
<feBlend mode="normal" in2="effect2_dropShadow_1_7456" result="effect3_dropShadow_1_7456"/>
<feBlend mode="normal" in="SourceGraphic" in2="effect3_dropShadow_1_7456" result="shape"/>
</filter>
</defs>
</svg>
