<svg width="872" height="684" viewBox="0 0 872 684" fill="none" xmlns="http://www.w3.org/2000/svg">
<rect x="562" y="327.848" width="290.485" height="117.69" rx="6" transform="rotate(-12.8116 562 327.848)" fill="#5E5E5E"/>
<path d="M580.337 340.942C580.691 342.498 579.752 343.672 577.903 344.092L574.615 344.84L572.704 336.438L575.864 335.72C577.63 335.318 578.9 335.866 579.227 337.306C579.402 338.078 579.111 338.796 578.449 339.353C579.46 339.468 580.127 340.018 580.337 340.942ZM576.042 337.156L574.638 337.475L575.083 339.429L576.487 339.11C577.353 338.913 577.712 338.438 577.574 337.829C577.438 337.232 576.908 336.959 576.042 337.156ZM576.937 340.497L575.405 340.845L575.91 343.068L577.443 342.72C578.403 342.502 578.81 341.966 578.648 341.252C578.496 340.585 577.897 340.278 576.937 340.497ZM587.491 340.287L587.843 341.832L582.191 343.117L580.28 334.715L585.85 333.449L586.201 334.993L582.41 335.856L582.812 337.622L586.252 336.84L586.601 338.373L583.16 339.155L583.618 341.168L587.491 340.287ZM590.997 341.114L589.218 341.519L587.308 333.117L592.737 331.883L593.089 333.427L589.438 334.257L589.919 336.375L592.997 335.676L593.345 337.208L590.268 337.908L590.997 341.114ZM599.712 339.317C597.29 339.868 594.992 338.422 594.42 335.906C593.847 333.39 595.299 331.115 597.721 330.565C600.155 330.011 602.46 331.432 603.032 333.947C603.604 336.463 602.146 338.764 599.712 339.317ZM599.35 337.726C600.894 337.375 601.546 335.91 601.195 334.365C600.843 332.82 599.628 331.805 598.083 332.156C596.55 332.505 595.894 333.946 596.245 335.491C596.596 337.035 597.817 338.074 599.35 337.726ZM606.995 337.476L605.216 337.881L603.306 329.479L606.594 328.732C608.712 328.25 610.164 328.953 610.56 330.697C610.818 331.832 610.321 332.893 609.218 333.562L612.12 336.311L610.002 336.792L607.431 334.251L606.319 334.504L606.995 337.476ZM605.42 330.549L605.986 333.042L607.414 332.717C608.49 332.472 608.968 331.92 608.782 331.101C608.593 330.271 607.924 329.98 606.847 330.225L605.42 330.549ZM618.527 333.229L618.878 334.774L613.227 336.059L611.316 327.658L616.886 326.391L617.237 327.936L613.446 328.798L613.848 330.565L617.288 329.782L617.636 331.315L614.196 332.098L614.654 334.11L618.527 333.229ZM628.316 332.628L627.275 330.969L624.01 331.712L623.776 333.66L621.986 334.067L623.235 324.947L625.177 324.506L630.223 332.194L628.316 332.628ZM624.601 326.68L624.191 330.182L626.461 329.665L624.601 326.68ZM636.723 330.716L631.54 325.729L632.873 331.591L631.247 331.961L629.336 323.56L631.255 323.123L636.185 327.86L634.918 322.29L636.556 321.918L638.467 330.319L636.723 330.716ZM643.178 329.248L640.194 329.927L638.284 321.525L641.268 320.847C643.935 320.24 645.939 321.581 646.495 324.027C647.051 326.472 645.788 328.655 643.178 329.248ZM640.411 322.653L641.624 327.989L642.736 327.736C644.409 327.356 645.066 326.185 644.669 324.442C644.289 322.768 643.196 322.02 641.523 322.401L640.411 322.653ZM656.758 326.16L655.716 324.502L652.452 325.244L652.218 327.192L650.428 327.599L651.676 318.479L653.619 318.038L658.665 325.726L656.758 326.16ZM653.043 320.212L652.633 323.714L654.903 323.197L653.043 320.212ZM661.467 325.089L659.689 325.493L657.778 317.092L663.208 315.857L663.559 317.402L659.908 318.232L660.39 320.35L663.467 319.65L663.816 321.183L660.738 321.883L661.467 325.089ZM670.095 323.127L668.317 323.531L666.771 316.733L664.126 317.334L663.762 315.731L670.841 314.121L671.206 315.724L668.549 316.328L670.095 323.127ZM679.113 319.452L679.464 320.996L673.813 322.282L671.902 313.88L677.472 312.613L677.823 314.158L674.032 315.02L674.434 316.787L677.874 316.005L678.222 317.538L674.782 318.32L675.24 320.333L679.113 319.452ZM682.619 320.279L680.84 320.683L678.93 312.282L682.218 311.534C684.336 311.053 685.788 311.756 686.184 313.5C686.442 314.635 685.945 315.695 684.842 316.364L687.744 319.113L685.626 319.595L683.055 317.054L681.943 317.307L682.619 320.279ZM681.044 313.352L681.61 315.844L683.038 315.52C684.114 315.275 684.592 314.723 684.406 313.904C684.217 313.073 683.548 312.782 682.471 313.027L681.044 313.352ZM696.913 317.028L695.871 315.37L692.606 316.113L692.372 318.061L690.582 318.468L691.831 309.348L693.773 308.906L698.82 316.595L696.913 317.028ZM693.197 311.08L692.787 314.582L695.057 314.066L693.197 311.08ZM705.319 315.117L700.137 310.13L701.47 315.992L699.843 316.362L697.933 307.96L699.852 307.524L704.781 312.261L703.514 306.691L705.152 306.319L707.063 314.72L705.319 315.117ZM711.774 313.649L708.791 314.327L706.88 305.926L709.864 305.247C712.532 304.641 714.535 305.982 715.091 308.427C715.647 310.873 714.384 313.055 711.774 313.649ZM709.007 307.054L710.221 312.39L711.332 312.137C713.006 311.757 713.662 310.586 713.266 308.842C712.885 307.169 711.792 306.421 710.119 306.801L709.007 307.054ZM725.592 307.762C725.956 309.365 724.925 310.781 722.818 311.26C720.7 311.742 719.12 310.908 718.587 309.158L720.389 308.749C720.646 309.662 721.378 310.123 722.467 309.876C723.368 309.671 723.921 309.127 723.766 308.448C723.647 307.922 723.165 307.699 722.42 307.721L720.978 307.766C719.646 307.81 718.506 307.343 718.19 305.951C717.849 304.453 718.927 303.076 720.74 302.663C722.624 302.235 724.255 303.021 724.771 304.749L722.969 305.159C722.711 304.295 721.967 303.836 721.078 304.039C720.212 304.235 719.832 304.839 719.965 305.424C720.095 305.997 720.678 306.123 721.313 306.102L722.819 306.067C724.36 306.024 725.31 306.522 725.592 307.762ZM732.926 308.839L727.497 310.073L725.586 301.672L727.365 301.267L728.911 308.066L732.561 307.236L732.926 308.839ZM739.448 305.731L739.799 307.276L734.147 308.561L732.237 300.16L737.806 298.893L738.158 300.438L734.366 301.3L734.768 303.067L738.208 302.284L738.557 303.817L735.117 304.599L735.575 306.612L739.448 305.731ZM746.475 304.133L746.826 305.678L741.175 306.963L739.264 298.561L744.834 297.295L745.185 298.839L741.394 299.702L741.796 301.468L745.236 300.686L745.585 302.219L742.144 303.001L742.602 305.014L746.475 304.133ZM750.681 301.922L749.358 302.222L749.981 304.96L748.202 305.365L746.292 296.963L749.393 296.258C751.44 295.792 752.937 296.474 753.352 298.299C753.767 300.124 752.728 301.456 750.681 301.922ZM749.722 297.759L748.411 298.057L749.018 300.724L750.328 300.426C751.335 300.198 751.776 299.543 751.588 298.713C751.399 297.882 750.728 297.53 749.722 297.759ZM580.197 355.048L578.875 355.349L579.498 358.087L577.719 358.491L575.809 350.09L578.909 349.385C580.957 348.919 582.453 349.6 582.869 351.426C583.284 353.251 582.245 354.582 580.197 355.048ZM579.238 350.885L577.928 351.183L578.534 353.851L579.845 353.553C580.851 353.324 581.293 352.67 581.104 351.839C580.915 351.008 580.245 350.656 579.238 350.885ZM590.386 355.611L589.345 353.952L586.08 354.695L585.846 356.643L584.056 357.05L585.305 347.93L587.247 347.489L592.294 355.177L590.386 355.611ZM586.671 349.662L586.261 353.165L588.531 352.648L586.671 349.662ZM596.353 354.254L594.575 354.658L593.029 347.86L590.384 348.461L590.02 346.858L597.099 345.248L597.463 346.851L594.807 347.455L596.353 354.254ZM603.998 352.515L602.219 352.92L600.673 346.121L598.029 346.723L597.664 345.12L604.744 343.51L605.108 345.113L602.452 345.717L603.998 352.515ZM613.016 348.84L613.367 350.385L607.715 351.67L605.804 343.268L611.374 342.002L611.726 343.546L607.934 344.409L608.336 346.175L611.776 345.393L612.125 346.926L608.685 347.708L609.142 349.721L613.016 348.84ZM616.521 349.667L614.743 350.072L612.832 341.67L616.12 340.923C618.238 340.441 619.69 341.145 620.087 342.888C620.345 344.023 619.848 345.084 618.745 345.753L621.646 348.502L619.528 348.984L616.957 346.442L615.845 346.695L616.521 349.667ZM614.946 342.74L615.513 345.233L616.94 344.908C618.017 344.663 618.494 344.112 618.308 343.292C618.119 342.462 617.45 342.171 616.374 342.416L614.946 342.74ZM628.229 347.005L623.046 342.018L624.379 347.88L622.753 348.25L620.842 339.849L622.761 339.412L627.691 344.149L626.424 338.579L628.062 338.207L629.973 346.608L628.229 347.005ZM637.554 342.14C637.919 343.743 636.887 345.159 634.781 345.638C632.663 346.12 631.083 345.285 630.55 343.536L632.352 343.126C632.609 344.04 633.341 344.501 634.429 344.254C635.33 344.049 635.883 343.505 635.729 342.826C635.609 342.299 635.128 342.077 634.382 342.098L632.94 342.143C631.609 342.188 630.469 341.721 630.152 340.328C629.812 338.831 630.889 337.453 632.703 337.041C634.587 336.612 636.218 337.398 636.734 339.127L634.932 339.537C634.674 338.672 633.93 338.214 633.04 338.416C632.174 338.613 631.795 339.216 631.928 339.801C632.058 340.375 632.641 340.501 633.276 340.479L634.781 340.445C636.322 340.402 637.272 340.9 637.554 342.14Z" fill="#474747"/>
<path d="M575.55 384.447L584.003 382.525L594.791 385.278L605.66 382.806L614.195 375.659L620.316 369.061L631.103 371.814L642.504 366.098L646.271 371.489L656.689 367.037L669.381 355.821L681.765 348.84L696.85 353.739L710.135 350.718L716.787 340.876L726.306 332.464L736.724 328.013L744.953 325.1L748.044 327.521L750.41 323.859L754.082 326.148L766.323 312.952L768.124 320.872L779.3 314.166L784.274 319.282L783.906 312.077L788.43 315.213L798.848 310.762L802.389 315.162L814.016 310.436L813.116 306.476L822.163 312.748L842.079 316.549L850.533 314.626L855.814 315.508" stroke="#3E3E3E" stroke-width="2" stroke-linejoin="round"/>
<path d="M578.729 398.423L602.287 393.066L605.479 388.941L634.188 388.078L644.742 380.012L659.874 379.97L682.13 356.78L703.638 366.619L708.306 350.828L716.648 351.197L715.669 346.887L719.266 350.601L731.374 343.316L734.972 347.03L741.844 340.935L746.751 344.351L772.436 336.244L786.021 317.292L793.79 321.191L803.035 313.423L811.294 319.476L821.358 309.256L823.073 316.798L827.902 307.768L837.064 305.685L843.607 304.197L847.94 311.143L855.709 315.041" stroke="#6C6C6C" stroke-width="2" stroke-linejoin="round"/>
<g filter="url(#filter0_bdd_1_8863)">
<path d="M60.4717 541.115L36.5524 369.575C36.2473 367.387 37.7737 365.366 39.9617 365.061L131.993 352.228C133.099 352.074 134.219 352.389 135.082 353.097L169.189 381.065C170.052 381.773 171.172 382.088 172.277 381.934L289.185 365.632C291.373 365.327 293.394 366.854 293.699 369.042L312.787 505.933C313.092 508.121 311.566 510.142 309.378 510.447L64.9857 544.525C62.7978 544.83 60.7768 543.303 60.4717 541.115Z" fill="#434343"/>
</g>
<g filter="url(#filter1_bdd_1_8863)">
<rect x="314.496" y="294.113" width="285.518" height="216.017" rx="6" transform="rotate(-39.8857 314.496 294.113)" fill="#F8F8F8"/>
<rect x="315.2" y="294.176" width="284.518" height="215.017" rx="5.5" transform="rotate(-39.8857 315.2 294.176)" stroke="#B9B6AA"/>
</g>
<line x1="359.149" y1="305.756" x2="452.501" y2="417.461" stroke="#F8F8F8"/>
<line x1="638.372" y1="262.779" x2="452.438" y2="418.165" stroke="#F8F8F8"/>
<rect x="476.512" y="405.962" width="32.8721" height="7.51363" transform="rotate(-39.8857 476.512 405.962)" fill="#F8F8F8"/>
<rect x="418.303" y="400.752" width="77.9539" height="8.45284" transform="rotate(-129.886 418.303 400.752)" fill="#F8F8F8"/>
<rect x="527.681" y="363.201" width="56.3522" height="7.51363" transform="rotate(-39.8857 527.681 363.201)" fill="#F8F8F8"/>
<rect x="595.425" y="306.588" width="32.8721" height="7.51363" transform="rotate(-39.8857 595.425 306.588)" fill="#F8F8F8"/>
<path d="M430.316 363.865C429.961 363.441 430.018 362.811 430.442 362.456L439.717 354.705C440.141 354.351 440.772 354.407 441.126 354.831L476.621 397.304L465.811 406.338L430.316 363.865Z" fill="#F8F8F8"/>
<path d="M479.173 302.227C478.818 301.804 478.875 301.173 479.299 300.819L488.574 293.067C488.998 292.713 489.628 292.769 489.983 293.193L535.716 347.918L524.906 356.952L479.173 302.227Z" fill="#F8F8F8"/>
<path d="M521.405 232.662C521.051 232.238 521.107 231.607 521.531 231.253L530.806 223.502C531.23 223.148 531.861 223.204 532.215 223.628L594.812 298.531L584.002 307.565L521.405 232.662Z" fill="#F8F8F8"/>
<path d="M479.013 274.208C478.659 273.784 478.716 273.154 479.139 272.8L489.136 264.446C489.559 264.092 490.19 264.148 490.544 264.572L550.13 335.872L538.599 345.508L479.013 274.208Z" fill="#F8F8F8"/>
<path d="M411.486 313.505C411.132 313.081 411.188 312.451 411.612 312.097L421.608 303.743C422.032 303.389 422.663 303.445 423.017 303.869L491.035 385.258L479.504 394.895L411.486 313.505Z" fill="#F8F8F8"/>
<path d="M510.291 282.342C509.937 281.918 509.993 281.287 510.417 280.933L520.413 272.579C520.837 272.225 521.467 272.281 521.821 272.705L564.544 323.826L553.013 333.463L510.291 282.342Z" fill="#F8F8F8"/>
<path d="M551.962 241.398C551.607 240.974 551.664 240.343 552.088 239.989L562.084 231.635C562.508 231.281 563.138 231.338 563.492 231.761L609.226 286.486L597.695 296.122L551.962 241.398Z" fill="#F8F8F8"/>
<path d="M451.194 331.728C450.84 331.304 450.896 330.674 451.32 330.32L461.316 321.966C461.74 321.612 462.371 321.668 462.725 322.092L505.447 373.213L493.916 382.85L451.194 331.728Z" fill="#F8F8F8"/>
<path d="M560.954 222.866C560.6 222.443 560.656 221.812 561.08 221.458L571.076 213.104C571.5 212.75 572.13 212.806 572.485 213.23L623.639 274.441L612.108 284.077L560.954 222.866Z" fill="#F8F8F8"/>
<rect x="243.816" y="226.52" width="351.735" height="233.394" rx="3" transform="rotate(-17.1747 243.816 226.52)" fill="#474747"/>
<path d="M311.72 215.219C309.676 215.602 307.798 214.376 307.39 212.194C307 210.11 308.221 208.264 310.286 207.878C312.074 207.543 313.551 208.366 314.3 209.813L312.54 210.142C312.19 209.465 311.44 209.046 310.496 209.222C309.356 209.436 308.647 210.433 308.931 211.947C309.184 213.303 310.136 214.203 311.552 213.939C312.594 213.744 313.136 213.001 313.169 212.09L311.125 212.472L310.902 211.283L314.539 210.602C315.058 212.886 313.971 214.798 311.72 215.219ZM317.786 213.932L316.292 214.212L314.971 207.154L317.733 206.637C319.512 206.304 320.699 206.937 320.973 208.402C321.151 209.355 320.703 210.222 319.763 210.744L322.091 213.127L320.312 213.459L318.252 211.261L317.319 211.435L317.786 213.932ZM316.697 208.113L317.089 210.207L318.288 209.982C319.192 209.813 319.608 209.369 319.479 208.681C319.348 207.983 318.801 207.719 317.896 207.889L316.697 208.113ZM326.204 212.51C324.17 212.89 322.303 211.612 321.907 209.498C321.512 207.385 322.794 205.538 324.829 205.157C326.873 204.775 328.746 206.032 329.142 208.145C329.537 210.258 328.249 212.127 326.204 212.51ZM325.954 211.173C327.252 210.93 327.841 209.731 327.599 208.434C327.356 207.136 326.376 206.251 325.079 206.494C323.791 206.735 323.198 207.914 323.441 209.212C323.683 210.509 324.667 211.414 325.954 211.173ZM335.303 203.35L336.122 207.724C336.434 209.395 335.59 210.754 333.752 211.098C331.884 211.447 330.625 210.482 330.313 208.811L329.494 204.437L330.988 204.157L331.812 208.561C331.976 209.436 332.509 209.946 333.502 209.761C334.485 209.577 334.797 208.908 334.633 208.033L333.809 203.63L335.303 203.35ZM340.227 207.353L339.117 207.561L339.547 209.861L338.053 210.14L336.732 203.083L339.337 202.595C341.057 202.273 342.281 202.889 342.568 204.422C342.855 205.956 341.947 207.031 340.227 207.353ZM339.563 203.855L338.462 204.061L338.881 206.302L339.982 206.096C340.827 205.938 341.216 205.408 341.086 204.71C340.955 204.012 340.408 203.697 339.563 203.855ZM349.672 208.119C347.687 208.49 345.832 207.169 345.444 205.095C345.058 203.031 346.311 201.138 348.297 200.766C350.155 200.419 351.841 201.385 352.425 203.148L350.843 203.444C350.486 202.463 349.569 201.912 348.567 202.1C347.358 202.326 346.72 203.432 346.978 204.808C347.237 206.194 348.233 207.005 349.442 206.778C350.445 206.591 351.089 205.738 351.076 204.692L352.659 204.396C352.755 206.27 351.53 207.771 349.672 208.119ZM357.469 206.66C355.434 207.041 353.567 205.762 353.172 203.649C352.776 201.536 354.058 199.688 356.093 199.308C358.137 198.925 360.011 200.182 360.406 202.296C360.801 204.409 359.513 206.278 357.469 206.66ZM357.218 205.323C358.516 205.081 359.106 203.882 358.863 202.584C358.62 201.287 357.641 200.402 356.343 200.645C355.055 200.886 354.462 202.065 354.705 203.362C354.948 204.66 355.931 205.564 357.218 205.323ZM365.303 205.042L362.578 200.699L363.455 205.388L362.098 205.641L360.778 198.584L362.567 198.249L365.59 203.096L366.666 197.482L368.455 197.148L369.775 204.205L368.419 204.459L367.534 199.731L366.551 204.808L365.303 205.042ZM373.392 201.148L372.281 201.356L372.712 203.656L371.218 203.935L369.897 196.878L372.502 196.39C374.222 196.069 375.446 196.684 375.733 198.217C376.02 199.751 375.112 200.826 373.392 201.148ZM372.727 197.65L371.627 197.856L372.046 200.097L373.147 199.892C373.992 199.733 374.381 199.203 374.251 198.505C374.12 197.807 373.573 197.492 372.727 197.65ZM381.858 201.944L381.044 200.53L378.302 201.043L378.044 202.658L376.541 202.939L377.874 195.385L379.506 195.08L383.46 201.645L381.858 201.944ZM378.956 196.872L378.502 199.775L380.409 199.418L378.956 196.872ZM385.814 201.204L384.32 201.484L383 194.426L385.762 193.91C387.541 193.577 388.728 194.209 389.002 195.674C389.18 196.627 388.732 197.494 387.792 198.016L390.12 200.399L388.341 200.732L386.281 198.533L385.347 198.708L385.814 201.204ZM384.726 195.385L385.117 197.479L386.317 197.255C387.221 197.085 387.636 196.641 387.508 195.953C387.377 195.255 386.829 194.992 385.925 195.161L384.726 195.385ZM392.543 199.945L391.049 200.225L389.729 193.167L391.223 192.888L392.543 199.945ZM398.992 196.47C399.244 197.817 398.34 198.963 396.57 199.294C394.791 199.627 393.502 198.881 393.115 197.407L394.628 197.124C394.813 197.893 395.408 198.3 396.322 198.129C397.079 197.988 397.557 197.553 397.45 196.982C397.368 196.54 396.974 196.339 396.352 196.333L395.15 196.324C394.04 196.318 393.106 195.893 392.887 194.723C392.652 193.465 393.593 192.353 395.117 192.068C396.699 191.772 398.032 192.479 398.406 193.935L396.892 194.218C396.705 193.49 396.1 193.084 395.353 193.224C394.626 193.36 394.29 193.85 394.382 194.342C394.472 194.823 394.953 194.947 395.483 194.95L396.738 194.969C398.022 194.983 398.798 195.428 398.992 196.47ZM403.534 198.042C401.5 198.422 399.633 197.144 399.237 195.03C398.842 192.917 400.124 191.07 402.159 190.689C404.203 190.307 406.077 191.564 406.472 193.677C406.867 195.79 405.579 197.659 403.534 198.042ZM403.284 196.705C404.582 196.462 405.171 195.263 404.929 193.966C404.686 192.668 403.706 191.783 402.409 192.026C401.121 192.267 400.528 193.446 400.771 194.744C401.014 196.041 401.997 196.946 403.284 196.705ZM412.765 196.162L408.609 191.843L409.531 196.767L408.164 197.023L406.844 189.965L408.456 189.664L412.408 193.767L411.533 189.088L412.909 188.831L414.229 195.888L412.765 196.162ZM420.888 194.795C418.902 195.166 417.048 193.845 416.66 191.771C416.274 189.707 417.527 187.814 419.512 187.442C421.37 187.095 423.057 188.061 423.641 189.824L422.058 190.12C421.702 189.139 420.785 188.588 419.782 188.776C418.573 189.002 417.936 190.108 418.193 191.484C418.452 192.87 419.448 193.681 420.658 193.454C421.66 193.267 422.304 192.414 422.292 191.368L423.874 191.072C423.971 192.946 422.746 194.447 420.888 194.795ZM426.956 193.507L425.462 193.787L424.141 186.729L425.636 186.449L426.156 189.231L429.213 188.659L428.692 185.877L430.187 185.598L431.507 192.656L430.013 192.935L429.454 189.947L426.397 190.519L426.956 193.507ZM437.677 191.501L436.863 190.087L434.12 190.6L433.863 192.215L432.359 192.496L433.693 184.942L435.324 184.637L439.279 191.201L437.677 191.501ZM434.774 186.428L434.321 189.331L436.228 188.975L434.774 186.428ZM441.633 190.761L440.139 191.041L438.818 183.983L441.58 183.466C443.36 183.133 444.546 183.766 444.82 185.231C444.999 186.184 444.55 187.051 443.61 187.573L445.938 189.956L444.159 190.288L442.1 188.09L441.166 188.264L441.633 190.761ZM440.544 184.942L440.936 187.036L442.135 186.811C443.039 186.642 443.455 186.198 443.326 185.51C443.196 184.812 442.648 184.548 441.743 184.718L440.544 184.942ZM449.908 189.213L448.414 189.492L447.345 183.781L445.124 184.197L444.872 182.85L450.819 181.738L451.071 183.084L448.839 183.502L449.908 189.213ZM457.892 185.45C458.144 186.797 457.24 187.943 455.47 188.274C453.691 188.607 452.402 187.861 452.014 186.387L453.528 186.104C453.713 186.873 454.308 187.281 455.222 187.11C455.979 186.968 456.457 186.533 456.35 185.963C456.267 185.52 455.874 185.319 455.252 185.313L454.05 185.304C452.94 185.298 452.006 184.873 451.787 183.703C451.552 182.445 452.493 181.333 454.017 181.048C455.599 180.752 456.932 181.459 457.306 182.915L455.792 183.198C455.605 182.47 455 182.064 454.253 182.204C453.526 182.34 453.19 182.83 453.282 183.322C453.372 183.803 453.853 183.927 454.383 183.93L455.638 183.949C456.922 183.963 457.697 184.408 457.892 185.45Z" fill="#ADADAD"/>
<line x1="286.784" y1="210.92" x2="319.765" y2="387.199" stroke="#B3B3B3"/>
<line x1="612.787" y1="332.886" x2="319.367" y2="387.783" stroke="#B3B3B3"/>
<rect x="352.609" y="389.293" width="40.4958" height="9.25618" transform="rotate(-10.5972 352.609 389.293)" fill="#EBEBEB"/>
<rect x="293.203" y="348.621" width="96.0328" height="10.4132" transform="rotate(-100.597 293.203 348.621)" fill="#EBEBEB"/>
<rect x="433.359" y="374.191" width="69.4213" height="9.25618" transform="rotate(-10.5972 433.359 374.191)" fill="#EBEBEB"/>
<rect x="540.262" y="354.184" width="40.4958" height="9.25618" transform="rotate(-10.5972 540.262 354.184)" fill="#EBEBEB"/>
<path d="M328.301 315.995C328.2 315.452 328.557 314.929 329.1 314.828L344.194 312.004C344.736 311.902 345.259 312.26 345.36 312.803L357.943 380.057L340.884 383.249L328.301 315.995Z" fill="#D9D9D9"/>
<path d="M417.942 279.213C417.84 278.671 418.198 278.148 418.741 278.047L433.834 275.223C434.377 275.121 434.899 275.479 435.001 276.022L451.201 362.61L434.142 365.802L417.942 279.213Z" fill="#D9D9D9"/>
<path d="M505.242 229.924C505.141 229.381 505.499 228.859 506.042 228.758L521.135 225.934C521.678 225.832 522.2 226.19 522.302 226.733L544.46 345.165L527.4 348.357L505.242 229.924Z" fill="#D9D9D9"/>
<path d="M434.657 249.01C434.555 248.467 434.913 247.945 435.456 247.843L451.686 244.807C452.229 244.705 452.752 245.063 452.853 245.606L473.947 358.352L455.751 361.756L434.657 249.01Z" fill="#C2C2C2"/>
<path d="M338.418 250.542C338.317 249.999 338.674 249.476 339.217 249.375L355.448 246.338C355.991 246.236 356.513 246.594 356.615 247.137L380.688 375.805L362.491 379.209L338.418 250.542Z" fill="#C2C2C2"/>
<path d="M463.36 276.604C463.258 276.061 463.616 275.539 464.159 275.437L480.389 272.401C480.932 272.299 481.455 272.657 481.556 273.2L496.693 354.101L478.496 357.506L463.36 276.604Z" fill="#AEAEAE"/>
<path d="M532.805 257.721C532.703 257.178 533.061 256.656 533.604 256.554L549.835 253.518C550.378 253.416 550.9 253.774 551.002 254.317L567.202 340.905L549.005 344.31L532.805 257.721Z" fill="#C2C2C2"/>
<path d="M370.102 294.049C370 293.506 370.358 292.984 370.901 292.883L387.132 289.846C387.675 289.744 388.197 290.102 388.298 290.645L403.435 371.547L385.238 374.951L370.102 294.049Z" fill="#AEAEAE"/>
<path d="M553.637 243.229C553.535 242.686 553.893 242.164 554.436 242.062L570.667 239.026C571.21 238.924 571.732 239.282 571.834 239.825L589.949 336.648L571.752 340.053L553.637 243.229Z" fill="#AEAEAE"/>
<g filter="url(#filter2_d_1_8863)">
<rect x="199.971" y="132.292" width="239.866" height="159.164" rx="3" transform="rotate(15.1023 199.971 132.292)" fill="#5E5E5E"/>
<path d="M207.571 148.693L206.48 148.399L205.871 150.658L204.403 150.262L206.274 143.33L208.832 144.02C210.522 144.476 211.358 145.562 210.952 147.068C210.545 148.574 209.261 149.149 207.571 148.693ZM208.489 145.253L207.408 144.962L206.814 147.163L207.895 147.455C208.726 147.679 209.306 147.369 209.491 146.684C209.676 145.998 209.32 145.478 208.489 145.253ZM214.855 153.082L214.735 151.455L212.041 150.728L211.109 152.071L209.632 151.673L214.109 145.444L215.712 145.877L216.428 153.507L214.855 153.082ZM214.439 147.253L212.771 149.672L214.644 150.177L214.439 147.253ZM218.74 154.131L217.273 153.735L219.144 146.803L221.857 147.535C223.604 148.007 224.399 149.091 224.011 150.53C223.758 151.466 222.978 152.053 221.905 152.116L222.969 155.272L221.222 154.801L220.319 151.926L219.402 151.679L218.74 154.131ZM220.283 148.415L219.728 150.472L220.906 150.79C221.794 151.029 222.361 150.81 222.543 150.134C222.728 149.448 222.349 148.973 221.461 148.733L220.283 148.415ZM226.868 156.324L225.401 155.928L226.914 150.319L224.732 149.73L225.089 148.407L230.93 149.984L230.574 151.306L228.382 150.715L226.868 156.324ZM231.403 157.548L229.935 157.152L231.806 150.22L233.273 150.616L231.403 157.548ZM235.851 158.904C233.901 158.378 232.803 156.383 233.353 154.345C233.9 152.318 235.85 151.156 237.8 151.682C239.625 152.175 240.726 153.777 240.487 155.618L238.933 155.199C239.037 154.16 238.45 153.266 237.465 153.001C236.278 152.68 235.224 153.4 234.859 154.752C234.491 156.113 235.037 157.276 236.225 157.596C237.21 157.862 238.16 157.373 238.602 156.425L240.157 156.845C239.431 158.575 237.676 159.396 235.851 158.904ZM241.878 160.375L240.41 159.979L242.281 153.047L243.748 153.443L241.878 160.375ZM246.463 159.189L245.372 158.894L244.763 161.153L243.295 160.757L245.166 153.825L247.724 154.516C249.414 154.972 250.25 156.057 249.844 157.563C249.437 159.069 248.153 159.645 246.463 159.189ZM247.381 155.749L246.3 155.457L245.706 157.658L246.787 157.95C247.617 158.174 248.198 157.865 248.383 157.179C248.568 156.494 248.211 155.973 247.381 155.749ZM253.747 163.578L253.627 161.95L250.933 161.223L250.001 162.567L248.523 162.168L253.001 155.94L254.604 156.372L255.32 164.003L253.747 163.578ZM253.331 157.748L251.663 160.167L253.536 160.673L253.331 157.748ZM260.683 165.45L258.812 159.756L257.507 164.593L256.165 164.23L258.036 157.298L259.619 157.726L261.401 163.137L262.641 158.541L263.992 158.906L262.122 165.838L260.683 165.45ZM266.646 167.059L265.179 166.663L266.693 161.054L264.511 160.465L264.868 159.142L270.709 160.718L270.352 162.041L268.16 161.45L266.646 167.059ZM276.993 169.851L277.007 164.655L274.405 169.153L272.919 168.752L273.013 161.34L274.442 161.726L274.293 166.73L276.836 162.372L278.332 162.776L278.294 167.83L280.698 163.414L282.136 163.802L278.48 170.252L276.993 169.851ZM286.1 170.942L285.757 172.216L281.093 170.958L282.964 164.026L287.56 165.266L287.216 166.54L284.088 165.696L283.694 167.154L286.533 167.92L286.191 169.185L283.353 168.419L282.905 170.079L286.1 170.942ZM291.372 173.732L286.892 172.523L288.762 165.591L290.23 165.987L288.716 171.596L291.728 172.409L291.372 173.732ZM296.859 175.212L292.379 174.003L294.25 167.071L295.717 167.467L294.204 173.077L297.216 173.89L296.859 175.212ZM300.658 174.031L297.713 173.237L298.036 172.04L300.981 172.834L300.658 174.031ZM306.816 175.714C306.469 176.998 305.32 177.496 303.794 177.084L301.081 176.352L302.952 169.42L305.559 170.123C307.017 170.517 307.737 171.416 307.417 172.603C307.245 173.24 306.75 173.656 306.046 173.807C306.745 174.286 307.022 174.951 306.816 175.714ZM305.13 171.251L303.972 170.938L303.537 172.55L304.695 172.863C305.41 173.056 305.86 172.846 305.995 172.344C306.128 171.851 305.845 171.443 305.13 171.251ZM304.486 174.06L303.221 173.718L302.726 175.553L303.991 175.894C304.783 176.108 305.292 175.872 305.451 175.283C305.599 174.733 305.278 174.273 304.486 174.06ZM312.34 178.023L311.996 179.297L307.332 178.039L309.203 171.107L313.799 172.347L313.455 173.621L310.327 172.777L309.933 174.235L312.772 175.001L312.43 176.266L309.592 175.5L309.144 177.16L312.34 178.023ZM314.598 180L313.131 179.604L315.002 172.672L316.469 173.068L314.598 180ZM320.534 181.601L318.663 175.907L317.358 180.744L316.016 180.382L317.887 173.45L319.47 173.877L321.252 179.289L322.492 174.693L323.844 175.058L321.973 181.99L320.534 181.601ZM326.526 183.374C324.518 182.832 323.358 180.913 323.936 178.77C324.488 176.723 326.389 175.589 328.417 176.137C330.174 176.611 331.148 177.992 331.195 179.621L329.467 179.154C329.445 178.392 328.951 177.689 328.024 177.439C326.904 177.137 325.833 177.728 325.432 179.215C325.072 180.547 325.539 181.771 326.93 182.147C327.953 182.423 328.764 181.989 329.189 181.182L327.181 180.64L327.496 179.472L331.068 180.436C330.546 182.718 328.737 183.97 326.526 183.374Z" fill="#474747"/>
<path d="M361.045 204.353C361.578 204.497 361.894 205.046 361.75 205.579L359.059 215.552C358.915 216.085 358.366 216.4 357.833 216.256L197.784 173.065L200.997 161.161L361.045 204.353Z" fill="#474747"/>
<path d="M375.382 230.28C375.915 230.424 376.231 230.973 376.087 231.506L373.396 241.479C373.252 242.013 372.703 242.328 372.17 242.184L192.235 193.626L195.447 181.722L375.382 230.28Z" fill="#474747"/>
<path d="M378.683 253.229C379.217 253.373 379.532 253.922 379.388 254.455L376.697 264.428C376.553 264.961 376.004 265.277 375.471 265.133L186.686 214.187L189.899 202.283L378.683 253.229Z" fill="#474747"/>
<path d="M334.234 263.292C334.767 263.436 335.083 263.985 334.939 264.518L332.248 274.491C332.104 275.024 331.555 275.34 331.022 275.196L181.14 234.748L184.352 222.844L334.234 263.292Z" fill="#474747"/>
<path d="M343.176 287.763C343.709 287.907 344.025 288.456 343.881 288.989L341.19 298.962C341.046 299.495 340.497 299.811 339.964 299.667L175.591 255.309L178.803 243.405L343.176 287.763Z" fill="#474747"/>
<path d="M344.35 310.139C344.884 310.283 345.199 310.832 345.055 311.365L342.364 321.338C342.22 321.871 341.671 322.187 341.138 322.043L170.041 275.869L173.253 263.966L344.35 310.139Z" fill="#474747"/>
</g>
<path d="M770.361 174.384L664.054 95.9919C651.693 86.8772 627.222 99.0855 609.396 123.26L532.314 227.791C514.487 251.965 510.056 278.951 522.417 288.066L628.724 366.458C641.085 375.573 665.556 363.364 683.382 339.19L760.464 234.659C778.291 210.485 782.722 183.499 770.361 174.384Z" fill="#333132"/>
<path d="M645.037 233.06C686.754 263.822 745.334 255.18 775.879 213.757C806.425 172.334 797.369 113.817 755.652 83.0546C713.936 52.2925 655.356 60.9347 624.811 102.357C594.265 143.78 603.321 202.297 645.037 233.06Z" fill="#323232"/>
<path d="M742.847 158.219C752.813 165.715 766.601 163.819 773.645 153.982C780.69 144.146 778.322 130.095 768.356 122.598C758.391 115.101 744.603 116.998 737.558 126.834C730.514 136.671 732.882 150.722 742.847 158.219Z" fill="white"/>
<path d="M760.137 126.381C761.518 126.885 762.854 127.601 764.103 128.54C770.744 133.536 772.322 142.9 767.628 149.455C762.933 156.011 753.745 157.274 747.103 152.278C740.462 147.282 738.884 137.919 743.579 131.364C745.071 129.28 747.016 127.733 749.189 126.748L755.513 136.243L760.137 126.381Z" fill="#0B0B0B"/>
<path d="M688.12 117.862C698.085 125.359 711.874 123.462 718.918 113.626C725.962 103.789 723.594 89.7381 713.629 82.2415C703.664 74.7448 689.875 76.6415 682.831 86.4779C675.787 96.3143 678.155 110.366 688.12 117.862Z" fill="white"/>
<path d="M705.413 86.0246C706.794 86.5288 708.131 87.2448 709.379 88.184C716.02 93.18 717.598 102.544 712.904 109.099C708.209 115.654 699.021 116.918 692.38 111.922C685.739 106.926 684.161 97.5625 688.855 91.0072C690.347 88.9237 692.293 87.3767 694.466 86.3919L700.79 95.8865L705.413 86.0246Z" fill="#0B0B0B"/>
<path d="M792.705 151.36L786.58 146.844C786.469 146.762 786.353 146.693 786.235 146.63C788.819 134.851 784.627 122.221 774.493 114.749C761.298 105.019 742.726 107.494 731.992 120.026C730.736 118.598 729.152 117.49 727.381 116.798C736.273 102.827 733.17 84.2767 719.938 74.5195C709.814 67.0536 696.526 66.774 686.041 72.7054L680.167 68.3739C678.908 67.4457 677.116 67.7369 676.167 69.0239C675.218 70.3109 675.47 72.1087 676.728 73.0369L681.032 76.2105C679.173 77.7959 677.462 79.6156 675.948 81.6689C665.521 95.8089 668.289 115.609 682.118 125.807C694.873 135.212 712.647 133.214 723.513 121.757C725.608 121.952 727.465 123.18 728.469 125.013C720.531 138.821 723.832 156.567 736.672 166.035C750.501 176.233 770.235 173.026 780.662 158.886C782.176 156.832 783.409 154.661 784.374 152.416L789.266 156.023C790.525 156.952 792.317 156.66 793.266 155.373C794.215 154.086 793.964 152.289 792.705 151.36ZM685.557 121.144C674.242 112.8 671.978 96.601 680.509 85.0319C689.04 73.4629 705.185 70.839 716.5 79.1826C727.815 87.5262 730.079 103.725 721.548 115.294C713.017 126.863 696.872 129.487 685.557 121.144ZM740.112 161.373C728.797 153.03 726.533 136.83 735.064 125.261C743.595 113.692 759.74 111.068 771.055 119.412C782.369 127.755 784.634 143.955 776.103 155.524C767.572 167.093 751.427 169.717 740.112 161.373Z" fill="#BAA98E"/>
<path d="M727.88 199.455C741.264 181.305 735.288 154.203 714.599 138.947C693.91 123.69 666.253 125.991 652.868 144.141L645.289 232.937L727.88 199.455Z" fill="#F2F2F2"/>
<path d="M645.746 233.27L727.884 199.455C741.269 181.304 735.496 154.352 715.056 139.279L645.746 233.27Z" fill="#CCCBCB"/>
<path d="M265.643 631.592L132.684 304.93C131.85 302.88 132.839 300.542 134.892 299.713L341.123 216.455C342.154 216.039 343.313 216.071 344.32 216.543L426.941 255.322C427.956 255.798 429.124 255.827 430.16 255.401L623.413 176.061C625.461 175.22 627.803 176.203 628.637 178.253L735.343 440.413C736.176 442.46 735.192 444.793 733.146 445.626L270.856 633.789C268.81 634.622 266.476 633.638 265.643 631.592Z" fill="#BBAA8F"/>
<g filter="url(#filter3_bdd_1_8863)">
<rect x="210.848" y="223.668" width="539.911" height="169.818" rx="5.4" transform="rotate(3.6621 210.848 223.668)" fill="white" fill-opacity="0.75" shape-rendering="crispEdges"/>
<rect x="211.268" y="224.146" width="539.01" height="168.918" rx="4.95" transform="rotate(3.6621 211.268 224.146)" stroke="#B9B6AA" stroke-width="0.9" shape-rendering="crispEdges"/>
</g>
<path d="M724.608 349.766C724.795 349.601 724.813 349.317 724.649 349.131L721.974 346.09C721.81 345.903 721.525 345.885 721.339 346.049C721.152 346.213 721.134 346.498 721.298 346.684L723.676 349.387L720.973 351.765C720.786 351.929 720.768 352.213 720.932 352.4C721.097 352.587 721.381 352.605 721.567 352.441L724.608 349.766ZM222.162 317.74L724.282 349.877L724.34 348.979L222.22 316.841L222.162 317.74Z" fill="#626262"/>
<line x1="261.873" y1="325.039" x2="260.877" y2="340.603" stroke="#AEAEAE" stroke-width="0.9"/>
<line x1="346.979" y1="304.441" x2="345.983" y2="320.005" stroke="#AEAEAE" stroke-width="0.9"/>
<line x1="426.609" y1="335.582" x2="425.613" y2="351.146" stroke="#AEAEAE" stroke-width="0.9"/>
<line x1="511.717" y1="314.985" x2="510.721" y2="330.548" stroke="#AEAEAE" stroke-width="0.9"/>
<line x1="589.187" y1="345.988" x2="588.191" y2="361.551" stroke="#AEAEAE" stroke-width="0.9"/>
<line x1="674.294" y1="325.391" x2="673.298" y2="340.954" stroke="#AEAEAE" stroke-width="0.9"/>
<rect x="309.622" y="282.949" width="75.6884" height="12.9963" rx="1.8" transform="rotate(3.6621 309.622 282.949)" fill="#DCDCDC"/>
<rect x="485.868" y="294.229" width="52.6215" height="12.9963" rx="1.8" transform="rotate(3.6621 485.868 294.229)" fill="#DCDCDC"/>
<rect x="634.778" y="303.76" width="80.0134" height="12.9963" rx="1.8" transform="rotate(3.6621 634.778 303.76)" fill="#DCDCDC"/>
<rect x="529.472" y="369.081" width="114.614" height="12.9963" rx="1.8" transform="rotate(3.6621 529.472 369.081)" fill="#DCDCDC"/>
<rect x="392.073" y="360.287" width="64.1549" height="12.9963" rx="1.8" transform="rotate(3.6621 392.073 360.287)" fill="#DCDCDC"/>
<rect x="221.582" y="349.375" width="75.6884" height="12.9963" rx="1.8" transform="rotate(3.6621 221.582 349.375)" fill="#DCDCDC"/>
<g filter="url(#filter4_bdd_1_8863)">
<rect x="323" y="199" width="285.518" height="150.273" rx="6" transform="rotate(-7.96499 323 199)" fill="#437CC0"/>
<rect x="323.564" y="199.426" width="284.518" height="149.273" rx="5.5" transform="rotate(-7.96499 323.564 199.426)" stroke="#B9B6AA"/>
</g>
<path d="M351.931 215.205C352.229 216.821 351.14 218.194 349.016 218.586C346.88 218.98 345.335 218.081 344.875 216.311L346.692 215.976C346.911 216.899 347.624 217.39 348.722 217.188C349.63 217.02 350.205 216.499 350.079 215.815C349.981 215.284 349.509 215.041 348.763 215.032L347.321 215.018C345.989 215.007 344.869 214.494 344.61 213.09C344.331 211.579 345.465 210.248 347.294 209.91C349.194 209.56 350.791 210.412 351.235 212.16L349.418 212.496C349.196 211.621 348.471 211.133 347.574 211.298C346.701 211.459 346.297 212.046 346.406 212.636C346.512 213.215 347.089 213.365 347.724 213.369L349.23 213.397C350.772 213.417 351.7 213.954 351.931 215.205ZM359.215 216.582L353.739 217.592L352.176 209.119L353.97 208.788L355.235 215.645L358.917 214.965L359.215 216.582ZM365.859 213.746L366.146 215.303L360.446 216.355L358.883 207.882L364.501 206.846L364.788 208.403L360.964 209.109L361.293 210.891L364.763 210.251L365.048 211.797L361.578 212.437L361.953 214.466L365.859 213.746ZM372.946 212.438L373.234 213.996L367.534 215.047L365.971 206.574L371.588 205.538L371.875 207.096L368.052 207.801L368.381 209.583L371.85 208.943L372.135 210.489L368.666 211.129L369.04 213.159L372.946 212.438ZM377.239 210.402L375.906 210.648L376.415 213.409L374.621 213.74L373.058 205.267L376.185 204.69C378.251 204.309 379.718 205.051 380.057 206.892C380.397 208.733 379.304 210.021 377.239 210.402ZM376.452 206.203L375.131 206.447L375.627 209.137L376.949 208.893C377.964 208.706 378.432 208.071 378.277 207.233C378.123 206.395 377.467 206.015 376.452 206.203ZM354.293 233.76L348.817 234.77L347.254 226.297L349.048 225.966L350.312 232.823L353.994 232.143L354.293 233.76ZM358.689 233.132C356.246 233.583 354.01 232.043 353.542 229.506C353.074 226.969 354.618 224.756 357.061 224.305C359.515 223.852 361.759 225.366 362.227 227.903C362.695 230.441 361.144 232.679 358.689 233.132ZM358.393 231.527C359.951 231.24 360.662 229.803 360.374 228.245C360.087 226.688 358.914 225.623 357.357 225.91C355.811 226.195 355.095 227.608 355.383 229.166C355.67 230.724 356.847 231.812 358.393 231.527ZM368.151 231.387C365.697 231.839 363.448 230.363 362.964 227.743C362.503 225.241 363.974 223.03 366.452 222.573C368.6 222.176 370.369 223.168 371.263 224.906L369.151 225.296C368.732 224.483 367.834 223.977 366.701 224.186C365.332 224.439 364.479 225.633 364.814 227.451C365.114 229.079 366.254 230.162 367.953 229.849C369.204 229.618 369.858 228.729 369.9 227.635L367.445 228.088L367.182 226.66L371.548 225.855C372.164 228.596 370.854 230.888 368.151 231.387ZM379.657 226.36C379.955 227.977 378.866 229.349 376.742 229.741C374.606 230.135 373.061 229.236 372.601 227.466L374.418 227.131C374.637 228.055 375.35 228.545 376.448 228.343C377.356 228.175 377.931 227.654 377.805 226.97C377.707 226.439 377.235 226.196 376.489 226.188L375.047 226.173C373.715 226.163 372.595 225.649 372.336 224.245C372.057 222.734 373.191 221.403 375.02 221.065C376.92 220.715 378.517 221.567 378.961 223.316L377.144 223.651C376.922 222.777 376.197 222.288 375.3 222.453C374.427 222.615 374.023 223.202 374.132 223.792C374.238 224.37 374.815 224.52 375.45 224.525L376.956 224.552C378.498 224.572 379.426 225.109 379.657 226.36Z" fill="#212121"/>
<line x1="348.628" y1="233.458" x2="607.241" y2="185.75" stroke="#BFBFBF"/>
<line x1="352.546" y1="254.702" x2="611.159" y2="206.994" stroke="#BFBFBF"/>
<line x1="356.464" y1="275.945" x2="615.078" y2="228.237" stroke="#BFBFBF"/>
<line x1="360.385" y1="297.189" x2="618.998" y2="249.48" stroke="#BFBFBF"/>
<line x1="364.303" y1="318.432" x2="622.916" y2="270.723" stroke="#BFBFBF"/>
<rect x="410.358" y="226.399" width="63.8659" height="12.2097" rx="1" transform="rotate(-10.4523 410.358 226.399)" fill="#E8E8E8"/>
<rect x="414.448" y="248.566" width="56.3522" height="12.2097" rx="1" transform="rotate(-10.4523 414.448 248.566)" fill="#E8E8E8"/>
<rect x="418.367" y="269.81" width="48.8386" height="12.2097" rx="1" transform="rotate(-10.4523 418.367 269.81)" fill="#E8E8E8"/>
<rect x="422.285" y="291.053" width="59.1698" height="12.2097" rx="1" transform="rotate(-10.4523 422.285 291.053)" fill="#E8E8E8"/>
<rect x="426.204" y="312.296" width="63.8659" height="12.2097" rx="1" transform="rotate(-10.4523 426.204 312.296)" fill="#E8E8E8"/>
<rect x="477.783" y="213.961" width="54.4738" height="12.2097" rx="1" transform="rotate(-10.4523 477.783 213.961)" fill="#E8E8E8"/>
<rect x="481.872" y="236.128" width="63.8659" height="12.2097" rx="1" transform="rotate(-10.4523 481.872 236.128)" fill="#E8E8E8"/>
<rect x="485.791" y="257.372" width="59.1698" height="12.2097" rx="1" transform="rotate(-10.4523 485.791 257.372)" fill="#E8E8E8"/>
<rect x="489.71" y="278.614" width="63.8659" height="12.2097" rx="1" transform="rotate(-10.4523 489.71 278.614)" fill="#E8E8E8"/>
<rect x="493.628" y="299.858" width="54.4738" height="12.2097" rx="1" transform="rotate(-10.4523 493.628 299.858)" fill="#E8E8E8"/>
<rect x="545.207" y="201.522" width="61.0482" height="12.2097" rx="1" transform="rotate(-10.4523 545.207 201.522)" fill="#E8E8E8"/>
<rect x="549.296" y="223.689" width="63.8659" height="12.2097" rx="1" transform="rotate(-10.4523 549.296 223.689)" fill="#E8E8E8"/>
<rect x="553.215" y="244.933" width="61.0482" height="12.2097" rx="1" transform="rotate(-10.4523 553.215 244.933)" fill="#E8E8E8"/>
<rect x="557.133" y="266.176" width="45.0818" height="12.2097" rx="1" transform="rotate(-10.4523 557.133 266.176)" fill="#E8E8E8"/>
<rect x="561.053" y="287.419" width="53.5346" height="12.2097" rx="1" transform="rotate(-10.4523 561.053 287.419)" fill="#E8E8E8"/>
<path d="M354.553 246.74L353.494 240.997L355.201 240.682C355.589 240.61 355.938 240.622 356.248 240.716C356.564 240.81 356.825 240.976 357.032 241.214C357.239 241.453 357.376 241.756 357.443 242.123L357.84 244.271C357.906 244.633 357.886 244.964 357.779 245.266C357.671 245.563 357.487 245.814 357.227 246.019C356.971 246.218 356.648 246.353 356.26 246.425L354.553 246.74ZM355.37 245.654L356.093 245.52C356.377 245.468 356.588 245.348 356.726 245.159C356.864 244.966 356.908 244.73 356.856 244.452L356.46 242.304C356.41 242.032 356.286 241.832 356.089 241.706C355.891 241.574 355.651 241.534 355.368 241.587L354.644 241.72L355.37 245.654ZM358.956 245.928L359.344 239.918L360.61 239.684L363.125 245.158L362.118 245.344L361.547 244.01L360.02 244.291L359.963 245.742L358.956 245.928ZM360.053 243.455L361.218 243.241L360.587 241.763C360.482 241.516 360.39 241.295 360.31 241.098C360.229 240.896 360.172 240.749 360.139 240.657C360.141 240.755 360.14 240.912 360.137 241.13C360.138 241.341 360.13 241.578 360.114 241.842L360.053 243.455ZM365.262 244.764L364.878 242.679L362.519 239.332L363.55 239.142L364.814 240.967C364.911 241.111 364.997 241.255 365.072 241.399C365.148 241.542 365.201 241.654 365.232 241.735C365.238 241.648 365.247 241.524 365.261 241.364C365.28 241.203 365.31 241.038 365.349 240.868L365.855 238.716L366.878 238.528L365.869 242.497L366.253 244.581L365.262 244.764ZM356.619 257.544L356.46 256.679L357.955 256.403L357.216 252.399L355.919 253.793L355.728 252.755L356.874 251.559L358.038 251.344L358.938 256.222L360.142 256L360.301 256.865L356.619 257.544Z" fill="black" fill-opacity="0.5"/>
<path d="M358.472 267.983L357.413 262.24L359.12 261.925C359.508 261.854 359.857 261.865 360.167 261.96C360.483 262.054 360.744 262.22 360.951 262.458C361.157 262.697 361.295 262.999 361.362 263.367L361.759 265.514C361.825 265.876 361.805 266.208 361.698 266.51C361.59 266.806 361.406 267.057 361.146 267.263C360.889 267.462 360.567 267.597 360.179 267.669L358.472 267.983ZM359.289 266.897L360.012 266.764C360.296 266.712 360.507 266.591 360.645 266.403C360.783 266.209 360.826 265.974 360.775 265.696L360.379 263.548C360.329 263.275 360.205 263.076 360.008 262.949C359.81 262.818 359.57 262.778 359.287 262.83L358.563 262.964L359.289 266.897ZM362.875 267.171L363.263 261.161L364.529 260.928L367.044 266.402L366.037 266.588L365.466 265.253L363.939 265.535L363.882 266.986L362.875 267.171ZM363.972 264.699L365.137 264.484L364.506 263.006C364.401 262.76 364.309 262.538 364.229 262.341C364.148 262.139 364.091 261.993 364.058 261.901C364.06 261.998 364.059 262.156 364.056 262.373C364.057 262.585 364.049 262.822 364.033 263.085L363.972 264.699ZM369.181 266.008L368.796 263.923L366.438 260.575L367.469 260.385L368.733 262.21C368.83 262.355 368.916 262.499 368.991 262.642C369.067 262.786 369.12 262.898 369.151 262.979C369.157 262.891 369.166 262.767 369.18 262.608C369.199 262.447 369.229 262.281 369.268 262.112L369.774 259.96L370.796 259.771L369.788 263.74L370.172 265.825L369.181 266.008ZM360.499 278.795L360.323 277.843L361.785 275.711C361.989 275.407 362.133 275.142 362.216 274.915C362.298 274.683 362.318 274.457 362.278 274.237C362.228 273.969 362.117 273.776 361.943 273.656C361.768 273.531 361.554 273.492 361.303 273.538C361.025 273.589 360.822 273.711 360.695 273.902C360.566 274.089 360.528 274.324 360.581 274.607L359.597 274.788C359.535 274.42 359.555 274.091 359.659 273.801C359.767 273.504 359.949 273.256 360.205 273.057C360.461 272.858 360.778 272.724 361.156 272.654C361.518 272.587 361.845 272.597 362.138 272.684C362.43 272.772 362.673 272.925 362.865 273.144C363.058 273.364 363.185 273.644 363.248 273.985C363.313 274.336 363.284 274.697 363.163 275.066C363.045 275.429 362.823 275.839 362.495 276.296L361.515 277.688L363.923 277.244L364.087 278.133L360.499 278.795Z" fill="black" fill-opacity="0.5"/>
<path d="M362.391 289.226L361.332 283.483L363.039 283.168C363.427 283.097 363.777 283.108 364.087 283.203C364.402 283.296 364.664 283.462 364.87 283.701C365.077 283.939 365.214 284.242 365.282 284.609L365.678 286.757C365.745 287.119 365.725 287.451 365.618 287.752C365.51 288.049 365.325 288.3 365.065 288.505C364.809 288.704 364.487 288.84 364.099 288.911L362.391 289.226ZM363.208 288.14L363.932 288.006C364.215 287.954 364.426 287.834 364.565 287.646C364.703 287.452 364.746 287.216 364.695 286.938L364.298 284.791C364.248 284.518 364.125 284.318 363.928 284.192C363.73 284.06 363.489 284.021 363.206 284.073L362.482 284.206L363.208 288.14ZM366.794 288.414L367.182 282.404L368.449 282.17L370.964 287.645L369.957 287.831L369.385 286.496L367.859 286.778L367.801 288.228L366.794 288.414ZM367.892 285.942L369.056 285.727L368.426 284.249C368.32 284.003 368.228 283.781 368.148 283.584C368.068 283.382 368.011 283.235 367.978 283.144C367.979 283.241 367.979 283.399 367.975 283.616C367.976 283.827 367.969 284.065 367.952 284.328L367.892 285.942ZM373.101 287.251L372.716 285.166L370.357 281.818L371.388 281.628L372.652 283.453C372.749 283.598 372.836 283.742 372.911 283.885C372.986 284.029 373.039 284.141 373.071 284.222C373.076 284.134 373.086 284.01 373.1 283.85C373.119 283.69 373.148 283.524 373.187 283.354L373.693 281.203L374.716 281.014L373.707 284.983L374.092 287.068L373.101 287.251ZM366.117 299.806C365.744 299.875 365.406 299.866 365.103 299.781C364.805 299.695 364.558 299.543 364.36 299.325C364.163 299.106 364.033 298.829 363.971 298.493L364.962 298.311C365.01 298.568 365.12 298.756 365.294 298.876C365.472 298.989 365.698 299.021 365.971 298.971C366.243 298.92 366.44 298.808 366.559 298.634C366.679 298.46 366.716 298.247 366.669 297.996L366.587 297.547C366.539 297.29 366.429 297.104 366.256 296.99C366.082 296.87 365.859 296.835 365.586 296.886L364.941 297.005L364.777 296.116L365.827 294.71L363.617 295.118L363.461 294.276L366.671 293.684L366.835 294.573L365.489 296.359L365.431 296.044C365.997 295.939 366.473 296.006 366.859 296.244C367.244 296.482 367.484 296.856 367.578 297.364L367.661 297.813C367.723 298.148 367.7 298.454 367.594 298.728C367.487 299.003 367.307 299.234 367.054 299.421C366.802 299.609 366.489 299.737 366.117 299.806Z" fill="black" fill-opacity="0.5"/>
<path d="M366.309 310.47L365.25 304.727L366.957 304.412C367.345 304.34 367.694 304.352 368.005 304.446C368.32 304.54 368.581 304.706 368.788 304.944C368.995 305.183 369.132 305.486 369.2 305.853L369.596 308.001C369.663 308.363 369.643 308.694 369.536 308.996C369.428 309.293 369.243 309.544 368.983 309.749C368.727 309.948 368.405 310.083 368.017 310.155L366.309 310.47ZM367.126 309.384L367.85 309.25C368.133 309.198 368.344 309.078 368.483 308.889C368.621 308.696 368.664 308.46 368.613 308.182L368.216 306.034C368.166 305.762 368.043 305.562 367.846 305.436C367.648 305.304 367.407 305.264 367.124 305.317L366.4 305.45L367.126 309.384ZM370.712 309.658L371.1 303.648L372.367 303.414L374.882 308.888L373.875 309.074L373.303 307.74L371.777 308.021L371.719 309.472L370.712 309.658ZM371.81 307.185L372.974 306.971L372.343 305.493C372.238 305.246 372.146 305.025 372.066 304.828C371.986 304.626 371.929 304.479 371.896 304.387C371.897 304.485 371.896 304.642 371.893 304.86C371.894 305.071 371.886 305.308 371.87 305.572L371.81 307.185ZM377.018 308.494L376.634 306.409L374.275 303.062L375.306 302.872L376.57 304.697C376.667 304.841 376.754 304.985 376.829 305.129C376.904 305.272 376.957 305.384 376.989 305.465C376.994 305.378 377.004 305.254 377.018 305.094C377.037 304.933 377.066 304.768 377.105 304.598L377.611 302.446L378.634 302.258L377.625 306.227L378.01 308.311L377.018 308.494ZM370.783 320.83L370.573 319.689L368.016 320.161L367.753 318.737L369.378 315.151L370.479 314.948L368.745 318.823L368.8 319.121L370.413 318.824L370.174 317.526L371.157 317.344L371.767 320.649L370.783 320.83Z" fill="black" fill-opacity="0.5"/>
<path d="M370.229 331.713L369.17 325.97L370.877 325.655C371.265 325.583 371.614 325.595 371.925 325.689C372.24 325.783 372.501 325.949 372.708 326.188C372.915 326.426 373.052 326.729 373.12 327.096L373.516 329.244C373.583 329.606 373.563 329.937 373.456 330.239C373.348 330.536 373.163 330.787 372.903 330.992C372.647 331.191 372.325 331.326 371.937 331.398L370.229 331.713ZM371.046 330.627L371.77 330.493C372.053 330.441 372.264 330.321 372.403 330.132C372.541 329.939 372.584 329.703 372.533 329.425L372.136 327.277C372.086 327.005 371.962 326.805 371.766 326.679C371.568 326.547 371.327 326.507 371.044 326.56L370.32 326.693L371.046 330.627ZM374.632 330.901L375.02 324.891L376.287 324.657L378.802 330.132L377.795 330.317L377.223 328.983L375.697 329.264L375.639 330.715L374.632 330.901ZM375.73 328.429L376.894 328.214L376.263 326.736C376.158 326.489 376.066 326.268 375.986 326.071C375.906 325.869 375.849 325.722 375.815 325.631C375.817 325.728 375.816 325.885 375.813 326.103C375.814 326.314 375.806 326.552 375.79 326.815L375.73 328.429ZM380.938 329.737L380.554 327.653L378.195 324.305L379.226 324.115L380.49 325.94C380.587 326.085 380.673 326.229 380.749 326.372C380.824 326.515 380.877 326.628 380.908 326.709C380.914 326.621 380.924 326.497 380.938 326.337C380.957 326.176 380.986 326.011 381.025 325.841L381.531 323.69L382.554 323.501L381.545 327.47L381.93 329.555L380.938 329.737ZM374.002 342.284C373.472 342.382 373.023 342.329 372.655 342.126C372.285 341.917 372.043 341.588 371.927 341.137L372.911 340.956C372.968 341.151 373.076 341.292 373.232 341.377C373.393 341.455 373.597 341.472 373.844 341.427C374.116 341.376 374.31 341.267 374.426 341.099C374.54 340.926 374.574 340.711 374.527 340.454L374.423 339.896C374.375 339.634 374.268 339.447 374.101 339.337C373.933 339.222 373.713 339.189 373.44 339.239C373.272 339.27 373.134 339.331 373.026 339.422C372.918 339.512 372.844 339.623 372.803 339.756L371.843 339.933L371.299 336.763L374.533 336.166L374.697 337.055L372.392 337.48L372.684 339.151L372.912 339.109L372.712 339.349C372.667 339.108 372.727 338.902 372.891 338.731C373.059 338.553 373.305 338.435 373.63 338.375C374.096 338.283 374.484 338.358 374.794 338.599C375.109 338.834 375.313 339.206 375.407 339.714L375.51 340.273C375.606 340.792 375.519 341.231 375.249 341.59C374.984 341.948 374.568 342.18 374.002 342.284Z" fill="black" fill-opacity="0.5"/>
<path d="M370.295 222.71C390.172 252.964 430.812 261.376 461.066 241.498C491.32 221.621 499.732 180.982 479.854 150.728C459.977 120.474 419.337 112.063 389.083 131.94C358.829 151.817 350.417 192.457 370.295 222.71Z" fill="#B8DDF6" fill-opacity="0.3"/>
<path d="M587.158 251.448L495.89 205.81C496.074 205.191 496.254 204.572 496.421 203.947C501.522 185.109 498.981 165.407 489.268 148.479C479.555 131.551 463.829 119.414 444.991 114.311C426.154 109.208 406.454 111.747 389.528 121.459C372.602 131.17 360.469 146.896 355.368 165.734C350.267 184.573 352.809 204.274 362.522 221.202C372.235 238.131 387.961 250.267 406.798 255.37C425.636 260.474 445.335 257.934 462.261 248.223C472.505 242.345 480.99 234.261 487.227 224.621L577.903 269.964L587.158 251.448ZM375.618 213.685C359.71 185.96 369.321 150.465 397.042 134.559C424.762 118.654 460.257 128.27 476.164 155.994C492.072 183.719 482.461 219.215 454.74 235.12C427.02 251.026 391.525 241.41 375.618 213.685Z" fill="#BAA98E"/>
<path d="M671.532 364.269L669.448 362.606C667.343 360.924 668.093 358.621 670.004 356.229L701.118 315.144C703.029 312.752 706.285 312.182 708.391 313.863L710.474 315.527C712.579 317.209 712.743 320.51 710.832 322.903L677.015 362.013C675.104 364.405 673.646 365.97 671.541 364.289L671.532 364.269Z" fill="#437CC0"/>
<path d="M626.55 418.216C626.058 415.815 635.618 402.146 637.768 399.455L664.159 363.793C666.302 361.109 669.345 359.964 670.95 361.246L672.541 362.516C674.146 363.798 673.708 367.011 671.558 369.703L642.442 403.188C640.298 405.871 629.269 418.379 626.557 418.222L626.55 418.216Z" fill="url(#paint0_linear_1_8863)"/>
<path d="M728.978 297.197L722.153 291.747C720.648 290.545 718.453 290.792 717.249 292.299L702.501 310.764C701.298 312.271 701.542 314.467 703.047 315.669L709.872 321.119C711.377 322.321 713.573 322.074 714.776 320.567L729.524 302.103C730.727 300.596 730.483 298.399 728.978 297.197Z" fill="#437CC0"/>
<path d="M735.082 292.938L724.457 284.453C723.195 283.445 721.354 283.652 720.345 284.915L718.62 287.076C717.611 288.339 717.816 290.18 719.078 291.188L729.702 299.674C730.964 300.682 732.805 300.475 733.814 299.211L735.539 297.051C736.549 295.787 736.344 293.946 735.082 292.938Z" fill="#437CC0"/>
<path d="M799.445 246.574L768.303 221.701C767.041 220.693 765.2 220.9 764.191 222.164L759.486 228.054C758.477 229.318 758.682 231.159 759.944 232.167L791.086 257.04C792.348 258.047 794.189 257.84 795.198 256.577L799.903 250.686C800.912 249.423 800.707 247.581 799.445 246.574Z" fill="#F1F2F2"/>
<path d="M757.231 304.114L804.094 245.438C805.103 244.175 804.898 242.334 803.637 241.326L772.494 216.453C771.232 215.445 769.392 215.653 768.383 216.916L721.519 275.592C720.51 276.855 720.715 278.696 721.977 279.704L753.119 304.577C754.381 305.585 756.222 305.378 757.231 304.114Z" fill="#F1F2F2"/>
<path d="M813.398 202.57L811.099 200.733C809.94 199.807 808.249 199.998 807.323 201.158L800.05 210.263C799.124 211.423 799.312 213.114 800.471 214.039L802.77 215.876C803.929 216.802 805.62 216.611 806.546 215.451L813.819 206.346C814.745 205.186 814.557 203.495 813.398 202.57Z" fill="#09090A"/>
<path d="M811.256 202.892C815.31 206.129 820.178 206.772 822.13 204.328C824.082 201.884 822.379 197.278 818.325 194.041C814.272 190.803 809.403 190.16 807.451 192.604C805.499 195.048 807.203 199.654 811.256 202.892Z" fill="#A1A6B2"/>
<path d="M778.435 209.015L809.57 233.882C810.832 234.889 811.037 236.731 810.028 237.994L803.502 246.165L767.797 217.648L774.323 209.477C775.332 208.214 777.173 208.007 778.435 209.015Z" fill="#437CC0"/>
<path d="M750.062 308.404L718.927 283.537C717.665 282.529 717.46 280.688 718.469 279.425L724.995 271.254L760.7 299.771L754.174 307.941C753.165 309.205 751.324 309.412 750.062 308.404Z" fill="#437CC0"/>
<path d="M807.917 192.021L822.588 203.739L819.961 207.028C819.203 207.978 817.825 208.126 816.884 207.374L805.632 198.388C804.684 197.63 804.538 196.252 805.29 195.31L807.917 192.021Z" fill="#F1F2F2"/>
<path d="M803.72 210.169L817.003 220.778C818.264 221.786 818.469 223.627 817.46 224.891L810.003 234.228L792.151 219.969L799.608 210.632C800.617 209.369 802.458 209.162 803.72 210.169Z" fill="#437CC0"/>
<path d="M763.426 246.947L757.699 242.373C756.594 241.49 754.982 241.672 754.098 242.778L735.679 265.841C734.795 266.947 734.974 268.56 736.08 269.442L741.806 274.016C742.911 274.899 744.524 274.717 745.407 273.611L763.827 250.549C764.711 249.442 764.531 247.83 763.426 246.947Z" fill="#1E1D2A"/>
<path d="M740.313 274.844L735.602 271.081C735.111 270.689 734.395 270.77 734.003 271.261L732.725 272.861C732.333 273.352 732.412 274.068 732.903 274.46L737.614 278.223C738.105 278.615 738.821 278.534 739.213 278.043L740.491 276.443C740.884 275.952 740.804 275.236 740.313 274.844Z" fill="#1E1D2A"/>
<path d="M810.829 227.896C811.357 228.551 812.218 228.883 813.046 228.687C813.046 228.687 813.046 228.687 813.06 228.686C813.709 228.531 814.073 228.442 814.521 228.188C814.77 228.044 815.223 227.769 815.591 227.231C815.989 226.642 816.047 226.064 816.09 225.657C816.12 225.314 816.196 224.468 815.771 223.591C815.504 223.022 815.044 222.618 814.148 221.841C813.5 221.275 813.287 221.251 812.67 220.66C812.19 220.204 811.866 219.798 811.714 219.591C811.236 218.964 810.952 218.432 810.902 218.342C809.72 216.162 801.427 204.726 801.427 204.726C801.427 204.726 796.787 198.731 792.156 191.958C790.912 190.132 789.541 188.388 788.361 186.528C788.229 186.325 787.889 185.771 787.338 185.098C787.149 184.875 786.561 184.172 785.656 183.376C784.714 182.55 783.858 182.013 783.4 181.745C782.752 181.362 781.121 180.464 778.829 179.98C777.972 179.798 776.729 179.747 774.229 179.661C773.457 179.632 772.924 179.549 771.806 179.771C771.094 179.912 770.183 180.164 769.895 180.265C769.659 180.346 768.94 180.603 767.59 181.313C766.993 181.632 766.355 182.017 765.074 182.794C764.934 182.878 764.706 183.026 764.424 183.241C764.286 183.352 763.949 183.621 763.567 184.038C763.282 184.349 763.1 184.608 762.988 184.764C762.892 184.883 762.811 185.015 762.256 185.955C761.935 186.494 761.913 186.538 761.874 186.617C761.808 186.76 761.622 187.162 761.501 187.727C761.485 187.824 761.413 188.159 761.388 188.604C761.354 189.213 761.346 189.514 761.491 189.837C761.729 190.382 762.226 190.632 762.354 190.686C762.433 190.725 763.041 190.99 763.676 190.762C764.167 190.591 764.214 190.286 764.935 189.491C765.542 188.824 766.092 188.394 766.412 188.147C766.913 187.764 767.303 187.537 767.929 187.167C768.739 186.688 769.168 186.442 769.816 186.213C770.307 186.042 770.726 185.961 771.032 185.899C771.398 185.824 771.906 185.74 772.521 185.704C772.663 185.695 773.305 185.657 774.156 185.725C775.02 185.791 775.689 185.933 775.982 185.995C776.715 186.165 777.93 186.45 779.259 187.266C779.391 187.347 779.86 187.648 780.521 188.213C781.941 189.42 782.845 190.693 783.836 192.207C784.918 193.855 785.458 194.678 786.066 195.801C787.3 198.084 793.448 206.325 810.829 227.896Z" fill="#437CC0"/>
<path d="M386.934 191.149L382.062 178.207L289.86 156.772C289.321 156.647 288.782 156.982 288.657 157.521L254.136 306.014C254.01 306.553 254.346 307.091 254.884 307.217L361.065 331.901C361.604 332.027 362.143 331.691 362.268 331.153L391.807 204.09L386.934 191.149Z" fill="#F8E4B0"/>
<g filter="url(#filter5_d_1_8863)">
<path d="M378.596 196.187L391.807 204.09L382.062 178.207L378.134 195.101C378.036 195.525 378.222 195.964 378.596 196.187Z" fill="#FFF5DB"/>
</g>
<path d="M344.434 220.723L289.762 208.013L289.265 210.151L343.937 222.861L344.434 220.723Z" fill="#D0C1AA"/>
<path d="M342.946 227.126L288.273 214.416L287.776 216.554L342.449 229.264L342.946 227.126Z" fill="#D0C1AA"/>
<path d="M341.434 233.628L286.761 220.918L286.264 223.057L340.936 235.767L341.434 233.628Z" fill="#D0C1AA"/>
<path d="M367.586 254.13L283.5 234.582L283.003 236.721L367.089 256.269L367.586 254.13Z" fill="#D0C1AA"/>
<path d="M364.916 265.614L280.831 246.066L280.333 248.205L364.419 267.753L364.916 265.614Z" fill="#D0C1AA"/>
<path d="M362.245 277.098L278.16 257.55L277.663 259.689L361.748 279.237L362.245 277.098Z" fill="#D0C1AA"/>
<path d="M359.575 288.582L275.49 269.034L274.993 271.173L359.078 290.721L359.575 288.582Z" fill="#D0C1AA"/>
<path d="M356.745 300.028L272.66 280.48L272.162 282.619L356.248 302.167L356.745 300.028Z" fill="#D0C1AA"/>
<path fill-rule="evenodd" clip-rule="evenodd" d="M316.125 192.949C314.733 198.939 308.748 202.665 302.759 201.273C296.77 199.88 293.043 193.896 294.435 187.907C295.828 181.917 301.812 178.191 307.801 179.583C313.791 180.976 317.517 186.96 316.125 192.949ZM303.683 191.423L302.414 196.881L305.006 197.483L306.275 192.025L311.733 193.294L312.335 190.702L306.878 189.433L308.147 183.975L305.554 183.372L304.286 188.83L298.827 187.562L298.224 190.154L303.683 191.423Z" fill="#2B2A2A"/>
<g filter="url(#filter6_d_1_8863)">
<path d="M341.399 215.063L333.711 203.569L239.05 203.666C238.497 203.667 238.049 204.116 238.049 204.669L238.206 357.122C238.206 357.675 238.655 358.123 239.208 358.123L348.221 358.011C348.774 358.01 349.222 357.561 349.221 357.008L349.088 226.557L341.399 215.063Z" fill="#F8E4B0"/>
<g filter="url(#filter7_d_1_8863)">
<path d="M334.425 221.866L349.088 226.557L333.711 203.569L333.729 220.913C333.729 221.349 334.01 221.734 334.425 221.866Z" fill="#FFF5DB"/>
</g>
<path d="M306.739 253.528L250.608 253.585L250.611 255.781L306.741 255.723L306.739 253.528Z" fill="#D0C1AA"/>
<path d="M306.745 260.101L250.615 260.159L250.617 262.354L306.748 262.297L306.745 260.101Z" fill="#D0C1AA"/>
<path d="M306.753 266.777L250.623 266.834L250.625 269.03L306.756 268.972L306.753 266.777Z" fill="#D0C1AA"/>
<path d="M336.882 280.793L250.555 280.882L250.557 283.077L336.884 282.989L336.882 280.793Z" fill="#D0C1AA"/>
<path d="M336.894 292.584L250.566 292.672L250.569 294.868L336.896 294.779L336.894 292.584Z" fill="#D0C1AA"/>
<path d="M336.906 304.374L250.578 304.463L250.58 306.659L336.908 306.57L336.906 304.374Z" fill="#D0C1AA"/>
<path d="M336.918 316.164L250.59 316.253L250.593 318.449L336.92 318.36L336.918 316.164Z" fill="#D0C1AA"/>
<path d="M336.765 327.954L250.437 328.043L250.439 330.239L336.767 330.15L336.765 327.954Z" fill="#D0C1AA"/>
<path fill-rule="evenodd" clip-rule="evenodd" d="M272.858 232.918C272.864 239.067 267.884 244.057 261.735 244.064C255.586 244.07 250.596 239.09 250.59 232.941C250.583 226.792 255.563 221.802 261.712 221.796C267.861 221.789 272.851 226.769 272.858 232.918ZM260.394 234.262L260.4 239.865L263.061 239.862L263.055 234.259L268.659 234.253L268.656 231.592L263.053 231.598L263.047 225.994L260.386 225.996L260.391 231.6L254.787 231.606L254.79 234.268L260.394 234.262Z" fill="#2B2A2A"/>
</g>
<g filter="url(#filter8_bdd_1_8863)">
<path d="M265.737 632.522L132.774 305.849C131.941 303.803 132.924 301.469 134.97 300.637L311.569 228.757C312.603 228.336 313.766 228.366 314.777 228.841L397.399 267.619C398.41 268.094 399.572 268.124 400.606 267.703L623.514 176.975C625.56 176.142 627.894 177.126 628.727 179.172L735.436 441.343C736.269 443.389 735.286 445.723 733.24 446.556L270.95 634.719C268.904 635.552 266.57 634.568 265.737 632.522Z" fill="#D0C1AA"/>
</g>
<defs>
<filter id="filter0_bdd_1_8863" x="0.513672" y="328.19" width="348.312" height="264.374" filterUnits="userSpaceOnUse" color-interpolation-filters="sRGB">
<feFlood flood-opacity="0" result="BackgroundImageFix"/>
<feGaussianBlur in="BackgroundImageFix" stdDeviation="4"/>
<feComposite in2="SourceAlpha" operator="in" result="effect1_backgroundBlur_1_8863"/>
<feColorMatrix in="SourceAlpha" type="matrix" values="0 0 0 0 0 0 0 0 0 0 0 0 0 0 0 0 0 0 127 0" result="hardAlpha"/>
<feMorphology radius="4" operator="dilate" in="SourceAlpha" result="effect2_dropShadow_1_8863"/>
<feOffset dy="12"/>
<feGaussianBlur stdDeviation="16"/>
<feComposite in2="hardAlpha" operator="out"/>
<feColorMatrix type="matrix" values="0 0 0 0 0 0 0 0 0 0 0 0 0 0 0 0 0 0 0.15 0"/>
<feBlend mode="normal" in2="effect1_backgroundBlur_1_8863" result="effect2_dropShadow_1_8863"/>
<feColorMatrix in="SourceAlpha" type="matrix" values="0 0 0 0 0 0 0 0 0 0 0 0 0 0 0 0 0 0 127 0" result="hardAlpha"/>
<feOffset dy="1"/>
<feGaussianBlur stdDeviation="4"/>
<feComposite in2="hardAlpha" operator="out"/>
<feColorMatrix type="matrix" values="0 0 0 0 0 0 0 0 0 0 0 0 0 0 0 0 0 0 0.15 0"/>
<feBlend mode="normal" in2="effect2_dropShadow_1_8863" result="effect3_dropShadow_1_8863"/>
<feBlend mode="normal" in="SourceGraphic" in2="effect3_dropShadow_1_8863" result="shape"/>
</filter>
<filter id="filter1_bdd_1_8863" x="280.947" y="89.4741" width="424.705" height="415.943" filterUnits="userSpaceOnUse" color-interpolation-filters="sRGB">
<feFlood flood-opacity="0" result="BackgroundImageFix"/>
<feGaussianBlur in="BackgroundImageFix" stdDeviation="4"/>
<feComposite in2="SourceAlpha" operator="in" result="effect1_backgroundBlur_1_8863"/>
<feColorMatrix in="SourceAlpha" type="matrix" values="0 0 0 0 0 0 0 0 0 0 0 0 0 0 0 0 0 0 127 0" result="hardAlpha"/>
<feMorphology radius="4" operator="dilate" in="SourceAlpha" result="effect2_dropShadow_1_8863"/>
<feOffset dy="12"/>
<feGaussianBlur stdDeviation="16"/>
<feComposite in2="hardAlpha" operator="out"/>
<feColorMatrix type="matrix" values="0 0 0 0 0 0 0 0 0 0 0 0 0 0 0 0 0 0 0.15 0"/>
<feBlend mode="normal" in2="effect1_backgroundBlur_1_8863" result="effect2_dropShadow_1_8863"/>
<feColorMatrix in="SourceAlpha" type="matrix" values="0 0 0 0 0 0 0 0 0 0 0 0 0 0 0 0 0 0 127 0" result="hardAlpha"/>
<feOffset dy="1"/>
<feGaussianBlur stdDeviation="4"/>
<feComposite in2="hardAlpha" operator="out"/>
<feColorMatrix type="matrix" values="0 0 0 0 0 0 0 0 0 0 0 0 0 0 0 0 0 0 0.15 0"/>
<feBlend mode="normal" in2="effect2_dropShadow_1_8863" result="effect3_dropShadow_1_8863"/>
<feBlend mode="normal" in="SourceGraphic" in2="effect3_dropShadow_1_8863" result="shape"/>
</filter>
<filter id="filter2_d_1_8863" x="151.179" y="126.969" width="287.696" height="230.808" filterUnits="userSpaceOnUse" color-interpolation-filters="sRGB">
<feFlood flood-opacity="0" result="BackgroundImageFix"/>
<feColorMatrix in="SourceAlpha" type="matrix" values="0 0 0 0 0 0 0 0 0 0 0 0 0 0 0 0 0 0 127 0" result="hardAlpha"/>
<feOffset dy="2"/>
<feGaussianBlur stdDeviation="4"/>
<feComposite in2="hardAlpha" operator="out"/>
<feColorMatrix type="matrix" values="0 0 0 0 0 0 0 0 0 0 0 0 0 0 0 0 0 0 0.5 0"/>
<feBlend mode="normal" in2="BackgroundImageFix" result="effect1_dropShadow_1_8863"/>
<feBlend mode="normal" in="SourceGraphic" in2="effect1_dropShadow_1_8863" result="shape"/>
</filter>
<filter id="filter3_bdd_1_8863" x="167.934" y="202.401" width="613.788" height="268.09" filterUnits="userSpaceOnUse" color-interpolation-filters="sRGB">
<feFlood flood-opacity="0" result="BackgroundImageFix"/>
<feGaussianBlur in="BackgroundImageFix" stdDeviation="3.6"/>
<feComposite in2="SourceAlpha" operator="in" result="effect1_backgroundBlur_1_8863"/>
<feColorMatrix in="SourceAlpha" type="matrix" values="0 0 0 0 0 0 0 0 0 0 0 0 0 0 0 0 0 0 127 0" result="hardAlpha"/>
<feMorphology radius="3.6" operator="dilate" in="SourceAlpha" result="effect2_dropShadow_1_8863"/>
<feOffset dy="10.8"/>
<feGaussianBlur stdDeviation="14.4"/>
<feComposite in2="hardAlpha" operator="out"/>
<feColorMatrix type="matrix" values="0 0 0 0 0 0 0 0 0 0 0 0 0 0 0 0 0 0 0.15 0"/>
<feBlend mode="normal" in2="effect1_backgroundBlur_1_8863" result="effect2_dropShadow_1_8863"/>
<feColorMatrix in="SourceAlpha" type="matrix" values="0 0 0 0 0 0 0 0 0 0 0 0 0 0 0 0 0 0 127 0" result="hardAlpha"/>
<feOffset dy="0.9"/>
<feGaussianBlur stdDeviation="3.6"/>
<feComposite in2="hardAlpha" operator="out"/>
<feColorMatrix type="matrix" values="0 0 0 0 0 0 0 0 0 0 0 0 0 0 0 0 0 0 0.15 0"/>
<feBlend mode="normal" in2="effect2_dropShadow_1_8863" result="effect3_dropShadow_1_8863"/>
<feBlend mode="normal" in="SourceGraphic" in2="effect3_dropShadow_1_8863" result="shape"/>
</filter>
<filter id="filter4_bdd_1_8863" x="287.772" y="136.209" width="374.041" height="258.841" filterUnits="userSpaceOnUse" color-interpolation-filters="sRGB">
<feFlood flood-opacity="0" result="BackgroundImageFix"/>
<feGaussianBlur in="BackgroundImageFix" stdDeviation="4"/>
<feComposite in2="SourceAlpha" operator="in" result="effect1_backgroundBlur_1_8863"/>
<feColorMatrix in="SourceAlpha" type="matrix" values="0 0 0 0 0 0 0 0 0 0 0 0 0 0 0 0 0 0 127 0" result="hardAlpha"/>
<feMorphology radius="4" operator="dilate" in="SourceAlpha" result="effect2_dropShadow_1_8863"/>
<feOffset dy="12"/>
<feGaussianBlur stdDeviation="16"/>
<feComposite in2="hardAlpha" operator="out"/>
<feColorMatrix type="matrix" values="0 0 0 0 0 0 0 0 0 0 0 0 0 0 0 0 0 0 0.15 0"/>
<feBlend mode="normal" in2="effect1_backgroundBlur_1_8863" result="effect2_dropShadow_1_8863"/>
<feColorMatrix in="SourceAlpha" type="matrix" values="0 0 0 0 0 0 0 0 0 0 0 0 0 0 0 0 0 0 127 0" result="hardAlpha"/>
<feOffset dy="1"/>
<feGaussianBlur stdDeviation="4"/>
<feComposite in2="hardAlpha" operator="out"/>
<feColorMatrix type="matrix" values="0 0 0 0 0 0 0 0 0 0 0 0 0 0 0 0 0 0 0.15 0"/>
<feBlend mode="normal" in2="effect2_dropShadow_1_8863" result="effect3_dropShadow_1_8863"/>
<feBlend mode="normal" in="SourceGraphic" in2="effect3_dropShadow_1_8863" result="shape"/>
</filter>
<filter id="filter5_d_1_8863" x="375.604" y="175.703" width="19.7089" height="31.893" filterUnits="userSpaceOnUse" color-interpolation-filters="sRGB">
<feFlood flood-opacity="0" result="BackgroundImageFix"/>
<feColorMatrix in="SourceAlpha" type="matrix" values="0 0 0 0 0 0 0 0 0 0 0 0 0 0 0 0 0 0 127 0" result="hardAlpha"/>
<feOffset dx="0.500806" dy="0.500806"/>
<feGaussianBlur stdDeviation="1.50242"/>
<feComposite in2="hardAlpha" operator="out"/>
<feColorMatrix type="matrix" values="0 0 0 0 0 0 0 0 0 0 0 0 0 0 0 0 0 0 0.1 0"/>
<feBlend mode="normal" in2="BackgroundImageFix" result="effect1_dropShadow_1_8863"/>
<feBlend mode="normal" in="SourceGraphic" in2="effect1_dropShadow_1_8863" result="shape"/>
</filter>
<filter id="filter6_d_1_8863" x="234.048" y="203.553" width="119.174" height="162.57" filterUnits="userSpaceOnUse" color-interpolation-filters="sRGB">
<feFlood flood-opacity="0" result="BackgroundImageFix"/>
<feColorMatrix in="SourceAlpha" type="matrix" values="0 0 0 0 0 0 0 0 0 0 0 0 0 0 0 0 0 0 127 0" result="hardAlpha"/>
<feOffset dy="4"/>
<feGaussianBlur stdDeviation="2"/>
<feComposite in2="hardAlpha" operator="out"/>
<feColorMatrix type="matrix" values="0 0 0 0 0 0 0 0 0 0 0 0 0 0 0 0 0 0 0.25 0"/>
<feBlend mode="normal" in2="BackgroundImageFix" result="effect1_dropShadow_1_8863"/>
<feBlend mode="normal" in="SourceGraphic" in2="effect1_dropShadow_1_8863" result="shape"/>
</filter>
<filter id="filter7_d_1_8863" x="331.207" y="201.065" width="21.3861" height="28.9984" filterUnits="userSpaceOnUse" color-interpolation-filters="sRGB">
<feFlood flood-opacity="0" result="BackgroundImageFix"/>
<feColorMatrix in="SourceAlpha" type="matrix" values="0 0 0 0 0 0 0 0 0 0 0 0 0 0 0 0 0 0 127 0" result="hardAlpha"/>
<feOffset dx="0.500806" dy="0.500806"/>
<feGaussianBlur stdDeviation="1.50242"/>
<feComposite in2="hardAlpha" operator="out"/>
<feColorMatrix type="matrix" values="0 0 0 0 0 0 0 0 0 0 0 0 0 0 0 0 0 0 0.1 0"/>
<feBlend mode="normal" in2="BackgroundImageFix" result="effect1_dropShadow_1_8863"/>
<feBlend mode="normal" in="SourceGraphic" in2="effect1_dropShadow_1_8863" result="shape"/>
</filter>
<filter id="filter8_bdd_1_8863" x="96.4775" y="152.679" width="675.255" height="530.336" filterUnits="userSpaceOnUse" color-interpolation-filters="sRGB">
<feFlood flood-opacity="0" result="BackgroundImageFix"/>
<feGaussianBlur in="BackgroundImageFix" stdDeviation="4"/>
<feComposite in2="SourceAlpha" operator="in" result="effect1_backgroundBlur_1_8863"/>
<feColorMatrix in="SourceAlpha" type="matrix" values="0 0 0 0 0 0 0 0 0 0 0 0 0 0 0 0 0 0 127 0" result="hardAlpha"/>
<feMorphology radius="4" operator="dilate" in="SourceAlpha" result="effect2_dropShadow_1_8863"/>
<feOffset dy="12"/>
<feGaussianBlur stdDeviation="16"/>
<feComposite in2="hardAlpha" operator="out"/>
<feColorMatrix type="matrix" values="0 0 0 0 0 0 0 0 0 0 0 0 0 0 0 0 0 0 0.15 0"/>
<feBlend mode="normal" in2="effect1_backgroundBlur_1_8863" result="effect2_dropShadow_1_8863"/>
<feColorMatrix in="SourceAlpha" type="matrix" values="0 0 0 0 0 0 0 0 0 0 0 0 0 0 0 0 0 0 127 0" result="hardAlpha"/>
<feOffset dy="1"/>
<feGaussianBlur stdDeviation="4"/>
<feComposite in2="hardAlpha" operator="out"/>
<feColorMatrix type="matrix" values="0 0 0 0 0 0 0 0 0 0 0 0 0 0 0 0 0 0 0.15 0"/>
<feBlend mode="normal" in2="effect2_dropShadow_1_8863" result="effect3_dropShadow_1_8863"/>
<feBlend mode="normal" in="SourceGraphic" in2="effect3_dropShadow_1_8863" result="shape"/>
</filter>
<linearGradient id="paint0_linear_1_8863" x1="626.662" y1="418.305" x2="671.734" y2="361.872" gradientUnits="userSpaceOnUse">
<stop offset="0.13" stop-color="white"/>
<stop offset="1" stop-color="#231F20"/>
</linearGradient>
</defs>
</svg>
