<svg width="328" height="237" viewBox="0 0 328 237" fill="none" xmlns="http://www.w3.org/2000/svg">
<mask id="mask0_1_7659" style="mask-type:alpha" maskUnits="userSpaceOnUse" x="0" y="0" width="328" height="237">
<rect width="328" height="237" fill="#D9D9D9"/>
</mask>
<g mask="url(#mask0_1_7659)">
<path d="M13.7813 463.506L-33.7509 317.382C-34.4343 315.281 -33.2853 313.024 -31.1845 312.341L47.0614 286.888C48.123 286.543 49.2807 286.657 50.2545 287.203L84.2516 306.259C85.2254 306.805 86.3831 306.919 87.4447 306.574L187 274.189C189.101 273.506 191.358 274.655 192.041 276.756L229.918 393.199C230.602 395.3 229.453 397.557 227.352 398.24L18.8225 466.072C16.7217 466.755 14.4647 465.606 13.7813 463.506Z" fill="#434343"/>
<g filter="url(#filter1_bdd_1_7659)">
<rect x="244.348" y="205.355" width="254.729" height="192.723" rx="6" transform="rotate(-49.9667 244.348 205.355)" fill="#F8F8F8"/>
<rect x="245.052" y="205.294" width="253.729" height="191.723" rx="5.5" transform="rotate(-49.9667 245.052 205.294)" stroke="#B9B6AA"/>
</g>
<line x1="285.424" y1="208.568" x2="384.868" y2="292.11" stroke="#F8F8F8"/>
<rect x="352.184" y="282.815" width="69.5477" height="7.54132" transform="rotate(-139.967 352.184 282.815)" fill="#F8F8F8"/>
<rect x="171.707" y="157.023" width="313.805" height="208.226" rx="3" transform="rotate(-27.2557 171.707 157.023)" fill="#474747"/>
<path d="M230.344 137.266C228.398 138 226.335 137.122 225.551 135.045C224.802 133.062 225.681 131.031 227.646 130.289C229.349 129.646 230.947 130.198 231.937 131.491L230.262 132.123C229.799 131.518 228.987 131.237 228.089 131.576C227.004 131.985 226.481 133.091 227.024 134.532C227.512 135.823 228.606 136.543 229.954 136.034C230.945 135.66 231.35 134.834 231.223 133.931L229.277 134.665L228.849 133.533L232.311 132.227C233.221 134.384 232.486 136.457 230.344 137.266ZM236.09 134.937L234.668 135.473L232.133 128.756L234.762 127.764C236.455 127.125 237.734 127.54 238.26 128.934C238.603 129.841 238.313 130.773 237.479 131.452L240.188 133.39L238.495 134.029L236.082 132.225L235.193 132.56L236.09 134.937ZM234 129.398L234.752 131.391L235.893 130.96C236.754 130.635 237.085 130.125 236.838 129.47C236.588 128.806 236.002 128.642 235.141 128.967L234 129.398ZM244.13 132.063C242.193 132.794 240.131 131.862 239.372 129.85C238.613 127.839 239.552 125.795 241.489 125.064C243.435 124.33 245.499 125.24 246.258 127.251C247.017 129.263 246.076 131.328 244.13 132.063ZM243.65 130.79C244.885 130.324 245.255 129.04 244.789 127.806C244.323 126.571 243.204 125.871 241.969 126.337C240.743 126.799 240.366 128.064 240.832 129.299C241.298 130.534 242.424 131.253 243.65 130.79ZM251.485 121.452L253.057 125.615C253.657 127.206 253.063 128.691 251.314 129.351C249.536 130.022 248.128 129.292 247.527 127.702L245.956 123.539L247.378 123.002L248.96 127.193C249.274 128.026 249.888 128.435 250.833 128.079C251.769 127.726 251.959 127.013 251.645 126.18L250.063 121.988L251.485 121.452ZM257.034 124.531L255.976 124.93L256.803 127.119L255.381 127.656L252.845 120.938L255.325 120.003C256.962 119.385 258.275 119.776 258.826 121.236C259.376 122.695 258.671 123.913 257.034 124.531ZM255.767 121.204L254.719 121.599L255.524 123.732L256.572 123.337C257.377 123.033 257.667 122.443 257.416 121.778C257.166 121.114 256.572 120.9 255.767 121.204ZM266.467 123.632C264.577 124.345 262.52 123.369 261.775 121.395C261.033 119.43 261.936 117.347 263.826 116.634C265.594 115.966 267.424 116.622 268.307 118.256L266.801 118.824C266.278 117.921 265.279 117.539 264.325 117.899C263.174 118.333 262.74 119.534 263.234 120.844C263.732 122.163 264.855 122.787 266.006 122.352C266.96 121.992 267.445 121.04 267.249 120.012L268.756 119.444C269.179 121.272 268.235 122.964 266.467 123.632ZM273.888 120.831C271.951 121.562 269.889 120.63 269.13 118.619C268.371 116.607 269.31 114.564 271.246 113.833C273.192 113.098 275.256 114.008 276.016 116.02C276.775 118.031 275.834 120.097 273.888 120.831ZM273.407 119.559C274.642 119.093 275.013 117.809 274.547 116.574C274.081 115.339 272.961 114.639 271.726 115.105C270.501 115.568 270.123 116.833 270.589 118.068C271.055 119.303 272.182 120.021 273.407 119.559ZM281.318 117.866L277.874 114.067L279.559 118.53L278.268 119.018L275.732 112.3L277.435 111.657L281.26 115.9L281.336 110.185L283.039 109.542L285.574 116.26L284.283 116.747L282.585 112.247L282.506 117.418L281.318 117.866ZM288.6 112.616L287.543 113.016L288.369 115.205L286.947 115.741L284.412 109.024L286.891 108.088C288.528 107.47 289.841 107.862 290.392 109.321C290.943 110.781 290.238 111.999 288.6 112.616ZM287.334 109.289L286.286 109.685L287.091 111.818L288.139 111.422C288.944 111.119 289.234 110.528 288.983 109.864C288.732 109.2 288.138 108.986 287.334 109.289ZM297.075 111.919L296.026 110.669L293.416 111.654L293.445 113.289L292.014 113.829L292.004 106.158L293.558 105.572L298.6 111.343L297.075 111.919ZM293.33 107.432L293.391 110.37L295.206 109.685L293.33 107.432ZM300.841 110.498L299.419 111.034L296.883 104.317L299.512 103.325C301.206 102.686 302.485 103.101 303.011 104.495C303.353 105.402 303.064 106.334 302.23 107.013L304.939 108.951L303.245 109.59L300.833 107.786L299.944 108.121L300.841 110.498ZM298.75 104.959L299.502 106.952L300.644 106.521C301.505 106.196 301.836 105.686 301.589 105.031C301.338 104.367 300.752 104.203 299.892 104.528L298.75 104.959ZM307.245 108.08L305.823 108.617L303.288 101.9L304.71 101.363L307.245 108.08ZM312.987 103.53C313.47 104.812 312.78 106.098 311.096 106.734C309.403 107.373 308.003 106.864 307.363 105.481L308.804 104.937C309.121 105.662 309.778 105.959 310.648 105.631C311.368 105.359 311.763 104.847 311.558 104.304C311.399 103.883 310.976 103.754 310.363 103.857L309.178 104.059C308.084 104.247 307.09 103.992 306.67 102.878C306.218 101.681 306.95 100.421 308.4 99.8738C309.907 99.3053 311.342 99.7681 311.966 101.136L310.525 101.68C310.213 100.996 309.547 100.702 308.836 100.971C308.143 101.232 307.899 101.773 308.075 102.241C308.248 102.7 308.743 102.737 309.265 102.647L310.504 102.447C311.771 102.236 312.612 102.538 312.987 103.53ZM317.734 104.282C315.797 105.013 313.735 104.081 312.976 102.07C312.217 100.058 313.156 98.0148 315.092 97.2839C317.038 96.5494 319.103 97.4591 319.862 99.4706C320.621 101.482 319.68 103.548 317.734 104.282ZM317.253 103.01C318.488 102.543 318.859 101.26 318.393 100.025C317.927 98.79 316.808 98.0901 315.573 98.5563C314.347 99.0188 313.969 100.284 314.435 101.519C314.902 102.754 316.028 103.472 317.253 103.01ZM326.492 100.816L321.645 97.2904L323.414 101.978L322.114 102.468L319.578 95.751L321.113 95.1719L325.722 98.52L324.041 94.0667L325.351 93.5723L327.886 100.29L326.492 100.816ZM334.251 98.0478C332.361 98.7611 330.304 97.7847 329.559 95.8106C328.817 93.8459 329.72 91.763 331.61 91.0497C333.378 90.3823 335.207 91.0385 336.091 92.6717L334.585 93.2402C334.062 92.3366 333.063 91.9548 332.109 92.315C330.958 92.7494 330.524 93.95 331.018 95.2598C331.516 96.5789 332.639 97.2027 333.789 96.7684C334.744 96.4082 335.229 95.4556 335.033 94.4284L336.54 93.8599C336.962 95.6883 336.019 97.3804 334.251 98.0478ZM340 95.7177L338.578 96.2544L336.042 89.537L337.464 89.0002L338.464 91.6479L341.373 90.5497L340.374 87.902L341.796 87.3653L344.332 94.0827L342.909 94.6195L341.836 91.7753L338.926 92.8735L340 95.7177ZM350.204 91.8662L349.155 90.6161L346.545 91.6013L346.574 93.2363L345.143 93.7766L345.133 86.1057L346.686 85.5195L351.729 91.2906L350.204 91.8662ZM346.459 87.3798L346.52 90.3174L348.335 89.6324L346.459 87.3798ZM353.969 90.445L352.547 90.9818L350.012 84.2643L352.641 83.272C354.334 82.6329 355.613 83.048 356.14 84.442C356.482 85.3495 356.193 86.2818 355.358 86.9601L358.067 88.8984L356.374 89.5375L353.961 87.7332L353.073 88.0686L353.969 90.445ZM351.879 84.9064L352.631 86.8992L353.773 86.4684C354.633 86.1435 354.965 85.6337 354.717 84.9788C354.467 84.3145 353.881 84.1507 353.02 84.4756L351.879 84.9064ZM361.846 87.4723L360.424 88.009L358.372 82.5733L356.258 83.3714L355.774 82.0896L361.434 79.9532L361.918 81.235L359.794 82.0366L361.846 87.4723ZM369.048 82.3702C369.532 83.652 368.842 84.9385 367.158 85.5742C365.464 86.2133 364.065 85.7048 363.425 84.3216L364.866 83.7778C365.182 84.5028 365.84 84.7998 366.71 84.4714C367.43 84.1995 367.824 83.6872 367.62 83.1446C367.461 82.7236 367.038 82.5945 366.425 82.6977L365.24 82.8992C364.146 83.0876 363.152 82.8322 362.731 81.7189C362.279 80.5213 363.012 79.2616 364.462 78.7143C365.968 78.1457 367.404 78.6085 368.027 79.9766L366.586 80.5204C366.275 79.8363 365.608 79.5428 364.897 79.8112C364.205 80.0725 363.96 80.6137 364.137 81.0815C364.31 81.54 364.805 81.5775 365.327 81.4875L366.566 81.287C367.833 81.076 368.674 81.3785 369.048 82.3702Z" fill="#ADADAD"/>
<line x1="207.065" y1="136.593" x2="263.564" y2="286.285" stroke="#B3B3B3"/>
<line x1="512.438" y1="192.886" x2="263.274" y2="286.929" stroke="#B3B3B3"/>
<rect x="234.156" y="256.559" width="85.6771" height="9.29029" transform="rotate(-110.678 234.156 256.559)" fill="#EBEBEB"/>
<path d="M259.927 222.525C259.732 222.009 259.993 221.432 260.51 221.237L273.125 216.475C273.642 216.28 274.219 216.541 274.414 217.058L295.931 274.067L281.445 279.535L259.927 222.525Z" fill="#D9D9D9"/>
<path d="M258.595 163.447C258.4 162.931 258.661 162.354 259.178 162.159L272.759 157.033C273.275 156.838 273.852 157.098 274.047 157.615L315.248 266.776L299.796 272.608L258.595 163.447Z" fill="#C2C2C2"/>
<path d="M293.22 196.721C293.025 196.204 293.286 195.627 293.803 195.432L307.384 190.306C307.9 190.111 308.477 190.372 308.672 190.889L334.564 259.487L319.112 265.319L293.22 196.721Z" fill="#AEAEAE"/>
<g filter="url(#filter2_d_1_7659)">
<rect x="123.93" y="103.846" width="214" height="142" rx="3" transform="rotate(5.02129 123.93 103.846)" fill="#5E5E5E"/>
<path d="M133.469 117.813L132.343 117.715L132.138 120.046L130.624 119.913L131.253 112.76L133.892 112.992C135.636 113.145 136.649 114.067 136.512 115.621C136.376 117.175 135.212 117.967 133.469 117.813ZM133.771 114.266L132.655 114.168L132.455 116.439L133.571 116.537C134.428 116.613 134.945 116.207 135.007 115.499C135.069 114.792 134.627 114.342 133.771 114.266ZM141.408 120.86L141.005 119.279L138.226 119.034L137.543 120.52L136.019 120.387L139.337 113.47L140.991 113.616L143.032 121.003L141.408 120.86ZM139.979 115.193L138.76 117.867L140.692 118.037L139.979 115.193ZM145.417 121.212L143.903 121.079L144.532 113.927L147.331 114.173C149.134 114.331 150.106 115.26 149.976 116.744C149.891 117.71 149.226 118.425 148.18 118.674L149.781 121.596L147.977 121.437L146.586 118.765L145.64 118.682L145.417 121.212ZM145.935 115.315L145.749 117.437L146.964 117.544C147.881 117.624 148.4 117.308 148.462 116.611C148.524 115.904 148.067 115.502 147.151 115.422L145.935 115.315ZM153.804 121.949L152.289 121.816L152.798 116.028L150.547 115.831L150.666 114.466L156.693 114.995L156.573 116.36L154.312 116.161L153.804 121.949ZM158.482 122.36L156.968 122.227L157.596 115.075L159.111 115.208L158.482 122.36ZM163.1 122.916C161.087 122.74 159.657 120.968 159.842 118.866C160.025 116.774 161.742 115.288 163.754 115.465C165.637 115.631 167.001 117.015 167.089 118.87L165.485 118.729C165.406 117.688 164.671 116.911 163.655 116.822C162.43 116.714 161.518 117.608 161.396 119.002C161.272 120.407 162.013 121.456 163.238 121.563C164.255 121.653 165.105 121.005 165.374 119.994L166.978 120.135C166.566 121.966 164.982 123.082 163.1 122.916ZM169.29 123.31L167.776 123.177L168.404 116.024L169.919 116.157L169.29 123.31ZM173.597 121.339L172.472 121.24L172.267 123.571L170.753 123.438L171.381 116.286L174.021 116.518C175.764 116.671 176.778 117.593 176.641 119.147C176.504 120.701 175.341 121.492 173.597 121.339ZM173.899 117.792L172.783 117.694L172.584 119.965L173.7 120.063C174.556 120.139 175.074 119.732 175.136 119.025C175.198 118.318 174.756 117.867 173.899 117.792ZM181.537 124.386L181.134 122.805L178.354 122.56L177.672 124.046L176.147 123.912L179.466 116.996L181.119 117.142L183.16 124.529L181.537 124.386ZM180.107 118.719L178.889 121.393L180.821 121.562L180.107 118.719ZM188.694 125.015L185.855 119.736L185.416 124.727L184.032 124.605L184.66 117.453L186.294 117.596L188.995 122.612L189.412 117.87L190.807 117.993L190.178 125.145L188.694 125.015ZM194.847 125.555L193.332 125.422L193.841 119.635L191.59 119.437L191.71 118.072L197.736 118.602L197.616 119.966L195.355 119.768L194.847 125.555ZM205.522 126.493L204.627 121.375L202.852 126.259L201.318 126.124L200.114 118.81L201.588 118.94L202.317 123.893L204.059 119.157L205.603 119.293L206.45 124.276L208.043 119.507L209.527 119.638L207.056 126.628L205.522 126.493ZM214.68 125.973L214.564 127.288L209.753 126.865L210.381 119.713L215.123 120.129L215.008 121.444L211.78 121.161L211.648 122.665L214.577 122.922L214.462 124.227L211.533 123.97L211.383 125.683L214.68 125.973ZM220.358 127.797L215.736 127.391L216.364 120.238L217.878 120.371L217.37 126.159L220.478 126.432L220.358 127.797ZM226.02 128.294L221.398 127.888L222.026 120.736L223.54 120.869L223.032 126.656L226.14 126.93L226.02 128.294ZM229.553 126.467L226.515 126.2L226.624 124.964L229.662 125.231L229.553 126.467ZM235.911 127.045C235.794 128.37 234.75 129.061 233.176 128.923L230.377 128.677L231.005 121.525L233.695 121.761C235.199 121.893 236.066 122.652 235.958 123.877C235.9 124.535 235.485 125.03 234.819 125.303C235.591 125.652 235.98 126.258 235.911 127.045ZM233.47 122.946L232.275 122.841L232.129 124.504L233.324 124.609C234.061 124.674 234.468 124.389 234.513 123.871C234.558 123.363 234.207 123.011 233.47 122.946ZM233.328 125.824L232.023 125.71L231.856 127.602L233.161 127.717C233.978 127.789 234.438 127.468 234.491 126.86C234.541 126.292 234.145 125.896 233.328 125.824ZM241.753 128.352L241.638 129.667L236.826 129.244L237.455 122.091L242.197 122.508L242.081 123.823L238.853 123.539L238.721 125.044L241.65 125.301L241.535 126.606L238.607 126.348L238.456 128.062L241.753 128.352ZM244.323 129.902L242.809 129.769L243.438 122.617L244.952 122.75L244.323 129.902ZM250.448 130.441L247.609 125.162L247.171 130.153L245.786 130.031L246.414 122.879L248.048 123.022L250.75 128.038L251.166 123.296L252.561 123.419L251.932 130.571L250.448 130.441ZM256.657 131.137C254.585 130.955 253.107 129.269 253.302 127.057C253.487 124.946 255.16 123.496 257.252 123.68C259.065 123.84 260.266 125.029 260.598 126.624L258.814 126.468C258.659 125.721 258.05 125.116 257.093 125.032C255.938 124.93 254.987 125.7 254.852 127.234C254.731 128.608 255.406 129.732 256.84 129.858C257.896 129.951 258.619 129.382 258.896 128.513L256.824 128.331L256.93 127.125L260.615 127.449C260.5 129.788 258.939 131.337 256.657 131.137Z" fill="#474747"/>
<path d="M276.562 141.98C277.112 142.029 277.519 142.514 277.471 143.064L276.683 152.029C276.635 152.579 276.149 152.986 275.599 152.938L128.376 140.003L129.339 129.045L276.562 141.98Z" fill="#474747"/>
<path d="M293.205 162.516C293.755 162.564 294.161 163.049 294.113 163.599L293.325 172.565C293.277 173.115 292.792 173.522 292.242 173.474L126.713 158.93L127.676 147.972L293.205 162.516Z" fill="#474747"/>
<path d="M299.688 182.158C300.239 182.206 300.645 182.691 300.597 183.242L299.809 192.207C299.761 192.757 299.276 193.164 298.726 193.116L125.05 177.856L126.013 166.898L299.688 182.158Z" fill="#474747"/>
<path d="M262.215 197.939C262.765 197.987 263.172 198.472 263.123 199.023L262.336 207.988C262.287 208.538 261.802 208.945 261.252 208.897L123.388 196.784L124.35 185.826L262.215 197.939Z" fill="#474747"/>
<path d="M273.891 218.038C274.441 218.086 274.848 218.571 274.8 219.121L274.012 228.087C273.964 228.637 273.478 229.044 272.928 228.995L121.725 215.71L122.687 204.752L273.891 218.038Z" fill="#474747"/>
<path d="M278.418 237.509C278.968 237.557 279.375 238.042 279.327 238.593L278.539 247.558C278.49 248.108 278.005 248.515 277.455 248.467L120.061 234.638L121.024 223.68L278.418 237.509Z" fill="#474747"/>
</g>
<path d="M195.471 67.8103L110.435 130.632C100.548 137.936 104.113 159.533 118.399 178.87L180.17 262.485C194.456 281.823 214.052 291.577 223.939 284.273L308.975 221.452C318.862 214.148 315.297 192.55 301.011 173.213L239.24 89.598C224.954 70.2607 205.359 60.5061 195.471 67.8103Z" fill="#333132"/>
<path d="M210.79 177.509C244.159 152.857 251.367 106.012 226.888 72.8773C202.41 39.7429 155.515 32.8664 122.146 57.5183C88.7767 82.1701 81.5691 129.015 106.047 162.15C130.526 195.284 177.42 202.161 210.79 177.509Z" fill="#323232"/>
<path d="M176.617 85.0433C184.702 79.1895 186.503 68.1953 180.641 60.4872C174.779 52.7791 163.473 51.2759 155.389 57.1297C147.304 62.9835 145.502 73.9776 151.364 81.6857C157.226 89.3938 168.532 90.8971 176.617 85.0433Z" fill="white"/>
<path d="M156.343 64.3092C157.055 63.3718 157.918 62.5182 158.931 61.7848C164.318 57.8836 171.853 58.8854 175.759 64.0223C179.666 69.1592 178.465 76.4855 173.077 80.3866C167.69 84.2878 160.155 83.2861 156.249 78.1491C155.007 76.5164 154.283 74.6635 154.042 72.7691L162.796 70.1718L156.343 64.3092Z" fill="#0B0B0B"/>
<path d="M132.84 117.383C140.925 111.529 142.727 100.535 136.864 92.8271C131.002 85.119 119.696 83.6158 111.612 89.4696C103.527 95.3234 101.725 106.317 107.587 114.026C113.449 121.734 124.756 123.237 132.84 117.383Z" fill="white"/>
<path d="M112.567 96.6482C113.278 95.7108 114.141 94.8572 115.154 94.1238C120.542 90.2226 128.076 91.2244 131.983 96.3613C135.89 101.498 134.689 108.824 129.301 112.726C123.913 116.627 116.379 115.625 112.472 110.488C111.231 108.855 110.506 107.002 110.266 105.108L119.019 102.511L112.567 96.6482Z" fill="#0B0B0B"/>
<path d="M183.131 45.29L178.232 48.9094C178.143 48.9749 178.063 49.0474 177.988 49.1227C169.588 44.3676 158.938 44.5953 150.832 50.5836C140.277 58.3812 137.79 73.1706 144.843 84.3364C143.455 84.9605 142.234 85.9106 141.287 87.1021C132.698 77.0052 117.778 75.0031 107.193 82.8222C99.0948 88.8051 95.7465 98.9029 97.8101 108.322L93.1115 111.793C92.1046 112.537 91.9047 113.976 92.6652 115.005C93.4258 116.035 94.8602 116.267 95.867 115.523L99.3096 112.98C100.084 114.776 101.072 116.513 102.286 118.156C110.641 129.466 126.439 132.02 137.501 123.847C147.703 116.31 150.368 102.244 144.167 91.23C144.811 89.6742 146.188 88.5435 147.827 88.2073C156.516 97.5364 170.868 99.1971 181.139 91.6098C192.201 83.4376 194.403 67.587 186.047 56.2764C184.833 54.6339 183.463 53.1785 181.974 51.9108L185.887 49.02C186.894 48.2762 187.094 46.837 186.333 45.8075C185.573 44.778 184.138 44.5461 183.131 45.29ZM134.745 120.117C125.695 126.804 112.77 124.715 105.934 115.461C99.097 106.206 100.898 93.2386 109.949 86.5522C119 79.8659 131.924 81.9549 138.761 91.2091C145.598 100.463 143.796 113.431 134.745 120.117ZM178.384 87.8788C169.334 94.5652 156.409 92.4762 149.572 83.222C142.736 73.9678 144.537 61 153.588 54.3136C162.639 47.6273 175.563 49.7163 182.4 58.9705C189.236 68.2247 187.435 81.1925 178.384 87.8788Z" fill="#D5E802"/>
<path d="M204.628 106.217C193.902 91.6978 171.763 89.876 155.213 102.102C138.664 114.328 133.899 136.025 144.625 150.544L210.756 177.286L204.628 106.217Z" fill="#F2F2F2"/>
<path d="M211.118 177.016L204.628 106.214C193.902 91.6951 171.925 89.7535 155.575 101.832L211.118 177.016Z" fill="#CCCBCB"/>
<path d="M130.853 497.484L49.6383 194.388C49.0654 192.25 50.338 190.053 52.4778 189.486L243.682 138.835C244.758 138.55 245.903 138.726 246.843 139.32L315.359 182.618C316.306 183.217 317.461 183.391 318.543 183.097L497.823 134.478C499.96 133.899 502.161 135.165 502.734 137.303L567.868 380.386C568.439 382.52 567.173 384.713 565.039 385.285L135.752 500.312C133.618 500.884 131.424 499.618 130.853 497.484Z" fill="#D0C1AA"/>
<g filter="url(#filter3_bdd_1_7659)">
<rect x="142.301" y="159.664" width="481.689" height="151.506" rx="5.4" transform="rotate(-6.41895 142.301 159.664)" fill="white" fill-opacity="0.75" shape-rendering="crispEdges"/>
<rect x="142.798" y="160.061" width="480.789" height="150.606" rx="4.95" transform="rotate(-6.41895 142.798 160.061)" stroke="#B9B6AA" stroke-width="0.9" shape-rendering="crispEdges"/>
</g>
<path d="M613.313 190.225C613.468 190.031 613.436 189.748 613.242 189.593L610.076 187.067C609.881 186.912 609.598 186.944 609.443 187.139C609.288 187.333 609.32 187.616 609.514 187.771L612.329 190.016L610.084 192.83C609.929 193.024 609.96 193.308 610.155 193.463C610.349 193.618 610.632 193.586 610.787 193.391L613.313 190.225ZM166.935 240.577L613.011 190.392L612.911 189.498L166.834 239.682L166.935 240.577Z" fill="#626262"/>
<line x1="274.54" y1="209.35" x2="276.096" y2="223.177" stroke="#AEAEAE" stroke-width="0.9"/>
<rect x="238.321" y="196.311" width="67.5265" height="11.5948" rx="1.8" transform="rotate(-6.41895 238.321 196.311)" fill="#DCDCDC"/>
<g filter="url(#filter4_bdd_1_7659)">
<rect x="332.418" y="106.348" width="254.729" height="134.068" rx="6" transform="rotate(-20.5334 332.418 106.348)" fill="white" fill-opacity="0.75" shape-rendering="crispEdges"/>
<rect x="333.062" y="106.641" width="253.729" height="133.068" rx="5.5" transform="rotate(-20.5334 333.062 106.641)" stroke="#B9B6AA" shape-rendering="crispEdges"/>
</g>
<path d="M235.875 112.207C222.107 141.421 234.63 176.265 263.844 190.033C293.058 203.801 327.902 191.279 341.67 162.064C355.437 132.85 342.915 98.0061 313.701 84.2383C284.487 70.4704 249.643 82.9923 235.875 112.207Z" fill="#B8DDF6" fill-opacity="0.3"/>
<path d="M314.986 290.623L307.219 199.916C307.775 199.768 308.33 199.616 308.884 199.453C325.595 194.562 339.404 183.455 347.764 168.18C356.124 152.906 358.037 135.287 353.15 118.575C348.262 101.864 337.156 88.0545 321.884 79.6959C306.612 71.3372 288.995 69.426 272.284 74.3162C255.572 79.2065 241.763 90.3143 233.403 105.589C225.043 120.863 223.13 138.482 228.018 155.193C232.906 171.905 244.011 185.714 259.283 194.073C268.526 199.132 278.629 201.824 288.869 202.082L296.585 292.201L314.986 290.623ZM245.222 112.054C258.913 87.0388 290.401 77.8243 315.413 91.5138C340.425 105.203 349.635 136.692 335.944 161.708C322.252 186.723 290.764 195.938 265.752 182.248C240.74 168.559 231.53 137.07 245.222 112.054Z" fill="#D5E802"/>
<g filter="url(#filter5_bdd_1_7659)">
<path d="M302.099 515.117L134.75 249.665C133.572 247.796 134.132 245.326 136.001 244.148L279.374 153.762C280.318 153.166 281.468 152.993 282.547 153.283L360.812 174.345C361.89 174.635 363.04 174.461 363.985 173.866L545.091 59.6913C546.96 58.5131 549.43 59.073 550.608 60.9418L684.823 273.836C686.001 275.705 685.441 278.175 683.572 279.353L307.616 516.367C305.747 517.545 303.277 516.986 302.099 515.117Z" fill="#D0C1AA"/>
</g>
</g>
<defs>
<filter id="filter1_bdd_1_7659" x="210.801" y="-11.2298" width="378.506" height="386.097" filterUnits="userSpaceOnUse" color-interpolation-filters="sRGB">
<feFlood flood-opacity="0" result="BackgroundImageFix"/>
<feGaussianBlur in="BackgroundImageFix" stdDeviation="4"/>
<feComposite in2="SourceAlpha" operator="in" result="effect1_backgroundBlur_1_7659"/>
<feColorMatrix in="SourceAlpha" type="matrix" values="0 0 0 0 0 0 0 0 0 0 0 0 0 0 0 0 0 0 127 0" result="hardAlpha"/>
<feMorphology radius="4" operator="dilate" in="SourceAlpha" result="effect2_dropShadow_1_7659"/>
<feOffset dy="12"/>
<feGaussianBlur stdDeviation="16"/>
<feComposite in2="hardAlpha" operator="out"/>
<feColorMatrix type="matrix" values="0 0 0 0 0 0 0 0 0 0 0 0 0 0 0 0 0 0 0.15 0"/>
<feBlend mode="normal" in2="effect1_backgroundBlur_1_7659" result="effect2_dropShadow_1_7659"/>
<feColorMatrix in="SourceAlpha" type="matrix" values="0 0 0 0 0 0 0 0 0 0 0 0 0 0 0 0 0 0 127 0" result="hardAlpha"/>
<feOffset dy="1"/>
<feGaussianBlur stdDeviation="4"/>
<feComposite in2="hardAlpha" operator="out"/>
<feColorMatrix type="matrix" values="0 0 0 0 0 0 0 0 0 0 0 0 0 0 0 0 0 0 0.15 0"/>
<feBlend mode="normal" in2="effect2_dropShadow_1_7659" result="effect3_dropShadow_1_7659"/>
<feBlend mode="normal" in="SourceGraphic" in2="effect3_dropShadow_1_7659" result="shape"/>
</filter>
<filter id="filter2_d_1_7659" x="103.752" y="98.0972" width="241.105" height="175.684" filterUnits="userSpaceOnUse" color-interpolation-filters="sRGB">
<feFlood flood-opacity="0" result="BackgroundImageFix"/>
<feColorMatrix in="SourceAlpha" type="matrix" values="0 0 0 0 0 0 0 0 0 0 0 0 0 0 0 0 0 0 127 0" result="hardAlpha"/>
<feOffset dy="2"/>
<feGaussianBlur stdDeviation="4"/>
<feComposite in2="hardAlpha" operator="out"/>
<feColorMatrix type="matrix" values="0 0 0 0 0 0 0 0 0 0 0 0 0 0 0 0 0 0 0.5 0"/>
<feBlend mode="normal" in2="BackgroundImageFix" result="effect1_dropShadow_1_7659"/>
<feBlend mode="normal" in="SourceGraphic" in2="effect1_dropShadow_1_7659" result="shape"/>
</filter>
<filter id="filter3_bdd_1_7659" x="110.47" y="84.7818" width="559.269" height="268.069" filterUnits="userSpaceOnUse" color-interpolation-filters="sRGB">
<feFlood flood-opacity="0" result="BackgroundImageFix"/>
<feGaussianBlur in="BackgroundImageFix" stdDeviation="3.6"/>
<feComposite in2="SourceAlpha" operator="in" result="effect1_backgroundBlur_1_7659"/>
<feColorMatrix in="SourceAlpha" type="matrix" values="0 0 0 0 0 0 0 0 0 0 0 0 0 0 0 0 0 0 127 0" result="hardAlpha"/>
<feMorphology radius="3.6" operator="dilate" in="SourceAlpha" result="effect2_dropShadow_1_7659"/>
<feOffset dy="10.8"/>
<feGaussianBlur stdDeviation="14.4"/>
<feComposite in2="hardAlpha" operator="out"/>
<feColorMatrix type="matrix" values="0 0 0 0 0 0 0 0 0 0 0 0 0 0 0 0 0 0 0.15 0"/>
<feBlend mode="normal" in2="effect1_backgroundBlur_1_7659" result="effect2_dropShadow_1_7659"/>
<feColorMatrix in="SourceAlpha" type="matrix" values="0 0 0 0 0 0 0 0 0 0 0 0 0 0 0 0 0 0 127 0" result="hardAlpha"/>
<feOffset dy="0.9"/>
<feGaussianBlur stdDeviation="3.6"/>
<feComposite in2="hardAlpha" operator="out"/>
<feColorMatrix type="matrix" values="0 0 0 0 0 0 0 0 0 0 0 0 0 0 0 0 0 0 0.15 0"/>
<feBlend mode="normal" in2="effect2_dropShadow_1_7659" result="effect3_dropShadow_1_7659"/>
<feBlend mode="normal" in="SourceGraphic" in2="effect3_dropShadow_1_7659" result="shape"/>
</filter>
<filter id="filter4_bdd_1_7659" x="298.14" y="-5.27751" width="354.127" height="283.454" filterUnits="userSpaceOnUse" color-interpolation-filters="sRGB">
<feFlood flood-opacity="0" result="BackgroundImageFix"/>
<feGaussianBlur in="BackgroundImageFix" stdDeviation="4"/>
<feComposite in2="SourceAlpha" operator="in" result="effect1_backgroundBlur_1_7659"/>
<feColorMatrix in="SourceAlpha" type="matrix" values="0 0 0 0 0 0 0 0 0 0 0 0 0 0 0 0 0 0 127 0" result="hardAlpha"/>
<feMorphology radius="4" operator="dilate" in="SourceAlpha" result="effect2_dropShadow_1_7659"/>
<feOffset dy="12"/>
<feGaussianBlur stdDeviation="16"/>
<feComposite in2="hardAlpha" operator="out"/>
<feColorMatrix type="matrix" values="0 0 0 0 0 0 0 0 0 0 0 0 0 0 0 0 0 0 0.15 0"/>
<feBlend mode="normal" in2="effect1_backgroundBlur_1_7659" result="effect2_dropShadow_1_7659"/>
<feColorMatrix in="SourceAlpha" type="matrix" values="0 0 0 0 0 0 0 0 0 0 0 0 0 0 0 0 0 0 127 0" result="hardAlpha"/>
<feOffset dy="1"/>
<feGaussianBlur stdDeviation="4"/>
<feComposite in2="hardAlpha" operator="out"/>
<feColorMatrix type="matrix" values="0 0 0 0 0 0 0 0 0 0 0 0 0 0 0 0 0 0 0.15 0"/>
<feBlend mode="normal" in2="effect2_dropShadow_1_7659" result="effect3_dropShadow_1_7659"/>
<feBlend mode="normal" in="SourceGraphic" in2="effect3_dropShadow_1_7659" result="shape"/>
</filter>
<filter id="filter5_bdd_1_7659" x="98.1338" y="35.0744" width="623.306" height="529.91" filterUnits="userSpaceOnUse" color-interpolation-filters="sRGB">
<feFlood flood-opacity="0" result="BackgroundImageFix"/>
<feGaussianBlur in="BackgroundImageFix" stdDeviation="4"/>
<feComposite in2="SourceAlpha" operator="in" result="effect1_backgroundBlur_1_7659"/>
<feColorMatrix in="SourceAlpha" type="matrix" values="0 0 0 0 0 0 0 0 0 0 0 0 0 0 0 0 0 0 127 0" result="hardAlpha"/>
<feMorphology radius="4" operator="dilate" in="SourceAlpha" result="effect2_dropShadow_1_7659"/>
<feOffset dy="12"/>
<feGaussianBlur stdDeviation="16"/>
<feComposite in2="hardAlpha" operator="out"/>
<feColorMatrix type="matrix" values="0 0 0 0 0 0 0 0 0 0 0 0 0 0 0 0 0 0 0.15 0"/>
<feBlend mode="normal" in2="effect1_backgroundBlur_1_7659" result="effect2_dropShadow_1_7659"/>
<feColorMatrix in="SourceAlpha" type="matrix" values="0 0 0 0 0 0 0 0 0 0 0 0 0 0 0 0 0 0 127 0" result="hardAlpha"/>
<feOffset dy="1"/>
<feGaussianBlur stdDeviation="4"/>
<feComposite in2="hardAlpha" operator="out"/>
<feColorMatrix type="matrix" values="0 0 0 0 0 0 0 0 0 0 0 0 0 0 0 0 0 0 0.15 0"/>
<feBlend mode="normal" in2="effect2_dropShadow_1_7659" result="effect3_dropShadow_1_7659"/>
<feBlend mode="normal" in="SourceGraphic" in2="effect3_dropShadow_1_7659" result="shape"/>
</filter>
</defs>
</svg>
