<svg width="588" height="592" viewBox="0 0 588 592" fill="none" xmlns="http://www.w3.org/2000/svg">
<circle cx="293.625" cy="293.625" r="216.063" transform="rotate(28.9341 293.625 293.625)" fill="url(#paint0_radial_1_9195)"/>
<path d="M150.515 539.006L138.726 532.488L173.868 436.911C174.396 435.477 173.66 433.887 172.226 433.359C170.791 432.832 169.201 433.567 168.673 435.002L133.824 529.781L108.912 516.01C107.574 515.27 105.889 515.755 105.15 517.093C104.41 518.431 104.896 520.116 106.233 520.856L133.959 536.182C133.959 536.182 133.964 536.185 133.966 536.186C133.969 536.188 133.971 536.189 133.975 536.191L147.837 543.854C149.175 544.594 150.86 544.109 151.6 542.771C152.339 541.433 151.854 539.748 150.516 539.009L150.515 539.006Z" fill="#2D2D2D"/>
<path d="M251.886 547.307L224.916 556.411L207.54 456.934C207.277 455.429 205.844 454.421 204.338 454.684C202.833 454.947 201.825 456.381 202.088 457.886L219.61 558.201L206.847 562.509C205.398 562.998 204.62 564.57 205.109 566.018C205.598 567.466 207.169 568.245 208.618 567.756L223.625 562.689C223.625 562.689 223.631 562.687 223.635 562.686C223.637 562.685 223.641 562.684 223.643 562.683L253.658 552.55C255.106 552.061 255.885 550.49 255.396 549.042C254.907 547.593 253.335 546.815 251.887 547.304L251.886 547.307Z" fill="#2D2D2D"/>
<path d="M352.632 357.191C357.506 401.171 397.108 432.875 441.088 428.001C485.068 423.128 516.771 383.525 511.898 339.545L352.632 357.191Z" fill="#231F20"/>
<path d="M278.298 413.792C275.375 387.404 294.396 363.643 320.784 360.72L326.077 408.499L278.298 413.792Z" fill="#231F20"/>
<path d="M511.896 339.545C514.82 365.933 495.798 389.693 469.41 392.617L464.117 344.838L511.896 339.545Z" fill="#231F20"/>
<path d="M469.438 392.629L464.141 344.851L320.805 360.741L326.101 408.519L469.438 392.629Z" fill="#231F20"/>
<path d="M434.735 392.591C436.419 419.087 416.306 441.931 389.811 443.616L386.76 395.641L434.735 392.591Z" fill="#231F20"/>
<path d="M402.043 397.579C403.727 424.076 383.614 446.919 357.119 448.605L354.068 400.63L402.043 397.579Z" fill="#6E00FF"/>
<path d="M372.424 398.234C374.108 424.73 353.995 447.574 327.5 449.259L324.449 401.284L372.424 398.234Z" fill="#231F20"/>
<path d="M339.633 402.957C341.317 429.454 321.204 452.298 294.709 453.983L291.658 406.008L339.633 402.957Z" fill="#6E00FF"/>
<path d="M210.533 278.588C170.697 297.852 122.787 281.178 103.522 241.343C84.2575 201.507 100.932 153.596 140.767 134.332L210.533 278.588Z" fill="#231F20"/>
<path d="M202.14 371.644C226.041 360.084 236.046 331.339 224.486 307.438L181.21 328.368L202.14 371.644Z" fill="#231F20"/>
<path d="M140.77 134.332C116.87 145.892 106.865 174.637 118.424 198.538L161.7 177.608L140.77 134.332Z" fill="#231F20"/>
<path d="M181.22 328.348L224.497 307.421L161.716 177.589L118.44 198.515L181.22 328.348Z" fill="#231F20"/>
<path d="M136.879 227.888C113.545 240.554 104.898 269.736 117.563 293.069L159.812 270.136L136.879 227.888Z" fill="#231F20"/>
<path d="M150.043 258.224C126.709 270.891 118.063 300.073 130.727 323.406L172.976 300.473L150.043 258.224Z" fill="#6E00FF"/>
<path d="M165.248 283.66C141.914 296.327 133.267 325.509 145.932 348.841L188.181 325.909L165.248 283.66Z" fill="#231F20"/>
<path d="M178.683 313.943C155.35 326.61 146.703 355.792 159.368 379.125L201.616 356.192L178.683 313.943Z" fill="#6E00FF"/>
<path d="M379.579 320.584C384.805 367.742 427.27 401.737 474.429 396.511C521.587 391.286 555.582 348.821 550.356 301.662L379.579 320.584Z" fill="#231F20"/>
<path d="M299.864 381.276C296.729 352.981 317.125 327.503 345.421 324.368L351.096 375.6L299.864 381.276Z" fill="#231F20"/>
<path d="M550.349 301.659C553.484 329.954 533.088 355.433 504.793 358.567L499.117 307.335L550.349 301.659Z" fill="#231F20"/>
<path d="M504.832 358.585L499.153 307.354L345.457 324.392L351.136 375.624L504.832 358.585Z" fill="#231F20"/>
<path d="M467.614 358.54C469.42 386.952 447.853 411.447 419.443 413.254L416.172 361.812L467.614 358.54Z" fill="#231F20"/>
<path d="M432.564 363.891C434.37 392.302 412.803 416.797 384.394 418.604L381.123 367.162L432.564 363.891Z" fill="#C7EAFB"/>
<path d="M400.799 364.592C402.605 393.004 381.038 417.498 352.629 419.305L349.357 367.863L400.799 364.592Z" fill="#231F20"/>
<path d="M365.636 369.657C367.442 398.068 345.875 422.563 317.465 424.37L314.194 372.928L365.636 369.657Z" fill="#C7EAFB"/>
<path d="M227.202 236.298C184.488 256.954 133.114 239.075 112.457 196.36C91.8005 153.646 109.68 102.272 152.395 81.6156L227.202 236.298Z" fill="#231F20"/>
<path d="M218.203 336.079C243.831 323.684 254.559 292.861 242.164 267.232L195.761 289.675L218.203 336.079Z" fill="#231F20"/>
<path d="M152.396 81.6149C126.767 94.0098 116.04 124.833 128.435 150.461L174.838 128.018L152.396 81.6149Z" fill="#231F20"/>
<path d="M195.771 289.655L242.175 267.216L174.858 128L128.453 150.439L195.771 289.655Z" fill="#231F20"/>
<path d="M148.23 181.934C123.21 195.516 113.938 226.808 127.518 251.827L172.821 227.236L148.23 181.934Z" fill="#231F20"/>
<path d="M162.345 214.463C137.324 228.045 128.052 259.336 141.633 284.355L186.935 259.765L162.345 214.463Z" fill="#C7EAFB"/>
<path d="M178.641 241.735C153.62 255.317 144.348 286.609 157.929 311.628L203.231 287.038L178.641 241.735Z" fill="#231F20"/>
<path d="M193.058 274.21C168.038 287.792 158.766 319.083 172.346 344.102L217.648 319.512L193.058 274.21Z" fill="#C7EAFB"/>
<path d="M354.851 345.701L219.425 270.837L181.993 338.549L317.419 413.414L354.851 345.701Z" fill="#2D2D2D"/>
<path d="M317.416 413.415L181.99 338.551L144.559 406.263L279.985 481.128L317.416 413.415Z" fill="#2D2D2D"/>
<path d="M249.677 375.967C287.073 396.64 334.148 383.083 354.821 345.687C375.494 308.291 361.937 261.216 324.54 240.543C287.144 219.87 240.069 233.427 219.396 270.824C198.723 308.22 212.281 355.294 249.677 375.967Z" fill="#2D2D2D"/>
<path d="M174.839 511.407C212.235 532.08 259.31 518.523 279.983 481.127C300.656 443.73 287.099 396.656 249.702 375.983C212.306 355.31 165.231 368.867 144.559 406.263C123.886 443.66 137.443 490.734 174.839 511.407Z" fill="#2D2D2D"/>
<path fill-rule="evenodd" clip-rule="evenodd" d="M384.975 382.322C394.404 387.534 406.273 384.116 411.486 374.687C416.698 365.258 413.28 353.389 403.851 348.176C401.274 346.752 398.516 345.972 395.761 345.783C397.1 346.152 398.418 346.684 399.688 347.386C408.349 352.173 411.489 363.075 406.701 371.736C401.921 380.383 391.048 383.526 382.394 378.773L381.933 379.607L380.26 378.683L380.264 378.687L383.585 380.523L383.202 381.216C383.767 381.611 384.358 381.981 384.975 382.322ZM372.881 353.346C370.652 357.379 369.674 361.766 369.82 366.059L337.861 348.392L337.121 349.731L321.651 341.179L320.122 343.945L335.592 352.497L335.592 352.498L320.121 343.945L318.592 346.711L334.061 355.262L332.056 358.889L380.684 385.771L380.726 385.695C381.3 386.078 381.895 386.441 382.51 386.781C394.402 393.355 409.371 389.044 415.945 377.152C422.519 365.26 418.208 350.291 406.316 343.717C394.424 337.143 379.455 341.454 372.881 353.346ZM368.117 371.97L371.322 373.741L371.323 373.744L368.116 371.971L368.117 371.97ZM384.815 374.29C391.013 377.716 398.816 375.469 402.242 369.271C405.668 363.073 403.421 355.271 397.223 351.845C395.983 351.159 394.678 350.701 393.357 350.455C393.394 350.475 393.43 350.495 393.466 350.515C399.317 353.749 401.439 361.115 398.204 366.967C394.969 372.818 387.603 374.94 381.752 371.705C381.602 371.622 381.454 371.536 381.309 371.448C382.273 372.565 383.448 373.534 384.815 374.29ZM393.745 364.502C391.871 367.89 387.606 369.119 384.217 367.246C380.828 365.372 379.6 361.107 381.473 357.718C383.346 354.329 387.612 353.101 391.001 354.974C394.39 356.847 395.618 361.113 393.745 364.502Z" fill="#FEF138"/>
<mask id="mask0_1_9195" style="mask-type:alpha" maskUnits="userSpaceOnUse" x="318" y="340" width="102" height="50">
<path fill-rule="evenodd" clip-rule="evenodd" d="M384.975 382.325C394.404 387.537 406.273 384.119 411.485 374.69C416.698 365.261 413.279 353.392 403.85 348.179C401.274 346.755 398.515 345.975 395.76 345.786C397.1 346.155 398.418 346.686 399.688 347.388C408.349 352.176 411.488 363.078 406.701 371.739C401.921 380.386 391.047 383.529 382.393 378.776L381.932 379.61L380.26 378.686L380.264 378.69L383.585 380.526L383.202 381.219C383.766 381.614 384.358 381.984 384.975 382.325ZM372.881 353.349C370.651 357.382 369.674 361.769 369.819 366.062L337.861 348.395L337.121 349.734L321.65 341.182L320.121 343.948L335.592 352.5L335.591 352.501L320.12 343.948L318.591 346.714L334.06 355.265L332.056 358.892L380.684 385.774L380.725 385.698C381.3 386.081 381.894 386.444 382.509 386.784C394.401 393.358 409.371 389.047 415.944 377.155C422.518 365.263 418.207 350.294 406.315 343.72C394.424 337.146 379.454 341.457 372.881 353.349ZM368.117 371.973L371.321 373.744L371.322 373.747L368.116 371.974L368.117 371.973ZM384.815 374.293C391.013 377.719 398.815 375.472 402.241 369.274C405.668 363.076 403.421 355.274 397.223 351.848C395.982 351.162 394.678 350.703 393.357 350.458C393.393 350.478 393.429 350.498 393.465 350.518C399.317 353.752 401.438 361.118 398.203 366.97C394.969 372.821 387.603 374.942 381.751 371.708C381.601 371.625 381.453 371.539 381.308 371.45C382.272 372.568 383.447 373.537 384.815 374.293ZM393.744 364.505C391.871 367.893 387.605 369.122 384.217 367.249C380.828 365.375 379.599 361.109 381.473 357.721C383.346 354.332 387.612 353.104 391 354.977C394.389 356.85 395.618 361.116 393.744 364.505Z" fill="#FEF138"/>
</mask>
<g mask="url(#mask0_1_9195)">
<circle cx="319.508" cy="349.163" r="4.42652" transform="rotate(28.9341 319.508 349.163)" fill="#FF7EF2"/>
<circle cx="331.465" cy="343.139" r="4.42652" transform="rotate(28.9341 331.465 343.139)" fill="#FF7EF2"/>
<circle cx="337.755" cy="361.175" r="4.42652" transform="rotate(28.9341 337.755 361.175)" fill="#FF7EF2"/>
<circle cx="354.088" cy="370.204" r="4.42652" transform="rotate(28.9341 354.088 370.204)" fill="#FF7EF2"/>
<circle cx="350.255" cy="354.007" r="4.42652" transform="rotate(28.9341 350.255 354.007)" fill="#FF7EF2"/>
<circle cx="368.219" cy="366.874" r="4.42652" transform="rotate(28.9341 368.219 366.874)" fill="#FF7EF2"/>
<circle cx="371.507" cy="375.391" r="4.42652" transform="rotate(28.9341 371.507 375.391)" fill="#FF7EF2"/>
<circle cx="383.315" cy="376.246" r="4.42652" transform="rotate(28.9341 383.315 376.246)" fill="#FF7EF2"/>
<circle cx="394.092" cy="344.103" r="4.42652" transform="rotate(28.9341 394.092 344.103)" fill="#FF7EF2"/>
<circle cx="377.449" cy="352.34" r="3.09125" transform="rotate(28.9341 377.449 352.34)" fill="#FF7EF2"/>
<circle cx="378.006" cy="364.72" r="3.09125" transform="rotate(28.9341 378.006 364.72)" fill="#FF7EF2"/>
<circle cx="396.025" cy="359.643" r="3.09125" transform="rotate(28.9341 396.025 359.643)" fill="#FF7EF2"/>
<circle cx="404.491" cy="355.858" r="3.09125" transform="rotate(28.9341 404.491 355.858)" fill="#FF7EF2"/>
<circle cx="415.522" cy="371.53" r="3.09125" transform="rotate(28.9341 415.522 371.53)" fill="#FF7EF2"/>
<circle cx="402.809" cy="384.106" r="3.09125" transform="rotate(28.9341 402.809 384.106)" fill="#FF7EF2"/>
</g>
<path d="M253.661 310.819C244.558 327.287 249.501 347.449 264.702 355.852L332.388 354.337L253.662 310.817L253.661 310.819Z" fill="#C7EAFB"/>
<path d="M292.767 295.322C276.602 288.97 257.918 298.019 251.037 315.532L334.76 348.428L292.768 295.32L292.767 295.322Z" fill="#6E00FF"/>
<rect x="334.966" y="346.629" width="3.54477" height="12.1383" transform="rotate(28.9341 334.966 346.629)" fill="#FF7EF2"/>
<path d="M385.941 302.471C386.053 301.557 386.819 300.864 387.74 300.842L408.283 300.356C409.488 300.328 410.4 301.437 410.14 302.614L408.7 309.116C408.47 310.151 407.421 310.785 406.398 310.505L387.199 305.264C386.309 305.022 385.733 304.162 385.845 303.247L385.941 302.471Z" fill="#FFE500"/>
<path d="M209.766 233.256C209.297 234.049 208.318 234.379 207.465 234.03L188.442 226.261C187.326 225.805 186.933 224.423 187.643 223.449L191.563 218.065C192.187 217.208 193.402 217.047 194.228 217.712L209.729 230.193C210.448 230.772 210.633 231.79 210.163 232.584L209.766 233.256Z" fill="#FFE500"/>
<path d="M398.9 283.46C398.69 282.598 399.118 281.707 399.924 281.334L434.385 265.372C435.532 264.84 436.863 265.586 437.01 266.841L438.187 276.946C438.298 277.895 437.67 278.773 436.737 278.976L401.534 286.617C400.55 286.83 399.575 286.221 399.336 285.243L398.9 283.46Z" fill="#FFE500"/>
<path d="M232.521 228.777C231.695 229.051 230.791 228.715 230.344 227.97L213.313 199.561C212.647 198.449 213.295 197.014 214.57 196.78L221.584 195.493C222.477 195.329 223.358 195.835 223.666 196.689L234.304 226.179C234.658 227.162 234.132 228.243 233.141 228.572L232.521 228.777Z" fill="#FFE500"/>
<path d="M396.164 325.615C396.559 324.754 397.538 324.329 398.436 324.627L412.141 329.179C413.242 329.545 413.742 330.819 413.183 331.836L410.126 337.394C409.561 338.421 408.198 338.674 407.302 337.919L396.28 328.624C395.642 328.086 395.442 327.188 395.79 326.43L396.164 325.615Z" fill="#FFE500"/>
<path d="M219.358 247.172C219.602 248.087 219.118 249.038 218.235 249.381L204.771 254.603C203.69 255.022 202.493 254.358 202.276 253.218L201.092 246.986C200.873 245.835 201.762 244.771 202.934 244.783L217.351 244.926C218.186 244.935 218.912 245.499 219.127 246.305L219.358 247.172Z" fill="#FFE500"/>
<path d="M279.14 243.974C290.281 250.131 294.357 264.118 288.237 275.194C287.468 276.585 285.765 277.07 284.366 276.297C282.967 275.524 282.472 273.824 283.24 272.433C287.851 264.089 284.739 253.552 276.395 248.941C268.052 244.33 257.446 247.352 252.863 255.647C252.095 257.037 250.392 257.523 248.993 256.75C247.594 255.977 247.098 254.276 247.867 252.886C253.987 241.81 267.998 237.818 279.14 243.974Z" fill="white"/>
<path d="M346.739 281.319C357.88 287.476 361.956 301.463 355.836 312.539C355.067 313.929 353.364 314.415 351.965 313.642C350.566 312.868 350.071 311.168 350.839 309.778C355.45 301.434 352.338 290.896 343.994 286.286C335.651 281.675 325.046 284.697 320.462 292.991C319.694 294.382 317.991 294.867 316.592 294.094C315.193 293.321 314.697 291.621 315.466 290.231C321.586 279.155 335.597 275.162 346.739 281.319Z" fill="white"/>
<path d="M283.26 387.062L279.405 391.969L282.915 397.158L277.05 395.026L273.212 399.956L273.416 393.72L267.535 391.564L273.541 389.837L273.745 383.6L277.254 388.789L283.26 387.062Z" fill="#FFE500"/>
<path d="M238.48 388.195L239.113 391.708L242.665 392.18L239.524 393.876L240.173 397.392L237.585 394.934L234.428 396.628L235.972 393.405L233.383 390.947L236.936 391.419L238.48 388.195Z" fill="#FFE500"/>
<rect width="94.7781" height="15.5361" rx="2.03353" transform="matrix(0.0318102 -0.999494 -0.999494 -0.0318102 470.116 448.438)" fill="#FA78C3"/>
<path d="M259.103 130.917L266.771 124.01L263.421 121.333L258.817 125.479L252.125 120.462L245.988 125.989L239.295 120.972L231.625 127.879L234.976 130.557L239.581 126.409L246.274 131.426L252.411 125.9L259.103 130.917Z" fill="#FF5A00"/>
<path d="M483.268 253.226L491.643 247.195L488.604 244.169L483.576 247.789L477.47 242.074L470.768 246.899L464.661 241.183L456.285 247.214L459.323 250.24L464.353 246.619L470.46 252.335L477.162 247.51L483.268 253.226Z" fill="#00C800"/>
<path d="M365.961 184.526L374.915 189.658L376.414 185.64L371.039 182.558L373.719 174.635L366.554 170.528L369.233 162.604L360.279 157.471L358.78 161.489L364.157 164.572L361.477 172.496L368.641 176.603L365.961 184.526Z" fill="#FF5A00"/>
<path d="M190.87 86.2283C195.254 88.6518 200.772 87.0625 203.196 82.6784C205.62 78.2943 204.03 72.7756 199.646 70.3521C195.262 67.9286 189.743 69.5179 187.32 73.902C184.896 78.2861 186.486 83.8048 190.87 86.2283Z" fill="#0082FF"/>
<path d="M290.241 188.194C294.625 190.618 300.116 189.078 302.506 184.756C304.895 180.434 303.278 174.965 298.894 172.542C294.51 170.118 289.019 171.657 286.63 175.98C284.24 180.302 285.857 185.771 290.241 188.194Z" fill="#00C800"/>
<path d="M382.399 306.663L374.901 302.205C374.765 302.124 374.625 302.059 374.483 302C376.096 288.272 369.883 274.34 357.477 266.965C341.323 257.361 320.419 262.289 309.595 277.799C308 276.313 306.068 275.229 303.97 274.64C312.53 257.696 306.888 236.888 290.689 227.258C278.295 219.889 263.106 221.076 251.818 229.03L244.627 224.754C243.086 223.838 241.075 224.373 240.138 225.949C239.201 227.525 239.692 229.547 241.233 230.463L246.501 233.595C244.561 235.614 242.816 237.884 241.321 240.398C231.03 257.708 236.431 279.98 253.361 290.045C268.975 299.328 289.024 295.035 300.12 280.735C302.531 280.721 304.788 281.911 306.142 283.887C298.651 300.537 304.428 320.406 320.147 329.751C337.077 339.816 359.223 333.922 369.515 316.611C371.009 314.097 372.17 311.48 373.016 308.811L379.005 312.371C380.546 313.287 382.557 312.752 383.494 311.177C384.43 309.601 383.94 307.579 382.399 306.663ZM256.755 284.337C242.903 276.102 238.484 257.88 246.905 243.717C255.325 229.554 273.444 224.731 287.295 232.967C301.147 241.202 305.566 259.423 297.146 273.586C288.725 287.749 270.607 292.572 256.755 284.337ZM323.543 324.043C309.691 315.808 305.272 297.587 313.692 283.424C322.113 269.26 340.231 264.438 354.083 272.673C367.935 280.908 372.354 299.13 363.933 313.293C355.513 327.456 337.394 332.279 323.543 324.043Z" fill="#D5E802"/>
<defs>
<radialGradient id="paint0_radial_1_9195" cx="0" cy="0" r="1" gradientUnits="userSpaceOnUse" gradientTransform="translate(293.625 293.625) rotate(90) scale(216.063)">
<stop stop-color="#D5E802"/>
<stop offset="1" stop-color="#D5E802" stop-opacity="0"/>
</radialGradient>
</defs>
</svg>
